<?xml version="1.0" encoding="iso-8859-1"?>
<!-- Generator: Adobe Illustrator 22.1.0, SVG Export Plug-In . SVG Version: 6.00 Build 0)  -->
<svg version="1.1" id="Capa_1" xmlns="http://www.w3.org/2000/svg" xmlns:xlink="http://www.w3.org/1999/xlink" x="0px" y="0px"
	 viewBox="0 0 863 254.7" style="enable-background:new 0 0 863 254.7;" xml:space="preserve">
<g>
	<g>
		<path style="fill-rule:evenodd;clip-rule:evenodd;fill:#46717B;" d="M132.32,123.918v42.2h32.319
			c7.747,0,26.992-0.875,26.992-20.894c0-10.832-3.388-18.379-16.338-20.022c1.549-0.304,2.979-0.724,4.287-1.251L132.32,123.918
			L132.32,123.918L132.32,123.918z M205.002,123.918l-12.933,42.196h16.249l4.063-14.326h17.438l3.962,14.326h17.236l-12.674-42.196
			h-15.533l4.431,17.931h-12.486l4.033-17.931H205.002L205.002,123.918L205.002,123.918z M254.833,123.918v42.196h13.953v-42.196
			H254.833L254.833,123.918L254.833,123.918z M269.168,123.918l17.614,42.196h19.389v-42.196h-13.969v19.345l-8.099-19.345H269.168
			L269.168,123.918L269.168,123.918z M313.013,123.918c-0.176,3.149-0.201,6.511-0.201,10.03c0,19.441-0.591,34.067,24.572,34.067
			c14.28,0,22.623-5.663,22.623-23.288h-16.242c-0.203,5.204-0.293,13.425-6.38,13.425c-6.911,0-7.92-4.172-7.92-24.204
			c0-3.921,0.058-7.224,0.189-10.005L313.013,123.918L313.013,123.918L313.013,123.918z M365.016,123.918
			c-0.188,3.254-0.188,6.625-0.188,10.03c0,17.259,0,34.067,25.167,34.067c25.161,0,25.161-16.808,25.161-34.067
			c0-3.404,0-6.776-0.187-9.997l-16.869-0.033c0.163,2.874,0.21,6.206,0.21,10.03c0,16.898-0.952,24.204-8.315,24.204
			c-7.369,0-8.319-7.306-8.319-24.204c0-3.824,0.048-7.156,0.21-10.026L365.016,123.918L365.016,123.918L365.016,123.918z
			 M433.034,123.918v42.196h24.567c25.764,0,24.066-22.816,24.066-32.784c0-3.368-0.102-6.499-0.361-9.387l-16.446-0.025
			c0.225,3.007,0.225,6.382,0.225,9.882c0,16.256-1.541,22.454-9.415,22.454h-6.253v-32.336H433.034L433.034,123.918
			L433.034,123.918z M487.98,123.918c-0.197,3.297-0.197,6.719-0.197,10.172c0,17.188,0,33.924,25.175,33.924
			c25.178,0,25.178-16.736,25.178-33.924c0-3.454,0-6.876-0.197-10.143l-16.88-0.029c0.169,2.898,0.221,6.281,0.221,10.172
			c0,16.826-0.951,24.1-8.323,24.1c-7.368,0-8.319-7.274-8.319-24.1c0-3.892,0.048-7.275,0.22-10.172H487.98L487.98,123.918
			L487.98,123.918z M555.145,123.918v42.21h32.317c7.748,0,26.992-0.875,26.992-20.897c0-10.829-3.388-18.379-16.338-20.018
			c1.609-0.319,3.085-0.76,4.435-1.313L555.145,123.918L555.145,123.918L555.145,123.918z M619.894,123.918v42.189h16.857v-42.189
			H619.894L619.894,123.918L619.894,123.918z M650.985,123.918c-0.755,4.1-3.217,7.064-6.793,6.838l-4.689,0.068l15.345,35.283
			h26.963l4.066-14.326h17.433l3.964,14.326l39.168,0.008c10.823,0,21.786-1.442,21.786-18.186
			c0-15.707-18.497-17.377-25.432-24.034l-22.268,0.024c4.469,14.684,30.395,15.163,30.395,25.055c0,4.387-2.352,7.341-7.152,7.341
			l-22.21-0.004l-9.724-32.392h-15.544l4.442,17.963h-12.482l4.036-17.963H678.42l-11.266,36.378l-11.431-25.291
			c6.622-1.234,10.092-4.806,11.27-11.05L650.985,123.918L650.985,123.918L650.985,123.918z M774.331,123.918v42.196h16.449v-42.196
			H774.331L774.331,123.918L774.331,123.918z M800.433,123.918v42.196h35.639v-9.779h-19.193v-32.418H800.433L800.433,123.918
			L800.433,123.918z M156.189,131.547h2.538c9.658,0,12.709,4.269,12.709,11.27c0,11.048-9.152,11.159-13.219,11.159h-5.995v-22.303
			L156.189,131.547L156.189,131.547L156.189,131.547z M580.082,131.67h4.099c7.867,0,10.349,4.264,10.349,11.266
			c0,11.051-7.454,11.159-10.765,11.159h-8.696v-22.303L580.082,131.67L580.082,131.67L580.082,131.67z"/>
		<path style="fill-rule:evenodd;clip-rule:evenodd;fill:#46717B;" d="M179.579,123.918c7.07-2.794,10.599-8.666,10.599-16.327
			c0-16.847-11.498-20.456-25.418-20.456h-32.44v36.783H179.579L179.579,123.918L179.579,123.918z M218.789,123.918l1.914-8.522
			l2.107,8.522h15.533l-6.745-22.454h-19.713l-6.883,22.454H218.789L218.789,123.918L218.789,123.918z M268.786,123.918v-0.922
			l0.381,0.922h14.934l-9.4-22.454h-19.869v22.454H268.786L268.786,123.918L268.786,123.918z M306.17,123.918v-22.454h-13.969
			v22.454H306.17L306.17,123.918L306.17,123.918z M329.654,123.918c0.572-11.882,2.534-14.175,7.417-14.175
			c4.335,0,6.281,3.289,6.281,12.057h16.146c0.605-14.158-7.259-21.92-22.824-21.92c-18.969,0-22.87,9.861-23.662,24.036
			L329.654,123.918L329.654,123.918L329.654,123.918z M381.886,123.918c0.55-9.802,2.41-14.175,8.109-14.175
			c5.695,0,7.559,4.373,8.105,14.179l16.869-0.004c-0.77-13.267-4.72-24.038-24.974-24.038c-20.256,0-24.206,10.771-24.979,24.071
			L381.886,123.918L381.886,123.918L381.886,123.918z M449.418,123.918v-12.575h6.68c6.353,0,8.215,5.255,8.763,12.554l16.446,0.021
			c-1.312-14.419-6.624-22.657-23.105-22.657h-25.167v22.657H449.418L449.418,123.918L449.418,123.918z M504.858,123.918
			c0.566-9.627,2.438-13.924,8.099-13.924c5.664,0,7.541,4.297,8.102,13.924h16.88c-0.798-13.123-4.811-23.748-24.982-23.748
			c-20.168,0-24.18,10.624-24.978,23.777L504.858,123.918L504.858,123.918L504.858,123.918z M602.549,123.918
			c6.969-2.869,10.454-8.711,10.454-16.319c0-16.845-11.501-20.456-25.421-20.456h-32.438v36.775H602.549L602.549,123.918
			L602.549,123.918z M636.751,123.918v-12.521h5.59c4.758,0,8.887,3.469,8.887,9.824c0,0.947-0.083,1.865-0.244,2.734l16.007-0.037
			c0.316-1.628,0.468-3.486,0.476-5.538c0.03-11.011-6.54-16.921-16.746-16.921h-30.828v22.46H636.751L636.751,123.918
			L636.751,123.918z M692.287,123.918l1.912-8.485l2.092,8.485h15.544l-6.742-22.46h-19.716l-6.958,22.46H692.287L692.287,123.918
			L692.287,123.918z M742.794,123.918c-1.601-1.559-2.586-3.36-2.586-5.659c0-4.476,2.73-6.894,7.34-6.894h14.993v-9.949h-21.063
			c-17.319,0-21.604,7.815-21.604,17.93c0,1.661,0.231,3.175,0.652,4.558L742.794,123.918L742.794,123.918L742.794,123.918z
			 M790.781,123.918v-22.454h-16.449v22.454H790.781L790.781,123.918L790.781,123.918z M816.879,123.918v-22.454h-16.446v22.454
			H816.879L816.879,123.918L816.879,123.918z M152.221,119.471V99.277h7.139c6.479,0,11.056,4.268,11.056,10.064
			c0,7.658-5.844,10.065-10.039,10.065h-6.694L152.221,119.471L152.221,119.471L152.221,119.471z M575.069,119.589V99.396h9.627
			c5.278,0,9.008,4.268,9.008,10.064c0,7.658-4.763,10.064-8.177,10.064h-5.455L575.069,119.589L575.069,119.589L575.069,119.589z"
			/>
	</g>
	<path style="fill-rule:evenodd;clip-rule:evenodd;fill:#46717B;" d="M91.613,97.823l8.319,5.699l8.139-5.439l0.016-11.176
		L91.613,97.823L91.613,97.823L91.613,97.823z M43.516,157.051l-8.29-5.652l-8.299,5.662v10.953L43.516,157.051L43.516,157.051
		L43.516,157.051z M74.994,108.709l8.123,5.464l-38.598,26.116l23.851,16.097l11.2-7.591l-8.701-5.764l20.081-13.46l16.803,11.147
		l-40.593,27.06l-40.053-26.871L74.994,108.709L74.994,108.709L74.994,108.709z M59.789,145.756l-8.122-5.464l38.597-26.116
		l-23.85-16.097l-11.201,7.591l8.701,5.763l-20.082,13.46l-16.801-11.147l40.449-27.06l40.158,26.99L59.789,145.756L59.789,145.756
		L59.789,145.756z"/>
</g>
</svg>
