<?xml version="1.0" encoding="iso-8859-1"?>
<!-- Generator: Adobe Illustrator 22.1.0, SVG Export Plug-In . SVG Version: 6.00 Build 0)  -->
<svg version="1.1" id="Capa_1" xmlns="http://www.w3.org/2000/svg" xmlns:xlink="http://www.w3.org/1999/xlink" x="0px" y="0px"
	 viewBox="0 0 863 254.7" style="enable-background:new 0 0 863 254.7;" xml:space="preserve">
<g>
	<path style="fill:#46717B;" d="M761.918,157.206c-0.315-0.798-0.413-1.309-0.545-1.265c-0.244,0.074-0.67,0.318-0.998,0.44
		c-1.945,1.045-5.436,2.493-10.286,2.483c-9.305-0.071-17.559-7.195-17.559-18.722c0-12.555,6.88-19.38,16.24-19.371
		c5.196,0.007,8.815,1.316,12.225,3.633c1.617-5.766,4.336-11.227,7.712-15.726c-1.343-0.974-3.599-2.415-6.616-3.861v0.014
		c-4.566-2.05-9.742-3.212-15.509-3.212c-20.644,0-36.379,13.975-36.379,38.117c0,24.003,15.736,37.946,36.379,37.962
		c9.979,0,17.637-3.234,17.637-3.234c1.657-0.649,4.357-1.901,5.503-2.439C764.972,165.585,762.797,159.472,761.918,157.206"/>
	<path style="fill:#46717B;" d="M288.918,78.608h40.518c15.602,0,27.245,7.952,27.245,24.693c0,12.291-5.392,19.125-14.763,22.751
		v0.279c11.159,2.654,16.914,9.622,16.914,21.495c0,23.306-17.64,28.19-32.645,28.19h-37.269V78.608L288.918,78.608z
		 M311.25,157.595h8.576c8.155,0,16.686-1.407,16.686-11.315c0-10.601-8.759-11.578-16.441-11.578h-8.822V157.595L311.25,157.595z
		 M311.25,117.125h8.216c7.32,0,14.887-2.112,14.887-10.325c0-8.94-7.2-9.769-14.64-9.769h-8.463V117.125L311.25,117.125z"/>
	<path style="fill:#46717B;" d="M563.947,176.016H544.02v-10.922h-0.237c-4.218,8.067-12.286,12.603-21.486,12.603
		c-18.611,0-28.562-17.877-28.562-39.353c0-17.879,9.478-36.729,26.77-36.729c8.636,0,15.949,2.652,21.476,11.037h0.24V78.348
		h21.726V176.016L563.947,176.016z M529.14,158.43c7.201,0,13.202-7.949,13.202-18.567c0-11.028-5.284-18.965-13.202-18.965
		c-8.392,0-13.081,8.365-13.081,17.988C516.06,150.481,520.971,158.43,529.14,158.43"/>
	<path style="fill:#46717B;" d="M772.258,139.735c0-24.14,15.729-38.117,36.373-38.117c20.657,0,36.369,13.977,36.369,38.117
		c0,24.003-15.712,37.966-36.369,37.966C787.987,177.701,772.258,163.738,772.258,139.735 M822.682,139.735
		c0-10.899-4.089-20.508-14.051-20.508c-9.948,0-14.027,9.608-14.027,20.508c0,10.746,4.079,20.37,14.027,20.37
		C818.592,160.105,822.682,150.481,822.682,139.735"/>
	<path style="fill:#46717B;" d="M483.712,176.023c-0.95-5.747-1.201-11.45-1.201-17.166v-27.087
		c0-22.182-13.794-30.148-29.77-30.148c-9.086,0-17.019,1.498-24.604,5.003v17.006l0.008,0.194
		c6.006-3.912,12.966-5.453,19.938-5.453c7.793,0,14.143,2.655,14.268,12.569c-2.764-0.558-6.586-0.987-10.077-0.987
		c-11.521,0-32.299,2.654-32.299,24.851c0,15.77,11.061,22.893,23.406,22.893c8.182,0,15.225-3.897,19.199-11.294v9.62H483.712
		L483.712,176.023z M462.49,152.947c-2.852,4.972-7.58,7.533-13.466,7.533c-5.04,0-8.879-2.936-8.879-7.959
		c0-6.968,5.764-9.623,13.08-9.623c3.247,0,6.491,0.281,9.265,0.402V152.947L462.49,152.947z"/>
	<path style="fill:#46717B;" d="M409.439,101.618c-9.366,0-14.765,5.879-18.494,15.069h-0.228v-13.39h-19.69v72.726h21.615v-30.717
		c0-14.207,5.569-22.781,15.632-23.508c2.075-0.149,5.549,0.457,7.404,1.177v-20.245
		C413.848,102.071,411.379,101.618,409.439,101.618"/>
	<path style="fill:#46717B;" d="M640.156,142.384c0-21.634-8.382-40.766-31.549-40.766c-19.453,0-33.501,13.977-33.501,37.968
		c0,24.006,15.732,38.111,36.359,38.111c8.044,0,15.969-1.417,22.937-4.607v-17.725c-6.488,4.039-13.192,5.571-19.078,5.571
		c-10.567,0-17.177-3.91-18.367-13.946h43.199V142.384L640.156,142.384z M596.714,132.754c0.48-8.364,4.211-15.202,11.998-15.202
		c8.646,0,12.011,6.838,12.011,15.202H596.714L596.714,132.754z"/>
	<path style="fill:#46717B;" d="M676.478,101.618c-12.475,0-26.641,6.845-26.641,23.607c0,26.221,30.73,17.585,30.73,29.867
		c0,5.01-4.326,5.845-8.761,5.845c-7.803,0-15.269-2.507-20.279-5.02v17.308c5.696,2.331,12.357,4.475,21.479,4.475
		c14.166,0,29.161-4.891,29.161-24.287c0-27.65-32.178-18.712-32.178-30.016c0-4.044,5.3-5.133,9.975-5.03
		c4.966,0.132,12.688,2.206,17.258,5.421v-17.851C690.607,103.125,683.439,101.618,676.478,101.618"/>
	<g>
		<path style="fill:#46717B;" d="M240.213,236.902H57.825c0,0-36.819,0-36.819-36.819V17.69h182.388c0,0,36.819,0,36.819,36.821
			V236.902L240.213,236.902z"/>
		<polygon style="fill:#FFFFFF;" points="120.721,206.101 109.927,206.101 109.927,150.799 120.721,150.799 120.721,206.101 		"/>
		<polygon style="fill:#FFFFFF;" points="148.212,206.101 130.537,206.101 130.537,130.189 148.212,130.189 148.212,206.101 		"/>
		<path style="fill:#FFFFFF;" d="M100.246,77.318c0,0,17.824-17.418,47.856-11.682c0,0,13.221,2.05,23.346,11.042
			c0,0,1.505,1.419,2.667,0.264c0,0,1.466-1.157-0.167-2.882c0,0-8.709-12.079-25.894-17.417c0,0-23.624-8.453-47.89,2.973
			c0,0-14.937,6.182-23.218,23.039c0,0-11.805,3.826-20.657,8.785c0,0-2.622,1.045-1.627,3.07c0,0,0.846,1.458,3.136,0.375
			c0,0,8.22-2.833,16.145-4.604c0,0-6.373,16.526,0.279,37.047c2.963,9.129,8.36,18.427,16.627,25.896c0,0,1.345,1.41,2.814,0.446
			c0,0,1.272-0.923,0.372-2.429c0,0-6.582-9.914-9.143-24.025c-2.131-11.484-1.126-27.361,6.855-39.934
			c0,0,30.387-4.245,56.291,5.507c0,0,44.007,14.357,32.923,40.982c0,0-3.21,9.258-15.357,17.633c0,0-2.035,1.18-0.925,2.882
			c0,0,0.917,1.319,2.992,0.467c0,0,18.604-6.045,26.626-20.985c0,0,16.294-24.925-22.114-45.251c0,0-10.553-5.649-24.128-8.67
			C148.055,79.848,123.594,73.803,100.246,77.318"/>
	</g>
</g>
</svg>
