<?xml version="1.0" encoding="iso-8859-1"?>
<!-- Generator: Adobe Illustrator 22.1.0, SVG Export Plug-In . SVG Version: 6.00 Build 0)  -->
<svg version="1.1" id="Capa_1" xmlns="http://www.w3.org/2000/svg" xmlns:xlink="http://www.w3.org/1999/xlink" x="0px" y="0px"
	 viewBox="0 0 863 254.7" style="enable-background:new 0 0 863 254.7;" xml:space="preserve">
<g>
	<g>
		<path style="fill-rule:evenodd;clip-rule:evenodd;fill:#46717B;" d="M565.15,14.7h143.219c22.424,0,40.829,18.616,40.829,41.252
			v143.219c0,22.424-18.405,40.829-41.041,40.829H564.938c-22.636-0.212-41.04-18.405-41.04-41.252l0.211-143.007
			C524.109,33.105,542.514,14.7,565.15,14.7z"/>
		<path style="fill-rule:evenodd;clip-rule:evenodd;fill:#B3BFC5;" d="M728.255,138.245h-15.866v34.482
			c0,10.577-6.981,13.539-12.27,13.539c-5.077,0-10.366-1.904-10.366-11.212v-36.81h-15.866l-0.211,39.348
			c0,15.02,8.673,21.79,20.732,21.79c8.462,0.212,14.808-3.596,18.405-9.943h0.212v8.25h15.232V138.245z M717.466,117.513
			L717.466,117.513z M717.466,117.513h-16.289l-6.77,12.693h11.424L717.466,117.513z"/>
		<path style="fill-rule:evenodd;clip-rule:evenodd;fill:#B3BFC5;" d="M661.616,154.111c0-14.808-15.655-17.559-24.117-17.559
			c-12.481,0-25.386,2.75-27.29,20.943h15.443c0.423-3.385,1.904-8.25,9.731-8.25c4.231,0,10.577,0.212,10.577,6.981
			c0,3.173-2.962,4.231-5.712,4.654l-14.174,2.115c-10.154,1.269-17.77,7.404-17.77,19.039c0,12.27,9.308,17.347,18.405,17.347
			c11.001,0,16.078-5.077,19.674-8.674c0.212,3.385,0.635,4.231,1.481,6.981h13.751c0-6.558,0-11.424,0-11.424V154.111z"/>
		<path style="fill-rule:evenodd;clip-rule:evenodd;fill:#B3BFC5;" d="M593.709,117.513h-16.078v20.732h-8.039v11.212h8.039v36.175
			c0,7.616,2.539,12.905,16.289,12.905h2.115c2.539,0,5.077-0.212,7.616-0.423v-11.847c-1.269,0-2.327,0.423-3.385,0.423
			c-6.558,0-6.77-1.481-6.77-5.077l0.212-32.156h9.943v-11.212h-9.943V117.513z"/>
		<rect x="544.841" y="117.301" style="fill-rule:evenodd;clip-rule:evenodd;fill:#B3BFC5;" width="17.347" height="80.177"/>
		<path style="fill-rule:evenodd;clip-rule:evenodd;fill:#46717B;" d="M645.962,176.535v-7.827
			c-1.693,1.269-4.231,2.327-10.789,3.173c-6.135,1.058-11.001,2.75-11.001,9.097c0,5.5,4.443,7.193,7.404,7.193
			C638.769,188.17,645.962,183.728,645.962,176.535z"/>
	</g>
	<g>
		<polygon style="fill-rule:evenodd;clip-rule:evenodd;fill:#46717B;" points="444.766,77.281 413.578,77.281 400.617,101.583 
			422.489,101.583 		"/>
		<path style="fill-rule:evenodd;clip-rule:evenodd;fill:#46717B;" d="M462.083,120.862v116.049h-29.147v-16.387
			C425.146,233.553,413.192,240,397.074,240c-11.954,0-21.491-3.492-28.341-10.208c-7.387-7.522-11.148-18.267-11.148-32.639
			v-76.291h30.624v71.993c0,8.193,2.015,13.969,6.313,17.461c3.224,2.686,7.656,3.895,13.432,3.895
			c6.313,0,11.551-1.746,15.581-5.104c5.373-4.701,8.059-11.82,8.059-21.222v-67.024H462.083z"/>
		<path style="fill-rule:evenodd;clip-rule:evenodd;fill:#46717B;" d="M335.692,227.643c-1.209-2.552-1.746-6.984-1.746-13.432
			v-62.726c0-12.894-5.776-22.028-17.058-27.803c-7.925-3.895-17.595-5.91-29.281-5.91c-14.506,0-25.654,2.418-33.579,7.119
			c-10.611,6.313-16.655,17.461-18.267,33.579h29.415c0.537-4.835,1.88-8.462,3.895-10.745c3.089-3.627,8.059-5.507,14.775-5.507
			c5.91,0,10.208,0.672,13.163,2.015c4.567,2.015,6.984,5.91,6.984,11.551c0,3.089-1.209,5.373-3.492,6.984
			c-1.478,0.94-3.895,1.746-7.253,2.149l-27.4,4.164c-10.342,1.477-18.536,5.238-24.714,11.417
			c-6.044,6.178-9.134,14.775-9.134,25.654c0,11.283,3.761,19.879,11.148,26.057c6.313,5.104,14.506,7.79,24.177,7.79
			c9.268,0,17.327-1.88,24.043-5.641c4.029-2.149,8.462-5.91,13.432-11.148c0.537,4.835,1.478,9.402,2.955,13.7h32.907v-4.567
			C338.513,231.672,336.767,230.061,335.692,227.643z M303.993,195.273c0,6.85-2.686,12.357-8.193,16.655
			c-5.507,4.164-11.82,6.313-19.073,6.313c-3.627,0-6.716-1.075-9.402-3.089c-3.224-2.552-4.835-6.044-4.835-10.88
			c0-5.91,2.149-10.208,6.179-12.894c2.686-1.88,7.387-3.358,13.835-4.432c6.447-0.94,11.283-2.015,14.506-3.089
			c3.224-1.075,5.507-2.283,6.984-3.492V195.273z"/>
		<path style="fill-rule:evenodd;clip-rule:evenodd;fill:#46717B;" d="M205.137,89.432v31.43h19.073v21.893h-19.073v62.994
			c0,3.761,0.672,6.313,2.015,7.522s4.835,1.88,10.745,1.88h6.313v22.699l-14.506,0.403h-3.895c-12.357,0-20.819-2.283-25.52-6.716
			c-3.761-3.627-5.641-9.805-5.641-18.401v-70.382h-15.715v-21.893h15.715v-31.43H205.137z"/>
		<rect x="113.802" y="80.298" style="fill-rule:evenodd;clip-rule:evenodd;fill:#46717B;" width="32.773" height="156.612"/>
	</g>
</g>
</svg>
