<?xml version="1.0" encoding="iso-8859-1"?>
<!-- Generator: Adobe Illustrator 22.1.0, SVG Export Plug-In . SVG Version: 6.00 Build 0)  -->
<svg version="1.1" id="Capa_1" xmlns="http://www.w3.org/2000/svg" xmlns:xlink="http://www.w3.org/1999/xlink" x="0px" y="0px"
	 viewBox="0 0 863 254.7" style="enable-background:new 0 0 863 254.7;" xml:space="preserve">
<g>
	<path style="fill:#46717B;" d="M124.644,63.578c0,17.319,29.046,36.555,29.046,56.334c0,0,0,1.914-0.805,3.949
		c27.16,5.732,46.395,19.242,46.395,35.069c0,21.28-34.295,38.884-76.794,38.884c-43.406,0-77.048-17.313-77.048-38.068
		c0-15.816,20.844-28.655,45.997-35.466c0,8.729,28.62,36.428,29.308,47.605c0.082,1.283,0.332,2.366,0,3.685
		c6.189-3.272,6.189-13.51,6.189-13.51c0-24.278-27.836-35.053-27.836-58.927c0-9.281,4.31-16.096,8.2-18.003v6.68
		c0,17.324,30.119,36.694,30.119,52.523v5.185c7.001-2.724,7.001-15.692,7.001-15.692c0-21.827-27.972-33.97-27.972-58.933
		c0-9.269,4.299-16.089,8.2-18.009V63.578z"/>
	<path style="fill:#46717B;" d="M260.321,191.106c-14.65,0-25.265-4.222-25.265-4.222V161.11h3.629
		c1.878,13.634,12.092,23.988,23.783,23.988c11.696,0,19.893-6.54,19.893-16.9c0-11.044-10.889-16.084-18.145-19.762l-10.482-5.321
		c-9.944-5.041-18.002-13.231-18.002-24.674c0-14.317,10.483-26.582,30.499-26.582c13.708,0,24.996,4.637,24.996,4.637v23.03h-3.628
		c-2.149-12.266-8.868-21.944-22.575-21.944c-10.216,0-16.259,7.093-16.259,14.315c0,9.409,6.447,13.635,13.973,17.451l10.486,5.308
		c9.535,4.917,21.366,13.096,21.366,27.003C294.59,179.375,282.49,191.106,260.321,191.106"/>
	<path style="fill:#46717B;" d="M328.048,163.012c-2.826,1.237-7.798,3.552-7.798,10.091c0,3.543,2.02,9.278,9.01,9.278
		c3.363,0,8.061-1.914,11.423-4.639v-20.183L328.048,163.012z M322.539,190.552c-9.138,0-15.053-6.136-15.053-15.259
		c0-6.548,4.706-11.594,15.053-15.414l18.144-6.672v-5.742c0-8.575-3.898-13.894-9.812-13.894c-4.036,0-8.064,2.047-10.084,5.319
		c-0.799,1.219-0.933,3.003-0.933,4.358c0,2.315,1.47,5.041,1.47,5.041l-8.864,4.094c-1.074-1.902-2.416-4.766-2.416-7.634
		c0-0.538,0.128-1.087,0.128-1.5c0.676-4.905,4.843-8.179,10.486-11.579c5.511-3.407,10.213-4.371,13.57-4.371
		c16.938,0,19.89,13.629,19.89,18.132v28.222c0,4.492,0.407,7.363,4.032,7.363c1.074,0,1.745,0,3.228-0.549l3.228-1.092v4.089
		l-18.822,7.088c-2.821-2.035-4.168-5.723-4.698-8.854C336.651,185.519,328.993,190.552,322.539,190.552"/>
	<path style="fill:#46717B;" d="M368.766,189.187v-3.254l4.437-0.835c2.683-0.549,4.563-2.584,4.563-5.321v-36.393
		c0-3.129-1.47-4.771-4.168-4.771c-0.935,0-2.014,0.145-3.089,0.547l-1.744,0.682v-4.089l19.346-8.453h2.827v10.094
		c5.905-6.694,12.896-10.094,19.084-10.094c13.703,0,20.288,9.958,20.288,21.539v30.939c0,2.738,2.018,4.918,4.708,5.321
		l4.565,0.835v3.254h-31.985v-3.254l4.436-0.835c2.684-0.549,4.839-2.584,4.839-5.321v-30.794c0-4.101-1.081-13.231-11.83-13.231
		c-5.914,0-10.884,3.688-13.837,6.411v37.614c0,2.738,2.146,4.773,4.836,5.321l4.429,0.835v3.254H368.766z"/>
	<path style="fill:#46717B;" d="M485.944,135.618h-18.816v33.817c0,7.492,3.901,11.581,9.54,11.581c2.288,0,5.913-0.682,9.276-2.591
		l1.483,3.273l-12.106,7.769c0,0-2.413,0.404-3.615,0.404c-11.697,0-18.013-6.943-18.013-21.672v-32.58h-9.808v-3.4
		c0,0,14.78-5.735,20.56-19.78h2.684v17.31h21.237L485.944,135.618z"/>
	<path style="fill:#46717B;" d="M514.133,163.012c-2.822,1.237-7.794,3.552-7.794,10.091c0,3.543,2.005,9.278,9.003,9.278
		c3.357,0,8.065-1.914,11.419-4.639v-20.183L514.133,163.012z M508.615,190.552c-9.136,0-15.041-6.136-15.041-15.259
		c0-6.548,4.701-11.594,15.041-15.414l18.146-6.672v-5.742c0-8.575-3.896-13.894-9.808-13.894c-4.031,0-8.072,2.047-10.077,5.319
		c-0.805,1.219-0.945,3.003-0.945,4.358c0,2.315,1.487,5.041,1.487,5.041l-8.875,4.094c-1.081-1.902-2.416-4.766-2.416-7.634
		c0-0.538,0.138-1.087,0.138-1.5c0.66-4.905,4.829-8.179,10.471-11.579c5.516-3.407,10.217-4.371,13.566-4.371
		c16.95,0,19.907,13.629,19.907,18.132v28.222c0,4.492,0.399,7.363,4.024,7.363c1.071,0,1.751,0,3.223-0.549l3.229-1.092v4.089
		l-18.809,7.088c-2.822-2.035-4.164-5.723-4.706-8.854C522.735,185.519,515.074,190.552,508.615,190.552"/>
	<path style="fill:#46717B;" d="M554.844,189.187v-3.254l4.44-0.835c2.682-0.549,4.568-2.584,4.568-5.321v-36.393
		c0-3.129-1.485-4.771-4.169-4.771c-0.936,0-2.012,0.145-3.09,0.547l-1.748,0.682v-4.089l19.355-8.453h2.822v10.094
		c5.915-6.694,12.899-10.094,19.077-10.094c13.699,0,20.296,9.958,20.296,21.539v30.939c0,2.738,2.014,4.918,4.698,5.321
		l4.566,0.835v3.254h-31.976v-3.254l4.44-0.835c2.684-0.549,4.829-2.584,4.829-5.321v-30.794c0-4.101-1.074-13.231-11.823-13.231
		c-5.915,0-10.884,3.688-13.845,6.411v37.614c0,2.738,2.16,4.773,4.839,5.321l4.435,0.835v3.254H554.844z"/>
	<path style="fill:#46717B;" d="M665.841,133.035c-9.671,0-19.619,6.259-19.619,24.524c0,15.276,7.53,24.541,19.353,24.541
		c7.124,0,11.564-4.226,12.635-6.406v-35.44C676.464,135.751,671.494,133.035,665.841,133.035 M659.795,190.552
		c-12.63,0-27.822-9.536-27.822-30.257c0-18.133,13.844-32.996,32.397-32.996c6.181,0,10.623,1.232,13.84,2.597v-31.22
		c0-3.277-1.746-4.227-3.898-4.227c-1.209,0-2.549,0.275-3.76,0.676l-2.689,0.958v-4.095l20.971-8.989h2.817v89.837
		c0,5.187,0.798,8.181,4.435,8.181c1.071,0,1.741,0,3.219-0.549l3.226-1.092v4.089l-18.809,7.088
		c-2.953-2.035-4.435-5.858-5.105-8.99C675.119,185.376,668.803,190.552,659.795,190.552"/>
	<path style="fill:#46717B;" d="M749.695,148.436v-0.268c0-10.227-5.637-15.145-12.362-15.145c-7.526,0-13.17,5.052-14.78,15.414
		H749.695z M722.149,154.024v0.682c-0.133,18.129,10.082,27.259,22.845,27.259c6.444,0,12.364-2.457,17.068-6.125v5.445
		c-5.378,5.051-13.569,9.268-23.648,9.268c-20.964,0-30.235-15.942-30.235-31.074c0-17.735,13.303-32.179,30.496-32.179
		c14.115,0,25.133,10.094,25.133,24.951v1.774H722.149z"/>
	<path style="fill:#46717B;" d="M771.732,189.187v-3.254l4.433-0.835c2.566-0.549,4.575-2.584,4.575-5.321v-36.393
		c0-3.129-1.478-4.771-4.162-4.771c-0.943,0-2.022,0.145-3.088,0.547l-1.758,0.682v-4.089l19.077-8.453h2.834v13.224
		c4.836-9.54,10.614-13.492,17.201-13.492c5.378,0,6.718,1.365,6.718,1.365v14.451h-2.682c-0.677-3.821-3.231-5.723-7.26-5.723
		c-4.299,0-9.673,1.219-13.44,9.123v33.53c0,2.738,2.689,4.918,5.243,5.321l6.454,0.835v3.254H771.732z"/>
</g>
</svg>
