<?xml version="1.0" encoding="utf-8"?>
<!-- Generator: Adobe Illustrator 21.1.0, SVG Export Plug-In . SVG Version: 6.00 Build 0)  -->
<svg version="1.1" id="Camada_1" xmlns="http://www.w3.org/2000/svg" xmlns:xlink="http://www.w3.org/1999/xlink" x="0px" y="0px"
	 viewBox="0 0 260.3 172.1" style="enable-background:new 0 0 260.3 172.1;" xml:space="preserve">
<style type="text/css">
	.st0{fill:#46717B;}
	.st1{fill:#B3BFC5;}
	.st2{fill:#FFFFFF;}
</style>
<title>Asset 1@4x</title>
<g id="Layer_2">
	<g id="Layer_1-2">
		<path class="st0" d="M0,0h260.3l0.3,81.1C229.1,69.2,129.2,40.6,0,76.2V0z"/>
		<path class="st0" d="M0,172.1h260.3v-64.9C213.3,91.4,129.9,67.9,0,101.3V172.1z"/>
		<path class="st1" d="M260.3,107.2C213.3,91.4,129.9,67.9,0,101.3V76.2c129.2-35.6,229.1-7,260.5,4.9L260.3,107.2z"/>
		<path class="st2" d="M82.9,60.9c6.4-17.8,21.2-33.2,46.8-33s42.7,14.8,47.3,33.9C144,58.4,122,57.8,82.9,60.9z"/>
		<path class="st1" d="M58.2,139.2l17.4-26H82l18.6,26h-6.8l-5.3-7.9h-19l-5,7.9H58.2z M71.2,128.5h15.4l-4.7-7.2
			c-1.2-1.7-2.2-3.5-3.2-5.4c-0.6,1.8-1.4,3.4-2.4,5L71.2,128.5L71.2,128.5z M131.1,139.2v-2.8c-2.6,2.1-6,3.2-10.4,3.2
			c-1.8,0-3.7-0.2-5.4-0.6c-1.3-0.3-2.6-0.8-3.7-1.6c-0.8-0.6-1.4-1.4-1.7-2.4c-0.3-1-0.4-2-0.3-3v-11.6h5.6v10.4
			c-0.1,1.1,0.1,2.3,0.3,3.4c0.4,0.9,1.3,1.7,2.2,2c1.3,0.5,2.8,0.8,4.2,0.7c1.6,0,3.2-0.2,4.7-0.7c1.2-0.3,2.3-1,3.1-2
			c0.7-1.1,1-2.4,0.9-3.7v-10.1h5.6v18.8L131.1,139.2z M149.6,139.2v-18.8h5v2.8c1-1.1,2.2-2,3.6-2.6c1.1-0.4,2.4-0.7,3.6-0.6
			c2,0,3.9,0.3,5.7,1l-1.9,3c-1.3-0.5-2.7-0.7-4.1-0.7c-1.1,0-2.2,0.2-3.3,0.6c-0.9,0.3-1.6,1-2.1,1.8c-0.6,1.1-0.9,2.4-0.9,3.7v9.9
			L149.6,139.2z M197.1,136.9c-1.9,0.9-3.9,1.7-6,2.1c-2,0.4-4.1,0.6-6.1,0.6c-3.6,0-6.4-0.5-8.3-1.5s-2.9-2.3-2.9-3.9
			c0-1,0.4-1.9,1.1-2.5c0.8-0.8,1.8-1.4,2.9-1.8c1.3-0.5,2.6-0.8,4-1c1.1-0.2,2.7-0.3,4.9-0.5c3.3-0.2,6.7-0.5,9.9-1.1
			c0-0.4,0-0.7,0-0.8c0.1-1.2-0.5-2.2-1.6-2.7c-2-0.8-4.2-1.2-6.3-1.1c-2-0.1-3.9,0.2-5.8,0.8c-1.3,0.5-2.2,1.5-2.8,2.8l-5.4-0.4
			c0.5-1.3,1.3-2.4,2.4-3.2c1.5-1,3.2-1.6,4.9-1.9c2.5-0.5,5-0.7,7.5-0.7c2.3,0,4.6,0.1,6.8,0.6c1.4,0.2,2.7,0.7,3.9,1.4
			c0.8,0.5,1.4,1.3,1.7,2.2c0.2,1,0.3,2,0.3,2.9v4.2c-0.1,1.9,0,3.8,0.4,5.6c0.3,0.9,0.8,1.6,1.4,2.3h-5.8
			C197.5,138.6,197.1,137.8,197.1,136.9L197.1,136.9z M196.6,129.7c-3,0.6-6,1-9.1,1.2c-1.6,0.1-3.3,0.3-4.9,0.6
			c-0.8,0.2-1.6,0.5-2.2,1c-0.5,0.4-0.8,0.9-0.8,1.5c0,0.9,0.6,1.6,1.7,2.1c1.6,0.6,3.2,0.9,4.9,0.9c1.9,0,3.9-0.2,5.7-0.8
			c1.4-0.4,2.7-1.1,3.7-2.2c0.7-0.9,1-2.1,0.9-3.2L196.6,129.7z"/>
	</g>
</g>
</svg>
