<?xml version="1.0" encoding="utf-8"?>
<!-- Generator: Adobe Illustrator 21.1.0, SVG Export Plug-In . SVG Version: 6.00 Build 0)  -->
<svg version="1.1" id="Capa_1" xmlns="http://www.w3.org/2000/svg" xmlns:xlink="http://www.w3.org/1999/xlink" x="0px" y="0px"
	 viewBox="0 0 393 257" style="enable-background:new 0 0 393 257;" xml:space="preserve">
<style type="text/css">
	.st0{fill:#32357F;}
	.st1{fill:#EA2230;}
	.st2{fill:#46717B;}
	.st3{fill:#B3BFC5;}
</style>
<polygon class="st0" points="187.7,98.3 157.1,98.3 157.1,247.7 187.7,247.7 "/>
<path id="SVGCleanerId_0" class="st0" d="M215.6,98.6v28h25.7v84.3c0,11.6,3.2,21,9.3,28c6.1,7.3,14.3,10.9,24.6,11.1
	c10.2,0.2,19.3-2,27-6.8l0.5-0.2v-0.5l7.3-28.4l-1.8,1.1c-8.2,5-15.7,7.5-22.6,7.5c-9.5,0-14.3-5.7-14.3-16.8v-79.3h31.2v-28h-31.2
	V51.9l-30,16.1v30.5H215.6L215.6,98.6z"/>
<polygon class="st0" points="363.4,98.3 332.7,98.3 332.7,247.7 363.4,247.7 "/>
<path id="SVGCleanerId_1" class="st0" d="M139.6,121.8l-0.7-0.5c-14.1-17.1-31.7-25.5-52.8-25.5c-22.1,0-40.3,6.8-54.9,20.2
	C15.8,130.3,8,149.3,8,173.2c0,23.9,7.8,42.8,23.3,57.1c14.3,13.4,32.8,20.1,54.9,20.1c21.1,0,38.9-8.4,52.8-25.3l0.7-0.5
	l-17.3-20.9l-0.7,0.7c-11.2,11.1-23.3,16.9-36.2,16.9c-13.5,0-24.6-4.6-33.5-13.7c-8.9-8.9-13.2-20.5-13.2-34.4
	c0-13.9,4.3-25.5,13.2-34.6c8.8-8.8,20-13.4,33.5-13.4c12.9,0,25,5.7,36.2,16.9l0.7,0.7L139.6,121.8L139.6,121.8z"/>
<path class="st1" d="M172.2,73.8c12-12.3,25.5-21.6,40.8-28.3c14.7-6.4,30.5-9.5,46.7-9.5c16.1,0,31.9,3.1,46.9,9.5
	c15,6.6,28.4,16,40.5,28.3l0.5,0.4h35l-1.3-2.1c-13.9-19.6-31.9-35-53.5-46.3c-21.6-11.2-44.1-16.7-68-16.7
	c-23.7,0-46.5,5.5-68.1,16.7c-21.6,11.3-39.6,26.8-53.5,46.3l-1.4,2.1h35.3L172.2,73.8L172.2,73.8z"/>
<polygon class="st2" points="187.7,98.3 157.1,98.3 157.1,247.7 187.7,247.7 "/>
<g>
	<path id="SVGCleanerId_0_1_" class="st2" d="M215.6,98.6v28h25.7v84.3c0,11.6,3.2,21,9.3,28c6.1,7.3,14.3,10.9,24.6,11.1
		c10.2,0.2,19.3-2,27-6.8l0.5-0.2v-0.5l7.3-28.4l-1.8,1.1c-8.2,5-15.7,7.5-22.6,7.5c-9.5,0-14.3-5.7-14.3-16.8v-79.3h31.2v-28h-31.2
		V51.9l-30,16.1v30.5H215.6L215.6,98.6z"/>
</g>
<polygon class="st2" points="363.4,98.3 332.7,98.3 332.7,247.7 363.4,247.7 "/>
<g>
	<path id="SVGCleanerId_1_1_" class="st2" d="M139.6,121.8l-0.7-0.5c-14.1-17.1-31.7-25.5-52.8-25.5c-22.1,0-40.3,6.8-54.9,20.2
		C15.8,130.3,8,149.3,8,173.2c0,23.9,7.8,42.8,23.3,57.1c14.3,13.4,32.8,20.1,54.9,20.1c21.1,0,38.9-8.4,52.8-25.3l0.7-0.5
		l-17.3-20.9l-0.7,0.7c-11.2,11.1-23.3,16.9-36.2,16.9c-13.5,0-24.6-4.6-33.5-13.7c-8.9-8.9-13.2-20.5-13.2-34.4
		c0-13.9,4.3-25.5,13.2-34.6c8.8-8.8,20-13.4,33.5-13.4c12.9,0,25,5.7,36.2,16.9l0.7,0.7L139.6,121.8L139.6,121.8z"/>
</g>
<path class="st3" d="M172.2,73.8c12-12.3,25.5-21.6,40.8-28.3c14.7-6.4,30.5-9.5,46.7-9.5c16.1,0,31.9,3.1,46.9,9.5
	c15,6.6,28.4,16,40.5,28.3l0.5,0.4h35l-1.3-2.1c-13.9-19.6-31.9-35-53.5-46.3c-21.6-11.2-44.1-16.7-68-16.7
	c-23.7,0-46.5,5.5-68.1,16.7c-21.6,11.3-39.6,26.8-53.5,46.3l-1.4,2.1h35.3L172.2,73.8L172.2,73.8z"/>
</svg>
