<?xml version="1.0" encoding="utf-8"?>
<!-- Generator: Adobe Illustrator 21.1.0, SVG Export Plug-In . SVG Version: 6.00 Build 0)  -->
<svg version="1.1" id="Capa_1" xmlns="http://www.w3.org/2000/svg" xmlns:xlink="http://www.w3.org/1999/xlink" x="0px" y="0px"
	 viewBox="0 0 389.3 134.7" style="enable-background:new 0 0 389.3 134.7;" xml:space="preserve">
<style type="text/css">
	.st0{fill:#B3BFC5;}
	.st1{fill:#46717B;}
</style>
<circle class="st0" cx="205.3" cy="43.3" r="31.2"/>
<g>
	<path class="st1" d="M37.4,58.2c-3.7,3.3-8.4,4.7-15.9,4.7h-3.1V23.8h3.1c7.5,0,12.1,1.3,15.9,4.8c4,3.6,6.4,9,6.4,14.7
		C43.8,49,41.4,54.6,37.4,58.2L37.4,58.2z M23.8,13.7H6.7v59.2h17c9,0,15.6-2.1,21.3-6.8c6.8-5.6,10.8-14,10.8-22.7
		C55.8,25.9,42.7,13.7,23.8,13.7"/>
	<polyline class="st1" points="61.2,72.9 72.8,72.9 72.8,13.7 61.2,13.7 61.2,72.9 	"/>
	<path class="st1" d="M101.3,36.4c-7-2.6-9-4.3-9-7.4c0-3.7,3.7-6.6,8.7-6.6c3.5,0,6.4,1.4,9.4,4.8l6.1-7.9c-5-4.4-11-6.6-17.5-6.6
		c-10.6,0-18.6,7.3-18.6,16.9c0,8.2,3.8,12.3,14.7,16.3c4.6,1.6,6.9,2.6,8.1,3.4c2.3,1.5,3.5,3.6,3.5,6.1c0,4.8-3.9,8.3-9,8.3
		c-5.5,0-10-2.7-12.7-7.9l-7.5,7.2c5.4,7.8,11.8,11.3,20.7,11.3c12.1,0,20.6-8,20.6-19.4C118.5,45.5,114.5,41.2,101.3,36.4"/>
	<path class="st1" d="M122.1,43.4c0,17.4,13.8,30.9,31.5,30.9c5,0,9.3-1,14.6-3.5V57.2c-4.7,4.6-8.8,6.5-14.1,6.5
		c-11.7,0-20-8.4-20-20.4c0-11.4,8.6-20.3,19.5-20.3c5.5,0,9.8,1.9,14.6,6.7V16c-5.1-2.6-9.3-3.6-14.3-3.6
		C136.3,12.4,122.1,26.2,122.1,43.4"/>
	<polyline class="st1" points="262.6,53.5 246.6,13.7 233.9,13.7 259.3,74.4 265.5,74.4 291.3,13.7 278.7,13.7 262.6,53.5 	"/>
	<polyline class="st1" points="296.6,72.9 329.6,72.9 329.6,62.9 308.2,62.9 308.2,46.9 328.8,46.9 328.8,36.9 308.2,36.9 
		308.2,23.8 329.6,23.8 329.6,13.7 296.6,13.7 296.6,72.9 	"/>
	<path class="st1" d="M352.3,41h-3.4V23h3.6c7.3,0,11.2,3,11.2,8.8C363.7,37.8,359.8,41,352.3,41L352.3,41z M375.7,31.2
		c0-11.1-7.7-17.5-21.1-17.5h-17.3v59.2h11.6V49.1h1.5l16.1,23.8h14.3L362.1,48C370.8,46.2,375.7,40.3,375.7,31.2"/>
</g>
<path class="st1" d="M91.6,127.9V94.6l22.7,23.8V96.8h4.7v33.1l-22.7-23.7v21.8L91.6,127.9L91.6,127.9z"/>
<path class="st1" d="M143.7,101.2h-12.5v7.5h12.1v4.4h-12.1v10.4h12.5v4.4h-17.2V96.8h17.2V101.2z"/>
<path class="st1" d="M158.5,101.2v26.8h-4.7v-26.8h-7.2v-4.4h19v4.4H158.5z"/>
<path class="st1" d="M173.3,96.8l8.1,20.8l8.5-22.4l8.1,22.4l8.6-20.8h5.1l-13.9,33.2l-8-22.1l-8.4,22.1l-13.3-33.2L173.3,96.8
	L173.3,96.8z"/>
<path class="st1" d="M212.6,112.2c0-4.4,1.6-8.2,4.8-11.3c3.2-3.2,7.1-4.7,11.6-4.7c4.4,0,8.3,1.6,11.4,4.8c3.2,3.2,4.8,7,4.8,11.5
	c0,4.5-1.6,8.3-4.8,11.4c-3.2,3.1-7.1,4.7-11.7,4.7c-4,0-7.6-1.4-10.8-4.2C214.4,121.2,212.6,117.2,212.6,112.2z M217.4,112.3
	c0,3.4,1.2,6.3,3.5,8.5c2.3,2.2,5,3.3,8,3.3c3.3,0,6-1.1,8.3-3.4c2.2-2.3,3.4-5.1,3.4-8.4c0-3.3-1.1-6.1-3.3-8.4
	c-2.2-2.3-4.9-3.4-8.2-3.4c-3.2,0-6,1.1-8.2,3.4C218.5,106.2,217.4,109,217.4,112.3z"/>
<path class="st1" d="M261.7,114.6l9.7,13.3h-5.8l-8.9-12.8h-0.8v12.8h-4.7V96.8h5.5c4.1,0,7.1,0.8,8.9,2.3c2,1.7,3,4,3,6.8
	c0,2.2-0.6,4.1-1.9,5.7C265.4,113.2,263.8,114.2,261.7,114.6z M255.8,111.1h1.5c4.5,0,6.7-1.7,6.7-5.1c0-3.2-2.2-4.8-6.5-4.8h-1.7
	L255.8,111.1L255.8,111.1z"/>
<path class="st1" d="M280.7,109.2l12.1-12.4h6.3L285,110.9l14.2,17.1h-6.3l-11.2-13.9l-1,1v12.9H276V96.8h4.7L280.7,109.2
	L280.7,109.2L280.7,109.2z"/>
</svg>
