<?xml version="1.0" encoding="utf-8"?>
<!-- Generator: Adobe Illustrator 21.1.0, SVG Export Plug-In . SVG Version: 6.00 Build 0)  -->
<svg version="1.1" id="Capa_1" xmlns="http://www.w3.org/2000/svg" xmlns:xlink="http://www.w3.org/1999/xlink" x="0px" y="0px"
	 viewBox="0 0 368 194" style="enable-background:new 0 0 368 194;" xml:space="preserve">
<style type="text/css">
	.st0{fill:#46717B;}
	.st1{fill:#B3BFC5;}
</style>
<g>
	<g>
		<path class="st0" d="M80.8,39.8C40.6,39.8,8,72.4,8,112.6c0,14.9,4.5,28.8,12.2,40.4l72-31.5l30-13.2l0,0.1l29.4-12.8
			C143.9,63.5,115.1,39.8,80.8,39.8z M39.3,116.4c-0.1-1.3-0.2-2.5-0.2-3.8c0-23,18.7-41.7,41.7-41.7c12.5,0,23.6,5.5,31.3,14.1
			L39.3,116.4z"/>
		<path class="st0" d="M131.7,164.7c-26.1,24.7-60.6,27.2-90.9,8.8l17.1-26c17.2,10.3,34.6,8.6,52-5L131.7,164.7L131.7,164.7z"/>
		<path class="st0" d="M161.4,146.7L161.2,9h26.1v134c0,1.3,0.2,2.4,1.8,3.1l22.7,8.8l-10.2,26.6L175,170.2
			C164.9,165.9,161.4,159.8,161.4,146.7L161.4,146.7z"/>
	</g>
	<g>
		<path class="st1" d="M259.6,144.4c-9.8-7.6-16.1-19.5-16.1-32.8c0-11.9,5-22.6,13-30.1l-16.9-27.3c-16.9,13.4-27.8,34.2-27.8,57.4
			c0,25.1,12.6,47.2,31.9,60.5L259.6,144.4z"/>
		<path class="st1" d="M271,72.4c4.4-1.6,9.1-2.4,14.1-2.4c17.8,0,33,11.2,38.9,26.9l32.3-2.7c-7.8-32.1-36.7-55.9-71.2-55.9
			c-9.7,0-19,1.9-27.5,5.4L271,72.4z"/>
		<path class="st0" d="M326.6,113.6c-1.1,22-19.2,39.5-41.5,39.5c-3.5,0-6.9-0.4-10.1-1.2l-12.7,29.3c7.2,2.3,14.8,3.6,22.8,3.6
			c39.5,0,71.6-31.2,73.2-70.3L326.6,113.6z"/>
	</g>
</g>
</svg>
