<?xml version="1.0" encoding="utf-8"?>
<!-- Generator: Adobe Illustrator 21.1.0, SVG Export Plug-In . SVG Version: 6.00 Build 0)  -->
<svg version="1.1" id="Capa_1" xmlns="http://www.w3.org/2000/svg" xmlns:xlink="http://www.w3.org/1999/xlink" x="0px" y="0px"
	 viewBox="0 0 346.7 254.7" style="enable-background:new 0 0 346.7 254.7;" xml:space="preserve">
<style type="text/css">
	.st0{fill:#46717B;}
	.st1{fill:#B3BFC5;}
</style>
<g>
	<path class="st0" d="M285.1,7.2c-26.3,0-46.3,16.7-46.3,45.6v37.6H307c9.6,0,18,8.4,18,18c0,9.6-8.4,18-18,18
		c10.9,0,19.3,7.7,19.3,17.3c0,9.6-8.3,17.3-19.3,17.3h-68.2v88.4h0v0h58.5c20.6,0,44.3-19.3,44.3-44.3V7.2H285.1z"/>
	<path class="st0" d="M256.9,153.3h25.7v0c6.4,0,12.2-5.8,12.2-12.2s-5.8-12.2-12.2-12.2h-25.7V153.3z"/>
	<path class="st0" d="M294.1,110.3c0-6.4-5.8-12.2-12.2-12.2h-25.1v24.4h25.1C288.4,122.5,294.1,116.7,294.1,110.3z"/>
</g>
<path class="st1" d="M167.8,7.2c-26.3,0-46.3,16.7-46.3,45.6v46.6c6.3-5.6,14.5-9,23.4-9h61.7v12.9c-14.8-3.2-28.9-5.1-36-5.1
	c-15.4,0-27.6,12.2-27.6,27.6s12.2,27.6,27.6,27.6c7.1,0,21.2-1.3,36-4.5V161H145c-8.9,0-17.1-3.4-23.4-9v97.5H180
	c20.6,0,44.3-19.3,44.3-44.3V7.2H167.8z"/>
<path class="st0" d="M52.2,7.2C25.9,7.2,5.9,23.9,5.9,52.8v83.5c2.4,10.4,13,17.6,24.8,17.6c13.5,0,23.1-9.6,23.1-21.8V90.4h36.6
	v41.8c0,23.1-29.6,35.3-51.4,35.3c-12.4,0-24.2-3.9-33.2-10.1v92.1h58.5c20.6,0,44.3-19.3,44.3-44.3V7.2H52.2z"/>
</svg>
