<?xml version="1.0" encoding="utf-8"?>
<!-- Generator: Adobe Illustrator 21.1.0, SVG Export Plug-In . SVG Version: 6.00 Build 0)  -->
<svg version="1.1" id="Capa_1" xmlns="http://www.w3.org/2000/svg" xmlns:xlink="http://www.w3.org/1999/xlink" x="0px" y="0px"
	 viewBox="0 0 350.7 216.7" style="enable-background:new 0 0 350.7 216.7;" xml:space="preserve">
<style type="text/css">
	.st0{fill:#B3BFC5;}
	.st1{fill:#46717B;}
	.st2{fill:#FFFFFF;}
</style>
<g>
	<g>
		<path class="st0" d="M175.3,184c20.6-18.6,33.6-45.6,33.6-75.6c0-30-13-57-33.6-75.8c-18-16.4-42-26.4-68.4-26.4
			C50.5,6.2,4.7,52,4.7,108.4c0,56.4,45.8,102,102.2,102C133.3,210.5,157.3,200.5,175.3,184L175.3,184z"/>
	</g>
	<path class="st1" d="M244,6.2c-26.4,0-50.4,10-68.6,26.4c-3.6,3.4-7,7-10.2,10.8h20.6c2.8,3.4,5.4,7.2,7.8,10.8h-36.2
		c-2.2,3.6-4.2,7.2-6,10.8h48c1.6,3.6,3.2,7.2,4.4,10.8h-56.6c-1.2,3.6-2.2,7.2-3,11h62.6c1.4,6.8,2.2,14.2,2.2,21.6
		c0,11.2-1.8,22.2-5.2,32.4h-56.6c1.2,3.6,2.6,7.2,4.2,10.8h48c-1.8,3.6-3.6,7.4-5.8,10.8h-36.2c2.4,3.8,5,7.4,7.8,10.8h20.6
		c-3.2,3.8-6.6,7.4-10.4,10.8c18.2,16.4,42.2,26.4,68.6,26.4c56.4,0,102-45.6,102-102C346,52,300.4,6.2,244,6.2L244,6.2z"/>
	<g>
		<path class="st2" d="M310.8,130.4c0-1.8,1.6-3.2,3.4-3.2c1.8,0,3.2,1.4,3.2,3.2c0,1.8-1.4,3.4-3.2,3.4
			C312.4,133.8,310.8,132.2,310.8,130.4L310.8,130.4z M314.2,133c1.4,0,2.4-1.2,2.4-2.6c0-1.4-1-2.4-2.4-2.4c-1.4,0-2.6,1-2.6,2.4
			C311.6,131.8,312.8,133,314.2,133L314.2,133z M313.8,131.8H313V129h1.2c0.4,0,0.6,0,0.8,0.2c0.2,0.2,0.4,0.4,0.4,0.6
			c0,0.4-0.2,0.8-0.6,0.8l0.6,1.2h-0.8l-0.4-1h-0.4V131.8L313.8,131.8z M313.8,130.2h0.4c0,0,0.2,0,0.4,0c0,0,0-0.2,0-0.4v-0.2
			c-0.2,0-0.4,0-0.6,0h-0.2L313.8,130.2L313.8,130.2z"/>
		<polygon class="st2" points="94.1,133.8 81.3,133.8 88.9,94 71.5,133.8 59.9,133.8 57.9,94.2 50.3,133.8 38.7,133.8 48.5,82 
			68.5,82 69.5,114 83.5,82 104.1,82 		"/>
		<path class="st2" d="M236.1,133.2c-3.6,1-6.2,1.4-9.2,1.4c-6.4,0-10-3.2-10-9.2c0-1.2,0.2-2.4,0.4-3.8l0.8-4.2l0.6-3.2l5.8-32.2
			h12.6l-1.8,9.6h6.6l-1.8,10.2h-6.6l-3.2,17.6c-0.2,0.8-0.4,1.4-0.4,1.8c0,2.2,1.4,3.2,4.4,3.2c1.4,0,2.6-0.2,3.4-0.4L236.1,133.2
			L236.1,133.2z"/>
		<path class="st2" d="M273.2,92c-1-0.4-1.2-0.4-1.4-0.4c-0.6-0.2-1-0.2-1-0.4c-0.4,0-0.8,0-1.4,0c-4.2,0-7.2,1.8-11,6.8l1.2-6.4
			h-11.6l-7.8,42.2h12.8c4.6-25.8,6.4-30.4,12.6-30.4c0.4,0,1,0.2,1.6,0.2l1.4,0.4L273.2,92L273.2,92z"/>
		<path class="st2" d="M185.7,105c0,5.2,3,9,9.8,11.6c5.2,2.2,6,2.8,6,4.8c0,2.6-2.4,3.8-7.4,3.8c-3.8,0-7.4-0.6-11.6-1.8l-1.6,9.8
			h0.6l2.2,0.6c0.8,0,2,0.2,3.4,0.2c3,0.4,5.4,0.4,7.2,0.4c13.4,0,19.8-4.4,19.8-14c0-5.8-2.6-9.2-9.2-11.8c-5.4-2-6-2.6-6-4.6
			c0-2.2,2.2-3.4,6.4-3.4c2.4,0,6,0.2,9.2,0.6l1.8-9.6c-3.4-0.6-8.4-0.8-11.2-0.8C190.7,90.8,185.7,97.2,185.7,105L185.7,105z"/>
		<path class="st2" d="M135.3,133.8h-10.4l0.2-4.4c-3.2,3.4-7.6,5-13.4,5c-6.8,0-11.6-4.6-11.6-11.4c0-10.2,8.2-16.2,22.4-16.2
			c1.4,0,3.2,0,5.2,0.2c0.4-1.4,0.4-2,0.4-2.6c0-2.8-2.2-3.8-8.2-3.8c-3.6,0-7.6,0.4-10.4,1l-1.8,0.6l-1.2,0.2l1.8-9.4
			c6.4-1.6,10.4-2.2,15.2-2.2c11,0,16.6,4.2,16.6,12.2c0,2.2-0.2,3.8-1,8.4l-2.6,15l-0.4,2.6l-0.4,2.2l-0.2,1.4L135.3,133.8
			L135.3,133.8z M126.1,115c-1.4-0.2-2-0.2-2.8-0.2c-7.2,0-10.8,2.2-10.8,6.4c0,2.6,1.6,4.4,4.4,4.4
			C122.1,125.6,125.9,121.2,126.1,115L126.1,115z"/>
		<path class="st2" d="M177.1,132.8c-4.4,1.2-8.6,1.8-13,1.8c-14.2,0-21.6-6.6-21.6-19c0-14.4,9.4-25,22.2-25c10.4,0,17,6,17,15.2
			c0,3.2-0.4,6.2-1.4,10.4h-25.4c0,0.8,0,1,0,1.4c0,4.8,3.6,7.4,11,7.4c4.6,0,8.8-0.8,13.2-2.6L177.1,132.8L177.1,132.8z
			 M170.3,107.8c0-0.8,0-1.6,0-2.2c0-3.4-2.2-5.4-6-5.4c-4,0-6.8,2.8-8,7.6H170.3L170.3,107.8z"/>
		<path class="st2" d="M312.8,114.6c-2,14-11.8,20.2-24.8,20.2c-14.2,0-20-8.6-20-19.4c0-14.8,9.8-25,25-25c13.2,0,20.2,8.4,20.2,19
			C313.2,112,313.2,112.2,312.8,114.6L312.8,114.6z M299.6,109.2c0-4.4-1.8-8.4-7-8.4c-6.4,0-10.4,7.6-10.4,14.4
			c0,5.6,2.8,9.4,7.2,9.4c2.8,0,8.8-3.8,9.8-10.2C299.6,112.8,299.6,111,299.6,109.2L299.6,109.2z"/>
	</g>
</g>
</svg>
