<?xml version="1.0" encoding="utf-8"?>
<!-- Generator: Adobe Illustrator 21.1.0, SVG Export Plug-In . SVG Version: 6.00 Build 0)  -->
<svg version="1.1" id="Capa_1" xmlns="http://www.w3.org/2000/svg" xmlns:xlink="http://www.w3.org/1999/xlink" x="0px" y="0px"
	 viewBox="0 0 374 228.7" style="enable-background:new 0 0 374 228.7;" xml:space="preserve">
<style type="text/css">
	.st0{fill:#B3BFC5;}
	.st1{fill:#46717B;}
	.st2{fill:#FFFFFF;}
</style>
<g>
	<path class="st0" d="M369,114.3c0,60.3-48.7,109.2-108.9,109.2c-60.1,0-108.9-48.8-108.9-109.1v-0.1C151.1,54.1,199.9,5.2,260,5.2
		C320.2,5.1,368.9,54,369,114.3C369,114.3,369,114.3,369,114.3z"/>
	<path class="st1" d="M113.3,5.2C53.5,5.6,5,54.3,5,114.3C5,174.6,53.8,223.5,114,223.5c28.2,0,53.9-10.8,73.3-28.4l0,0h0
		c4-3.6,7.7-7.5,11.1-11.7H176c-3-3.6-5.7-7.4-8.1-11.2h38.5c2.4-3.8,4.5-7.7,6.4-11.7h-51.2c-1.7-3.8-3.3-7.6-4.6-11.5h60.3
		c3.6-10.9,5.6-22.5,5.6-34.6c0-8-0.9-15.8-2.5-23.4h-66.6c0.8-3.9,1.9-7.7,3.1-11.5h60.3c-1.3-4-2.9-7.9-4.7-11.7h-51
		c1.8-3.9,3.9-7.8,6.2-11.5h38.5c-2.6-4.1-5.4-8-8.4-11.7h-21.4c3.3-3.9,7-7.6,10.9-11C167.9,16,142.2,5.2,114,5.2
		C113.7,5.2,113.5,5.2,113.3,5.2z"/>
	<g>
		<path class="st2" d="M153.1,142.1l1.5-9.9c-0.8,0-2,0.3-3,0.3c-4,0-4.5-2.1-4.2-3.7l3.3-20.2h6.1l1.5-10.9h-5.8l1.2-6.8H142
			c-0.3,0.3-6.8,38.2-6.8,42.8c0,6.8,3.8,9.9,9.2,9.8C148.7,143.6,152,142.4,153.1,142.1z"/>
		<path class="st2" d="M156.8,123.3c0,16.4,10.8,20.3,20,20.3c8.5,0,12.2-1.9,12.2-1.9l2-11.2c0,0-6.5,2.9-12.3,2.9
			c-12.4,0-10.3-9.3-10.3-9.3h23.6c0,0,1.5-7.5,1.5-10.6c0-7.7-3.8-17-16.5-17C165.4,96.5,156.8,109.1,156.8,123.3z M177.1,106.9
			c6.5,0,5.3,7.4,5.3,8h-12.9C169.6,114.1,170.8,106.9,177.1,106.9z"/>
		<path class="st2" d="M250.6,142.1l2.1-12.7c0,0-5.7,2.9-9.6,2.9c-8.2,0-11.5-6.3-11.5-13.1c0-13.7,7.1-21.3,15-21.3
			c5.9,0,10.6,3.3,10.6,3.3L259,89c0,0-7-2.9-13.1-2.9c-13.4,0-26.4,11.6-26.4,33.5c0,14.5,7,24.1,20.9,24.1
			C244.3,143.7,250.6,142.1,250.6,142.1z"/>
		<path class="st2" d="M89.3,96.7c-8,0-14,2.6-14,2.6l-1.7,10c0,0,5-2,12.6-2c4.3,0,7.5,0.5,7.5,4c0,2.1-0.4,2.9-0.4,2.9
			s-3.4-0.3-5-0.3c-10,0-20.6,4.3-20.6,17.2c0,10.2,6.9,12.5,11.2,12.5c8.2,0,11.7-5.3,11.9-5.3l-0.4,4.4h10.2l4.6-32
			C105.3,97.1,93.4,96.7,89.3,96.7z M91.8,122.7c0.2,2-1.2,11.1-8.2,11.1c-3.6,0-4.5-2.8-4.5-4.4c0-3.2,1.7-7,10.2-7
			C91.3,122.4,91.5,122.7,91.8,122.7z"/>
		<path class="st2" d="M116.1,143.3c2.6,0,17.5,0.7,17.5-14.8c0-14.4-13.8-11.6-13.8-17.4c0-2.9,2.3-3.8,6.4-3.8
			c1.6,0,7.9,0.5,7.9,0.5l1.5-10.3c0,0-4.1-0.9-10.7-0.9c-8.6,0-17.3,3.4-17.3,15.2c0,13.3,14.5,12,14.5,17.6c0,3.7-4.1,4-7.2,4
			c-5.4,0-10.3-1.9-10.3-1.8l-1.5,10.2C103.4,142,106.4,143.3,116.1,143.3z"/>
		<path class="st2" d="M346.6,87.4l-2.5,15.6c0,0-4.4-6-11.2-6c-10.6,0-19.5,12.8-19.5,27.6c0,9.5,4.7,18.8,14.4,18.8
			c6.9,0,10.8-4.9,10.8-4.9l-0.5,4.1h11.3l8.9-55.3L346.6,87.4z M341.2,117.8c0,6.1-3,14.3-9.3,14.3c-4.2,0-6.1-3.5-6.1-9
			c0-9,4-15,9.1-15C339.1,108.1,341.2,111,341.2,117.8z"/>
		<path class="st2" d="M26.6,142.7l7.1-41.7l1,41.7h8L57.5,101l-6.6,41.7h11.9L72,87.4H53.6l-11.4,33.9l-0.6-33.9H24.7l-9.3,55.3
			H26.6L26.6,142.7z"/>
		<path class="st2" d="M205.2,142.8c3.4-19.2,4-34.9,12.1-32c1.4-7.4,2.8-10.3,4.3-13.5c0,0-0.7-0.2-2.2-0.2c-5.2,0-9,7.1-9,7.1
			l1-6.5h-10.8l-7.2,45H205.2z"/>
		<path class="st2" d="M277.3,96.7c-8,0-14,2.6-14,2.6l-1.7,10c0,0,5-2,12.6-2c4.3,0,7.5,0.5,7.5,4c0,2.1-0.4,2.9-0.4,2.9
			s-3.4-0.3-5-0.3c-10,0-20.6,4.3-20.6,17.2c0,10.2,6.9,12.5,11.2,12.5c8.2,0,11.7-5.3,11.9-5.3l-0.4,4.4h10.2l4.6-32
			C293.2,97.1,281.4,96.7,277.3,96.7z M279.8,122.7c0.2,2-1.2,11.1-8.2,11.1c-3.6,0-4.5-2.8-4.5-4.4c0-3.2,1.7-7,10.2-7
			C279.3,122.4,279.5,122.7,279.8,122.7z"/>
		<path class="st2" d="M302.6,142.8c3.4-19.2,4-34.9,12.1-32c1.4-7.4,2.8-10.3,4.3-13.5c0,0-0.7-0.2-2.2-0.2c-5.2,0-9,7.1-9,7.1
			l1-6.5h-10.8l-7.2,45L302.6,142.8L302.6,142.8L302.6,142.8z"/>
	</g>
</g>
</svg>
