<?xml version="1.0" encoding="utf-8"?>
<!-- Generator: Adobe Illustrator 21.1.0, SVG Export Plug-In . SVG Version: 6.00 Build 0)  -->
<svg version="1.1" id="Capa_1" xmlns="http://www.w3.org/2000/svg" xmlns:xlink="http://www.w3.org/1999/xlink" x="0px" y="0px"
	 viewBox="0 0 410 116.7" style="enable-background:new 0 0 410 116.7;" xml:space="preserve">
<style type="text/css">
	.st0{fill:#B3BFC5;}
	.st1{fill:#46717B;}
</style>
<g>
	<g>
		<path class="st0" d="M315.8,22.4c-9.9,0-17.7,2.6-23.6,3.8l-1.8,15c3-1.4,12.4-4,20.2-4.3c7.8-0.2,12.4,1.4,10.8,8.1
			c-23.2,0-38.8,4.8-42,19.7c-4.6,25.7,23.6,25,34.9,13.8l-1.4,6.2h20.6l8.9-40.9C346.1,26.5,330.3,22.2,315.8,22.4z M317.2,64.3
			c-1.1,5.5-5.5,7.9-10.8,8.1c-4.6,0.2-8.7-3.8-5.7-8.6c2.3-4,8.7-5,12.6-5c1.6,0,3.4,0,5.1,0C317.9,60.7,317.6,62.4,317.2,64.3z"/>
		<polygon class="st0" points="360.1,6.2 343,84.7 364,84.7 381.2,6.2 		"/>
		<path class="st0" d="M263.7,6.5h-38.4l-17,78.3h22.3l5.8-25.9h15.9c15.6,0,28.5-9.5,32-25.7C288.1,14.8,274.8,6.5,263.7,6.5z
			 M263.1,33.1c-1.4,5.9-7.4,10.7-13.1,10.7h-10.3l4.6-21.4h11C261,22.4,264.4,27.2,263.1,33.1z"/>
	</g>
	<g>
		<path class="st1" d="M114.8,22.4c-9.7,0-17.4,2.6-23.1,3.8l-1.8,15c2.7-1.4,12-4,19.7-4.3c7.7-0.2,12.2,1.4,10.9,8.1
			C97.6,45,82.2,49.8,79,64.8c-4.5,25.7,23.3,25,34.2,13.8l-1.4,6.2h20.6l8.8-40.9C144.9,26.5,129.1,22.2,114.8,22.4z M116.4,64.3
			c-1.1,5.5-5.7,7.9-10.9,8.1c-4.5,0.2-8.4-3.8-5.4-8.6c2.3-4,8.6-5,12.2-5c1.8,0,3.4,0,5.2,0C117,60.7,116.6,62.4,116.4,64.3z"/>
		<polygon class="st1" points="150.3,23.5 170.9,23.5 174.2,60 194.4,23.5 215.7,23.5 166.7,110.8 143.6,110.8 158.7,85.1 		"/>
		<path class="st1" d="M63.5,6.5H25L8,84.7h22.6l5.5-25.9h16.1c15.4,0,28.3-9.5,31.8-25.7C87.9,14.8,74.8,6.5,63.5,6.5z M62.8,33.1
			c-1.4,5.9-7.1,10.7-12.9,10.7H39.3l4.8-21.4h11.1C60.7,22.4,64.4,27.2,62.8,33.1z"/>
		<path class="st0" d="M385.8,16.4V7.1h-3.5V5.9h8.3v1.2h-3.5v9.3H385.8z"/>
		<path class="st0" d="M392,16.4V5.9h2.1l2.5,7.4c0.2,0.7,0.4,1.2,0.5,1.5c0.1-0.4,0.3-0.9,0.6-1.7l2.5-7.3h1.9v10.5h-1.3V7.6
			l-3.1,8.8h-1.2l-3-8.9v8.9H392L392,16.4z"/>
	</g>
</g>
</svg>
