<?xml version="1.0" encoding="utf-8"?>
<!-- Generator: Adobe Illustrator 21.1.0, SVG Export Plug-In . SVG Version: 6.00 Build 0)  -->
<svg version="1.1" id="Capa_1" xmlns="http://www.w3.org/2000/svg" xmlns:xlink="http://www.w3.org/1999/xlink" x="0px" y="0px"
	 viewBox="0 0 370 118.7" style="enable-background:new 0 0 370 118.7;" xml:space="preserve">
<style type="text/css">
	.st0{fill:#46717B;}
	.st1{fill:#B3BFC5;}
</style>
<g>
	<g>
		<polygon class="st0" points="134.1,112.9 152.2,5.8 181.5,5.8 163.4,112.9 		"/>
		<path class="st0" d="M267.9,8.6c-5.8-2.2-14.9-4.5-26.3-4.5c-29,0-49.5,14.5-49.6,35.3c-0.2,15.4,14.6,24,25.7,29.1
			c11.4,5.2,15.3,8.6,15.2,13.3c-0.1,7.2-9.1,10.5-17.6,10.5c-11.7,0-18-1.6-27.6-5.6l-3.8-1.7l-4.1,24c6.9,3,19.5,5.6,32.7,5.7
			c30.9,0,50.9-14.4,51.1-36.6c0.1-12.2-7.7-21.4-24.7-29.1c-10.3-4.9-16.6-8.3-16.5-13.3c0-4.4,5.3-9.2,16.8-9.2
			c9.6-0.1,16.6,1.9,22,4.1l2.6,1.2L267.9,8.6L267.9,8.6z"/>
		<path class="st0" d="M318,5.8c-7,0-12.1,2.1-15.2,9.1l-43.5,98h31.1l6-16.4h37.1l3.5,16.4h27.6L340.4,5.8L318,5.8L318,5.8L318,5.8
			z M304.6,75c2.4-6.2,11.7-29.9,11.7-29.9c-0.2,0.3,2.4-6.2,3.9-10.2l2,9.2c0,0,5.6,25.6,6.8,30.9L304.6,75L304.6,75z"/>
		<path class="st0" d="M80.5,79.2l-2.6-14.7c-5.4-17.1-22-35.6-40.6-44.9l25.9,93.3h31.1L141,5.8h-31.1L80.5,79.2z"/>
	</g>
	<g>
		<path class="st1" d="M5.4,5.8v1.7c36.8,8.9,62.4,31.3,72.5,57L67.3,14.9C65.5,8.2,60.1,6,53.8,5.8L5.4,5.8L5.4,5.8z"/>
	</g>
</g>
</svg>
