<?xml version="1.0" encoding="utf-8"?>
<!-- Generator: Adobe Illustrator 24.1.3, SVG Export Plug-In . SVG Version: 6.00 Build 0)  -->
<svg version="1.1" id="Camada_1" xmlns="http://www.w3.org/2000/svg" xmlns:xlink="http://www.w3.org/1999/xlink" x="0px" y="0px"
	 viewBox="0 0 424.9 362.1" style="enable-background:new 0 0 424.9 362.1;" xml:space="preserve">
<style type="text/css">
	.st0{fill:#1E93B6;}
</style>
<g>
	<g>
		<path class="st0" d="M8.1,109.9c1.7-1.3,1.2-3.4,1.4-5.1c3.8-28.7,16-53,38.2-71.7c15.3-12.9,33-20.6,52.8-23.4
			c27.3-3.7,53.5-0.4,77.6,14c13.2,7.9,23.7,18.8,31.9,31.8c1.5,2.4,2.4,3.7,4.5,0.3c18-28.2,44.1-43.2,77.2-46.7
			c22.1-2.3,43.5,0.3,63.7,10.1c26.4,12.8,44.6,33.3,53.9,61c15.3,45.4,6.7,86.9-22.2,124.6c-17.4,22.7-38.9,41.1-61.2,58.6
			c-7.3,5.7-16.9,4.3-22.4-2.7s-4.3-16.6,3.2-22.6c14.2-11.4,28.2-23.1,40.9-36.2c14.2-14.8,26.9-30.9,32.6-50.8
			c9.9-34.2,4.5-65.4-21.4-91.1c-14.5-14.3-33-19.7-53.2-19.6c-14,0.1-27.5,2.5-39.9,9.4c-17.9,9.9-28.1,25.7-34.1,44.7
			c-1.5,4.8-2.6,9.8-3.3,14.8c-1.2,9.3-7.4,15.2-15.9,15.2c-8.6,0-14.8-5.9-16.1-15.1c-2.4-16.6-8.2-31.8-19.2-44.8
			c-11.1-13.1-25.6-20.4-42.4-23c-19.7-3.1-38.8-1.4-56.3,8.9c-19.8,11.5-31.1,29.3-36,51.2c-6.8,30.1,0.8,57,18.9,81.4
			c15.4,20.9,35,37.4,55.1,53.5c22.5,17.9,46.1,34.3,68.3,52.4c8.8,7.1,17.3,14.5,25.3,22.6c1.9,1.9,2.9,1.8,4.7,0
			c8.5-8.6,17.8-16.4,27.2-24.1c6.4-5.2,14.6-5.3,20.5-0.4c5.8,4.7,7.6,12.7,4.3,19.5c-1.1,2.2-2.6,4-4.5,5.5
			c-13.6,11.1-26.6,22.9-38.1,36.2c-6.3,7.2-16.9,7.5-22.9,0.4c-22.2-25.9-49.9-45.3-76.8-65.7c-22.9-17.3-45.9-34.5-66.2-55
			c-18.1-18.2-33.6-38.3-42.6-62.8c-2.7-7.4-4.7-14.9-5.9-22.7c-0.3-1.9-0.1-3.9-1.6-5.5C8.1,128,8.1,118.9,8.1,109.9z"/>
	</g>
</g>
</svg>
