<?xml version="1.0" encoding="utf-8"?>
<!-- Generator: Adobe Illustrator 25.2.0, SVG Export Plug-In . SVG Version: 6.00 Build 0)  -->
<svg version="1.1" id="Camada_1" xmlns="http://www.w3.org/2000/svg" xmlns:xlink="http://www.w3.org/1999/xlink" x="0px" y="0px"
	 viewBox="0 0 29.46 27.3" style="enable-background:new 0 0 29.46 27.3;" xml:space="preserve">
<style type="text/css">
	.st0{fill:#FFFFFF;}
</style>
<g>
	<g>
		<path class="st0" d="M20.76,6.33c-0.74,0-1.33,0.6-1.33,1.33c0,0.74,0.6,1.33,1.33,1.33c0.74,0,1.33-0.6,1.33-1.33
			C22.09,6.93,21.49,6.33,20.76,6.33z"/>
		<path class="st0" d="M14.82,8.05c-3.09,0-5.6,2.51-5.6,5.6c0,3.09,2.51,5.6,5.6,5.6c3.09,0,5.6-2.51,5.6-5.6
			C20.43,10.56,17.92,8.05,14.82,8.05z M14.82,17.24c-1.98,0-3.59-1.61-3.59-3.59s1.61-3.59,3.59-3.59c1.98,0,3.59,1.61,3.59,3.59
			S16.8,17.24,14.82,17.24z"/>
		<path class="st0" d="M19.27,25.03h-9.09c-3.77,0-6.84-3.07-6.84-6.84V9.11c0-3.77,3.07-6.84,6.84-6.84h9.09
			c3.77,0,6.84,3.07,6.84,6.84v9.09C26.11,21.96,23.04,25.03,19.27,25.03z M10.19,4.41c-2.59,0-4.69,2.11-4.69,4.69v9.09
			c0,2.59,2.11,4.69,4.69,4.69h9.09c2.59,0,4.7-2.11,4.7-4.69V9.11c0-2.59-2.11-4.69-4.7-4.69H10.19z"/>
	</g>
</g>
</svg>
