<svg width="102" height="102" viewBox="0 0 102 102" fill="none" xmlns="http://www.w3.org/2000/svg">
<path fill-rule="evenodd" clip-rule="evenodd" d="M4.25 12.0615C4.25 9.98977 5.073 8.00289 6.53794 6.53795C8.00288 5.07301 9.98976 4.25001 12.0615 4.25001H89.93C90.9567 4.24833 91.9736 4.44918 92.9226 4.84104C93.8716 5.23291 94.7339 5.8081 95.4603 6.53369C96.1867 7.25928 96.7628 8.12101 97.1557 9.06955C97.5486 10.0181 97.7506 11.0348 97.75 12.0615V89.93C97.7511 90.9569 97.5497 91.9739 97.1574 92.9229C96.7651 93.8719 96.1895 94.7343 95.4636 95.4606C94.7376 96.1869 93.8756 96.763 92.9268 97.1558C91.9781 97.5487 90.9611 97.7506 89.9342 97.75H12.0615C11.0353 97.75 10.0192 97.5478 9.07119 97.155C8.12318 96.7622 7.26185 96.1864 6.53643 95.4606C5.81101 94.7348 5.23571 93.8731 4.8434 92.9249C4.45108 91.9767 4.24944 90.9604 4.25 89.9343V12.0615ZM41.259 39.899H53.9198V46.257C55.7473 42.602 60.4222 39.3125 67.4475 39.3125C80.9157 39.3125 84.1075 46.5928 84.1075 59.9505V84.694H70.4778V62.9935C70.4778 55.386 68.6502 51.0935 64.0092 51.0935C57.5705 51.0935 54.893 55.7218 54.893 62.9935V84.694H41.259V39.899ZM17.884 84.1118H31.518V39.3125H17.884V84.1075V84.1118ZM33.4688 24.701C33.4945 25.8684 33.2867 27.0291 32.8578 28.1151C32.4288 29.2011 31.7872 30.1905 30.9707 31.0251C30.1542 31.8598 29.1792 32.523 28.1029 32.9758C27.0267 33.4286 25.8708 33.6618 24.7031 33.6618C23.5355 33.6618 22.3796 33.4286 21.3033 32.9758C20.227 32.523 19.252 31.8598 18.4355 31.0251C17.619 30.1905 16.9774 29.2011 16.5485 28.1151C16.1195 27.0291 15.9118 25.8684 15.9375 24.701C15.988 22.4096 16.9336 20.2291 18.572 18.6264C20.2104 17.0237 22.4112 16.1263 24.7031 16.1263C26.9951 16.1263 29.1959 17.0237 30.8342 18.6264C32.4726 20.2291 33.4183 22.4096 33.4688 24.701V24.701Z" fill="#FF4086"/>
</svg>
