<?xml version="1.0" encoding="utf-8"?>
<!-- Generator: Adobe Illustrator 25.2.0, SVG Export Plug-In . SVG Version: 6.00 Build 0)  -->
<svg version="1.1" id="Camada_1" xmlns="http://www.w3.org/2000/svg" xmlns:xlink="http://www.w3.org/1999/xlink" x="0px" y="0px"
	 viewBox="0 0 29.46 27.3" style="enable-background:new 0 0 29.46 27.3;" xml:space="preserve">
<style type="text/css">
	.st0{fill:#FFFFFF;}
</style>
<g>
	<rect x="4.33" y="10.04" class="st0" width="4.46" height="14.35"/>
	<path class="st0" d="M6.56,8.08c-1.43,0-2.59-1.16-2.59-2.59c0-1.43,1.16-2.59,2.59-2.59c1.43,0,2.58,1.16,2.58,2.59
		C9.14,6.92,7.98,8.08,6.56,8.08z"/>
	<path class="st0" d="M25.49,24.39h-4.46v-6.98c0-1.66-0.03-3.81-2.32-3.81c-2.32,0-2.68,1.81-2.68,3.68v7.1h-4.46V10.04h4.28V12
		h0.06c0.6-1.13,2.05-2.32,4.22-2.32c4.52,0,5.35,2.97,5.35,6.84L25.49,24.39z"/>
</g>
</svg>
