<svg id="Camada_1" data-name="Camada 1" xmlns="http://www.w3.org/2000/svg" viewBox="0 0 139.02 31.56"><defs><style>.cls-1{fill:#333;}</style></defs><path class="cls-1" d="M45.59,5.31H41.91a4.41,4.41,0,0,0-3.43,1.37,5.21,5.21,0,0,0-1.24,3.6v11a5.16,5.16,0,0,0,1.24,3.66,4.48,4.48,0,0,0,3.43,1.32h3.68A4.38,4.38,0,0,0,49,24.93a5.2,5.2,0,0,0,1.22-3.66V19.82a1.39,1.39,0,0,0-.26-.75.92.92,0,0,0-.83-.39h-.36a1,1,0,0,0-1.14,1.14v1.4c0,1.59-.68,2.39-2,2.39H41.91c-1.35,0-2-.8-2-2.39V10.28c0-1.55.68-2.33,2-2.33h3.68c1.34,0,2,.78,2,2.33v1.4a1.48,1.48,0,0,0,.26.86,1,1,0,0,0,.88.39h.36a.88.88,0,0,0,.88-.44,2,2,0,0,0,.21-.81v-1.4A5.25,5.25,0,0,0,49,6.68,4.31,4.31,0,0,0,45.59,5.31Z"/><path class="cls-1" d="M61.54,6.19a1.18,1.18,0,0,0-1.2-.88h-.67a.87.87,0,0,0-.8.36,5.51,5.51,0,0,0-.34.57l-6,18.56a1.12,1.12,0,0,0,.1.93.94.94,0,0,0,.93.52h.37a1.1,1.1,0,0,0,.72-.26,1.23,1.23,0,0,0,.42-.62l1.55-4.51h6.85l1.45,4.41a3.3,3.3,0,0,0,.36.62.89.89,0,0,0,.78.36h.46a1,1,0,0,0,.94-.52,1.16,1.16,0,0,0,.1-.93Zm-4,11.87c.13-.45.31-1,.51-1.66s.43-1.35.65-2.07.45-1.47.68-2.23.42-1.45.59-2.08l2.54,8Z"/><path class="cls-1" d="M77.75,5.31H74.38A4.4,4.4,0,0,0,71,6.68a5.17,5.17,0,0,0-1.25,3.6v1.77a3.56,3.56,0,0,0,.75,2.35,5.85,5.85,0,0,0,1.85,1.48,10,10,0,0,0,2.33.88c.83.21,1.59.38,2.28.52q2.85.73,2.85,2.49v1.45c0,1.59-.67,2.39-2,2.39H74.38c-1.35,0-2-.8-2-2.39V20.08a1.44,1.44,0,0,0-.26-.8.93.93,0,0,0-.83-.39H70.8a1,1,0,0,0-.8.34,1.27,1.27,0,0,0-.29.85v1.19A5.12,5.12,0,0,0,71,24.93a4.47,4.47,0,0,0,3.42,1.32h3.37a4.38,4.38,0,0,0,3.39-1.32,5.16,5.16,0,0,0,1.22-3.66v-1.6a4.06,4.06,0,0,0-.75-2.54,5.42,5.42,0,0,0-1.84-1.56,11.11,11.11,0,0,0-2.28-.85c-.76-.19-1.54-.38-2.33-.55a4.34,4.34,0,0,1-2.23-1,1.82,1.82,0,0,1-.57-1.2V10.28c0-1.55.67-2.33,2-2.33h3.37c1.35,0,2,.78,2,2.33v.83c0,.83.38,1.25,1.14,1.25h.36a.9.9,0,0,0,.83-.42,1.47,1.47,0,0,0,.26-.83v-.83a5.2,5.2,0,0,0-1.22-3.6A4.31,4.31,0,0,0,77.75,5.31Z"/><path class="cls-1" d="M86.86,5.31h-.42a.86.86,0,0,0-.8.38,1.51,1.51,0,0,0-.23.81V25.06a1.57,1.57,0,0,0,.23.78.84.84,0,0,0,.8.41h.42c.72,0,1.09-.4,1.09-1.19V6.5C88,5.7,87.58,5.31,86.86,5.31Z"/><path class="cls-1" d="M103.43,5.31H103a.89.89,0,0,0-.89.41,1.88,1.88,0,0,0-.2.78V20L94,5.88a1.61,1.61,0,0,0-.29-.34.86.86,0,0,0-.65-.23H92.7a1.09,1.09,0,0,0-.91.36,1.3,1.3,0,0,0-.28.83V25.11a1.11,1.11,0,0,0,1.19,1.14h.36a1,1,0,0,0,.86-.39,1.27,1.27,0,0,0,.28-.75V11.48L102,25.58a1.16,1.16,0,0,0,1.09.67h.31a.92.92,0,0,0,.83-.39,1.39,1.39,0,0,0,.26-.75V6.5a1.76,1.76,0,0,0-.21-.78A.88.88,0,0,0,103.43,5.31Z"/><path class="cls-1" d="M119.9,5.31h-.36a1,1,0,0,0-.88.36,1.34,1.34,0,0,0-.26.83V18.06H111V6.5a1.57,1.57,0,0,0-.23-.78.94.94,0,0,0-.91-.41h-.41a1,1,0,0,0-.86.36,1.3,1.3,0,0,0-.28.83V25.11a1.18,1.18,0,0,0,.28.8,1.05,1.05,0,0,0,.86.34h.41a1,1,0,0,0,.86-.39,1.27,1.27,0,0,0,.28-.75V20.69h7.37v4.41a1.12,1.12,0,0,0,.31.8,1,1,0,0,0,.83.34h.36a.92.92,0,0,0,.83-.39,1.39,1.39,0,0,0,.26-.75V6.5a1.76,1.76,0,0,0-.21-.78A.88.88,0,0,0,119.9,5.31Z"/><path class="cls-1" d="M139,24.8,133,6.19a1.18,1.18,0,0,0-1.19-.88h-.68a.87.87,0,0,0-.8.36,5.51,5.51,0,0,0-.34.57l-6,18.56a1.12,1.12,0,0,0,.1.93,1,1,0,0,0,.93.52h.37a1.1,1.1,0,0,0,.72-.26,1.23,1.23,0,0,0,.42-.62L128,20.86h6.85l1.45,4.41a3.3,3.3,0,0,0,.36.62.89.89,0,0,0,.78.36h.47a1,1,0,0,0,.93-.52A1.12,1.12,0,0,0,139,24.8Zm-10-6.74c.13-.45.31-1,.52-1.66s.42-1.35.64-2.07.45-1.47.68-2.23.42-1.45.59-2.08l2.54,8Z"/><path class="cls-1" d="M8.62,10.63.32,27.13a3.07,3.07,0,0,0,2.81,4.43l3.7-.08a2.28,2.28,0,0,0,2-1.2L14,20.62l-.56-1Z"/><path class="cls-1" d="M21.23,30.28a2.26,2.26,0,0,0,2,1.2l3.7.08H27a3.07,3.07,0,0,0,2.75-4.43L17,1.53A2.74,2.74,0,0,0,14.55,0h-5A2.77,2.77,0,0,0,7.15,4.08L9.61,8.67l1.63,3,3.78,7h0Z"/></svg>