<?xml version="1.0" encoding="utf-8"?>
<!-- Generator: Adobe Illustrator 24.1.3, SVG Export Plug-In . SVG Version: 6.00 Build 0)  -->
<svg version="1.1" id="Camada_1" xmlns="http://www.w3.org/2000/svg" xmlns:xlink="http://www.w3.org/1999/xlink" x="0px" y="0px"
	 viewBox="0 0 136.7 42.5" style="enable-background:new 0 0 136.7 42.5;" xml:space="preserve">
<style type="text/css">
	.st0{fill:#FFFFFF;}
</style>
<g>
	<g>
		<path class="st0" d="M29.3,34.3c1.1-1.2,2-2.5,2.7-4.2c0.6-1.6,1-3.5,1.1-5.5c0.1-2.4,0.1-4.7,0-7.1c0-0.7-0.1-1.4-0.2-2
			c-2.2,0.1-4.3,1.1-5.7,2.9l-0.9,1.1l-0.9-1.1c-1.5-1.8-3.8-2.9-6.1-2.9c-1.4,0-2.6,0.3-3.8,1c-2.5,1.4-4.1,4.1-4.1,7
			c0,0.8,0.1,1.7,0.4,2.4l0,0.1c0.8,3.7,5.8,8.3,10.1,11.6c1.2-0.2,2.2-0.4,3.2-0.8C26.7,36.4,28.2,35.5,29.3,34.3z"/>
		<path class="st0" d="M9.4,26.7c-0.3-1-0.5-2.1-0.5-3.1c0-3.7,2-7.2,5.3-9c1.5-0.8,3.2-1.3,5-1.3c2.6,0,5.1,1,7,2.8
			c1.7-1.6,3.8-2.5,6.1-2.7c-0.1-0.4-0.2-0.8-0.4-1.2c-0.6-1.6-1.5-3-2.7-4.2c-1.2-1.2-2.6-2-4.4-2.7c-1.7-0.6-3.8-0.9-6.2-0.9H6.9
			C6.6,4.4,6.3,4.5,6,4.8C5.8,5,5.6,5.3,5.6,5.7v31c0,0.4,0.1,0.7,0.4,0.9c0.3,0.3,0.6,0.4,0.9,0.4h11.3
			C14.4,34.7,10.3,30.5,9.4,26.7z"/>
	</g>
	<g>
		<g>
			<path class="st0" d="M49.6,4.9c1,0,1.9,0.1,2.6,0.4c0.7,0.3,1.4,0.6,1.9,1.1c0.5,0.5,0.9,1.1,1.1,1.8c0.3,0.7,0.4,1.5,0.5,2.3
				c0.1,1,0.1,2,0,3c-0.1,0.9-0.2,1.6-0.5,2.3c-0.3,0.7-0.6,1.3-1.1,1.8c-0.5,0.5-1.1,0.9-1.8,1.1c-0.7,0.3-1.6,0.4-2.6,0.4h-5.2
				c-0.2,0-0.3-0.1-0.4-0.2c-0.1-0.1-0.2-0.2-0.2-0.4V5.4c0-0.2,0.1-0.3,0.2-0.4c0.1-0.1,0.2-0.2,0.4-0.2H49.6z M53,10.5
				c0-0.4-0.1-0.8-0.3-1.2c-0.1-0.4-0.4-0.7-0.6-1C51.8,8,51.5,7.8,51,7.7c-0.4-0.2-0.9-0.2-1.5-0.2h-2.7v9.2h2.8
				c0.6,0,1-0.1,1.5-0.2c0.4-0.2,0.8-0.4,1-0.6s0.5-0.6,0.6-1c0.1-0.4,0.2-0.8,0.3-1.2C53,12.5,53,11.5,53,10.5z"/>
			<path class="st0" d="M62.4,8.3c0.8,0,1.4,0.1,2,0.3c0.6,0.2,1.1,0.6,1.6,1c0.4,0.4,0.8,0.9,1.1,1.4c0.3,0.5,0.4,1.1,0.5,1.8
				c0,0.1,0,0.3,0,0.5s0,0.4,0,0.6c0,0.2,0,0.4,0,0.6s0,0.3,0,0.5c-0.1,0.6-0.2,1.2-0.5,1.8c-0.3,0.5-0.6,1-1.1,1.4
				c-0.4,0.4-1,0.7-1.6,1c-0.6,0.2-1.3,0.3-2,0.3c-0.8,0-1.4-0.1-2-0.3c-0.6-0.2-1.1-0.5-1.6-1c-0.4-0.4-0.8-0.9-1.1-1.4
				c-0.3-0.5-0.4-1.1-0.5-1.8c0-0.1,0-0.3,0-0.5c0-0.2,0-0.4,0-0.6c0-0.2,0-0.4,0-0.6c0-0.2,0-0.3,0-0.5c0-0.6,0.2-1.2,0.5-1.8
				c0.3-0.5,0.6-1,1.1-1.4c0.4-0.4,1-0.7,1.6-1C61,8.5,61.7,8.3,62.4,8.3z M64.9,13c0-0.4-0.1-0.8-0.3-1.1c-0.2-0.3-0.4-0.5-0.6-0.7
				c-0.2-0.2-0.5-0.3-0.8-0.3c-0.3-0.1-0.6-0.1-0.8-0.1c-0.3,0-0.6,0-0.8,0.1c-0.3,0.1-0.5,0.2-0.8,0.3c-0.2,0.2-0.4,0.4-0.6,0.7
				C60.1,12.2,60,12.5,60,13c0,0.1,0,0.2,0,0.4c0,0.2,0,0.3,0,0.5s0,0.4,0,0.5c0,0.2,0,0.3,0,0.4c0,0.4,0.1,0.8,0.3,1.1
				s0.4,0.5,0.6,0.7c0.2,0.2,0.5,0.3,0.8,0.3c0.3,0.1,0.6,0.1,0.8,0.1c0.3,0,0.6,0,0.8-0.1c0.3-0.1,0.5-0.2,0.8-0.3
				c0.2-0.2,0.4-0.4,0.6-0.7c0.2-0.3,0.3-0.6,0.3-1.1c0-0.1,0-0.2,0-0.4c0-0.2,0-0.3,0-0.5c0-0.2,0-0.3,0-0.5
				C64.9,13.2,64.9,13.1,64.9,13z"/>
			<path class="st0" d="M69.4,11.2c0.1-0.3,0.2-0.6,0.4-0.9c0.2-0.3,0.5-0.6,0.8-0.9s0.8-0.5,1.3-0.7c0.5-0.2,1.1-0.3,1.8-0.3
				c0.7,0,1.3,0.1,1.9,0.3c0.6,0.2,1,0.5,1.4,0.8c0.4,0.4,0.7,0.8,0.9,1.3c0.2,0.5,0.3,1.2,0.3,1.9v6c0,0.1-0.1,0.3-0.2,0.4
				c-0.1,0.1-0.2,0.2-0.4,0.2h-1.6c-0.2,0-0.3-0.1-0.4-0.2c-0.1-0.1-0.2-0.2-0.2-0.4V18c-0.3,0.4-0.7,0.7-1.2,1
				c-0.5,0.3-1.2,0.4-2.1,0.4c-0.6,0-1.1-0.1-1.6-0.2c-0.5-0.2-0.9-0.4-1.2-0.7c-0.3-0.3-0.6-0.6-0.7-1c-0.2-0.4-0.3-0.8-0.3-1.3
				c0-0.9,0.3-1.7,1-2.2c0.7-0.5,1.6-0.9,2.7-1.1l3.3-0.6c0-0.6-0.2-1-0.6-1.2c-0.4-0.2-0.8-0.3-1.4-0.3c-0.3,0-0.6,0-0.8,0.1
				c-0.2,0.1-0.4,0.2-0.6,0.4c-0.1,0.1-0.2,0.2-0.3,0.2s-0.2,0.1-0.3,0.1h-1.9c-0.1,0-0.3,0-0.3-0.1C69.4,11.4,69.4,11.3,69.4,11.2z
				 M72.8,16.9c0.5,0,0.9-0.1,1.2-0.2c0.4-0.1,0.7-0.3,0.9-0.5c0.2-0.2,0.4-0.5,0.6-0.7c0.1-0.3,0.2-0.6,0.2-0.8v-0.2l-2.8,0.5
				c-0.6,0.1-1,0.2-1.2,0.4c-0.2,0.2-0.4,0.4-0.4,0.7c0,0.3,0.1,0.5,0.4,0.6C72.1,16.9,72.4,16.9,72.8,16.9z"/>
			<path class="st0" d="M82.8,13.2c0,0.2,0,0.4,0,0.7c0,0.3,0,0.5,0,0.7c0,0.4,0.1,0.8,0.3,1.1c0.2,0.3,0.3,0.5,0.6,0.7
				c0.2,0.2,0.5,0.3,0.7,0.4c0.3,0.1,0.6,0.1,0.8,0.1c0.3,0,0.6,0,0.9-0.1c0.2-0.1,0.4-0.1,0.6-0.2c0.2-0.1,0.3-0.2,0.4-0.3
				c0.1-0.1,0.2-0.3,0.3-0.4c0.1-0.1,0.2-0.2,0.3-0.4c0.1-0.1,0.2-0.2,0.4-0.2h1.6c0.2,0,0.3,0.1,0.4,0.2c0.1,0.1,0.2,0.2,0.2,0.4
				c0,0.3-0.1,0.6-0.3,1S89.4,17.7,89,18c-0.4,0.4-0.9,0.7-1.5,1c-0.6,0.3-1.3,0.4-2.2,0.4l-0.4,0.9c0.1-0.1,0.2-0.1,0.3-0.1
				c0.1,0,0.3-0.1,0.4-0.1c0.6,0,1,0.2,1.2,0.5c0.2,0.3,0.4,0.8,0.4,1.3s-0.2,0.9-0.5,1.3c-0.3,0.4-0.8,0.5-1.5,0.5
				c-0.2,0-0.5,0-0.7-0.1c-0.2-0.1-0.4-0.2-0.6-0.3c-0.2-0.1-0.3-0.2-0.3-0.3c-0.1-0.1,0-0.2,0.1-0.3l0.3-0.3
				c0.1-0.1,0.2-0.1,0.3-0.1c0.1,0,0.1,0,0.2,0.1c0.1,0,0.2,0.1,0.3,0.2c0.1,0.1,0.3,0.1,0.5,0.1c0.5,0,0.8-0.2,0.8-0.7
				c0-0.4-0.3-0.6-0.8-0.6c-0.1,0-0.2,0-0.3,0.1c-0.1,0-0.2,0.1-0.3,0.1c-0.1,0-0.2,0-0.3,0c-0.1,0-0.2,0-0.2-0.1L83.7,21
				c-0.1-0.1-0.1-0.2-0.2-0.3c0-0.1,0-0.2,0.1-0.4l0.5-1c-0.6-0.1-1.1-0.3-1.6-0.6c-0.5-0.3-0.9-0.6-1.2-1c-0.3-0.4-0.6-0.9-0.8-1.4
				c-0.2-0.5-0.3-1-0.4-1.6c0-0.2,0-0.5,0-0.8c0-0.3,0-0.6,0-0.8c0-0.6,0.2-1.2,0.5-1.8c0.3-0.6,0.6-1.1,1-1.5c0.4-0.4,1-0.8,1.6-1
				c0.6-0.3,1.3-0.4,2-0.4c0.9,0,1.6,0.1,2.3,0.4c0.6,0.3,1.1,0.6,1.5,1c0.4,0.4,0.7,0.8,0.9,1.2c0.2,0.4,0.3,0.8,0.3,1
				c0,0.2,0,0.3-0.2,0.4c-0.1,0.1-0.2,0.2-0.4,0.2h-1.6c-0.2,0-0.3-0.1-0.4-0.2c-0.1-0.1-0.2-0.2-0.3-0.4c-0.1-0.2-0.2-0.3-0.3-0.4
				s-0.3-0.2-0.4-0.3c-0.2-0.1-0.4-0.2-0.6-0.2c-0.2-0.1-0.5-0.1-0.9-0.1c-0.3,0-0.6,0-0.8,0.1c-0.3,0.1-0.5,0.2-0.7,0.4
				c-0.2,0.2-0.4,0.4-0.6,0.7C82.9,12.4,82.8,12.7,82.8,13.2z"/>
			<path class="st0" d="M91.9,11.2c0.1-0.3,0.2-0.6,0.4-0.9c0.2-0.3,0.5-0.6,0.8-0.9c0.4-0.3,0.8-0.5,1.3-0.7
				c0.5-0.2,1.1-0.3,1.8-0.3s1.3,0.1,1.9,0.3c0.6,0.2,1,0.5,1.4,0.8c0.4,0.4,0.7,0.8,0.9,1.3s0.3,1.2,0.3,1.9v6
				c0,0.1-0.1,0.3-0.2,0.4c-0.1,0.1-0.2,0.2-0.4,0.2h-1.6c-0.2,0-0.3-0.1-0.4-0.2c-0.1-0.1-0.2-0.2-0.2-0.4V18
				c-0.3,0.4-0.7,0.7-1.2,1c-0.5,0.3-1.2,0.4-2.1,0.4c-0.6,0-1.1-0.1-1.6-0.2c-0.5-0.2-0.9-0.4-1.2-0.7c-0.3-0.3-0.6-0.6-0.7-1
				c-0.2-0.4-0.3-0.8-0.3-1.3c0-0.9,0.3-1.7,1-2.2c0.7-0.5,1.6-0.9,2.7-1.1l3.3-0.6c0-0.6-0.2-1-0.6-1.2c-0.4-0.2-0.8-0.3-1.4-0.3
				c-0.3,0-0.6,0-0.8,0.1c-0.2,0.1-0.4,0.2-0.6,0.4c-0.1,0.1-0.2,0.2-0.3,0.2s-0.2,0.1-0.3,0.1h-1.9c-0.1,0-0.3,0-0.3-0.1
				C91.9,11.4,91.9,11.3,91.9,11.2z M97.6,7.1c-0.4,0-0.6,0-0.8-0.1c-0.2-0.1-0.4-0.2-0.5-0.2c-0.2-0.1-0.3-0.2-0.4-0.2
				c-0.1-0.1-0.3-0.1-0.5-0.1c-0.2,0-0.3,0-0.3,0.1c-0.1,0.1-0.1,0.1-0.2,0.2c-0.1,0.1-0.1,0.1-0.2,0.2C94.5,7,94.4,7,94.3,7h-1.1
				c-0.1,0-0.2,0-0.3-0.1c-0.1-0.1-0.1-0.2-0.1-0.3c0-0.3,0-0.5,0.1-0.8s0.2-0.5,0.4-0.8c0.2-0.2,0.4-0.4,0.7-0.6
				c0.3-0.2,0.6-0.2,0.9-0.2s0.6,0,0.8,0.1c0.2,0.1,0.4,0.2,0.6,0.2c0.2,0.1,0.3,0.2,0.4,0.2c0.1,0.1,0.3,0.1,0.5,0.1
				c0.2,0,0.3,0,0.3-0.1c0.1-0.1,0.1-0.1,0.2-0.2c0.1-0.1,0.1-0.1,0.2-0.2c0-0.1,0.1-0.1,0.3-0.1h1.1c0.1,0,0.2,0,0.3,0.1
				c0.1,0.1,0.1,0.2,0.1,0.3c0,0.3,0,0.5-0.1,0.8s-0.2,0.5-0.4,0.8c-0.2,0.2-0.4,0.4-0.7,0.6C98.2,7,97.9,7.1,97.6,7.1z M95.3,16.9
				c0.5,0,0.9-0.1,1.2-0.2s0.7-0.3,0.9-0.5c0.2-0.2,0.4-0.5,0.6-0.7c0.1-0.3,0.2-0.6,0.2-0.8v-0.2l-2.8,0.5c-0.6,0.1-1,0.2-1.2,0.4
				c-0.2,0.2-0.4,0.4-0.4,0.7c0,0.3,0.1,0.5,0.4,0.6C94.6,16.9,94.9,16.9,95.3,16.9z"/>
			<path class="st0" d="M107.8,8.3c0.8,0,1.4,0.1,2,0.3c0.6,0.2,1.1,0.6,1.6,1c0.4,0.4,0.8,0.9,1.1,1.4c0.3,0.5,0.4,1.1,0.5,1.8
				c0,0.1,0,0.3,0,0.5s0,0.4,0,0.6c0,0.2,0,0.4,0,0.6s0,0.3,0,0.5c-0.1,0.6-0.2,1.2-0.5,1.8c-0.3,0.5-0.6,1-1.1,1.4
				c-0.4,0.4-1,0.7-1.6,1c-0.6,0.2-1.3,0.3-2,0.3c-0.8,0-1.4-0.1-2-0.3c-0.6-0.2-1.1-0.5-1.6-1c-0.4-0.4-0.8-0.9-1.1-1.4
				c-0.3-0.5-0.4-1.1-0.5-1.8c0-0.1,0-0.3,0-0.5c0-0.2,0-0.4,0-0.6c0-0.2,0-0.4,0-0.6c0-0.2,0-0.3,0-0.5c0-0.6,0.2-1.2,0.5-1.8
				c0.3-0.5,0.6-1,1.1-1.4c0.4-0.4,1-0.7,1.6-1C106.4,8.5,107.1,8.3,107.8,8.3z M110.3,13c0-0.4-0.1-0.8-0.3-1.1
				c-0.2-0.3-0.4-0.5-0.6-0.7c-0.2-0.2-0.5-0.3-0.8-0.3c-0.3-0.1-0.6-0.1-0.8-0.1c-0.3,0-0.6,0-0.8,0.1c-0.3,0.1-0.5,0.2-0.8,0.3
				s-0.4,0.4-0.6,0.7c-0.2,0.3-0.3,0.6-0.3,1.1c0,0.1,0,0.2,0,0.4c0,0.2,0,0.3,0,0.5s0,0.4,0,0.5c0,0.2,0,0.3,0,0.4
				c0,0.4,0.1,0.8,0.3,1.1s0.4,0.5,0.6,0.7c0.2,0.2,0.5,0.3,0.8,0.3c0.3,0.1,0.6,0.1,0.8,0.1c0.3,0,0.6,0,0.8-0.1
				c0.3-0.1,0.5-0.2,0.8-0.3c0.2-0.2,0.4-0.4,0.6-0.7c0.2-0.3,0.3-0.6,0.3-1.1c0-0.1,0-0.2,0-0.4c0-0.2,0-0.3,0-0.5
				c0-0.2,0-0.3,0-0.5C110.3,13.2,110.3,13.1,110.3,13z"/>
		</g>
		<g>
			<path class="st0" d="M48.9,23.5c0.9,0,1.7,0.1,2.4,0.4c0.7,0.2,1.3,0.6,1.7,0.9c0.5,0.4,0.8,0.8,1.1,1.2c0.2,0.4,0.4,0.9,0.4,1.3
				c0,0.2,0,0.3-0.2,0.4c-0.1,0.1-0.3,0.2-0.4,0.2h-1.4c-0.2,0-0.4,0-0.5-0.1c-0.1-0.1-0.2-0.2-0.3-0.4c-0.2-0.3-0.5-0.6-0.9-0.9
				c-0.4-0.3-1-0.4-1.9-0.4c-0.4,0-0.7,0-1,0.1s-0.6,0.2-0.8,0.3c-0.2,0.1-0.4,0.3-0.6,0.5c-0.1,0.2-0.2,0.4-0.2,0.7
				c0,0.3,0.1,0.6,0.2,0.8c0.1,0.2,0.3,0.4,0.7,0.5s0.7,0.3,1.2,0.4c0.5,0.1,1.1,0.3,1.9,0.4c0.8,0.2,1.5,0.4,2.1,0.6
				c0.6,0.2,1.1,0.5,1.5,0.9c0.4,0.3,0.7,0.7,0.8,1.2c0.2,0.4,0.3,0.9,0.3,1.5c0,0.6-0.1,1.2-0.4,1.7c-0.3,0.5-0.7,1-1.2,1.4
				c-0.5,0.4-1.1,0.7-1.9,0.9c-0.7,0.2-1.6,0.3-2.5,0.3c-0.8,0-1.5-0.1-2.2-0.3c-0.7-0.2-1.3-0.5-1.9-0.8c-0.5-0.3-1-0.8-1.3-1.3
				c-0.3-0.5-0.5-1-0.6-1.6c0-0.2,0-0.3,0.2-0.4c0.1-0.1,0.3-0.2,0.4-0.2h1.4c0.2,0,0.4,0,0.5,0.1c0.1,0.1,0.2,0.2,0.3,0.4
				c0.1,0.2,0.2,0.4,0.3,0.5s0.3,0.3,0.6,0.5c0.2,0.1,0.5,0.2,0.9,0.3c0.3,0.1,0.8,0.1,1.3,0.1c0.4,0,0.8,0,1.2-0.1
				c0.4-0.1,0.7-0.2,1-0.3c0.3-0.1,0.5-0.3,0.7-0.5c0.2-0.2,0.3-0.5,0.3-0.8c0-0.3-0.1-0.5-0.3-0.7c-0.2-0.2-0.5-0.4-0.9-0.5
				c-0.4-0.1-0.9-0.3-1.4-0.4s-1.2-0.3-2-0.5c-0.7-0.2-1.3-0.4-1.8-0.6c-0.5-0.2-0.9-0.5-1.3-0.8c-0.3-0.3-0.6-0.7-0.7-1.2
				c-0.2-0.4-0.2-1-0.2-1.6c0-0.6,0.1-1.2,0.4-1.7c0.3-0.5,0.6-1,1.1-1.3c0.5-0.4,1-0.7,1.7-0.9C47.5,23.6,48.2,23.5,48.9,23.5z"/>
			<path class="st0" d="M61.3,27.2c0.8,0,1.4,0.1,2,0.3c0.6,0.2,1.1,0.6,1.6,1c0.4,0.4,0.8,0.9,1.1,1.4c0.3,0.5,0.4,1.1,0.5,1.8
				c0,0.1,0,0.3,0,0.5c0,0.2,0,0.4,0,0.6c0,0.2,0,0.4,0,0.6c0,0.2,0,0.3,0,0.5c-0.1,0.6-0.2,1.2-0.5,1.8c-0.3,0.5-0.6,1-1.1,1.4
				c-0.4,0.4-1,0.7-1.6,1c-0.6,0.2-1.3,0.3-2,0.3c-0.8,0-1.4-0.1-2-0.3c-0.6-0.2-1.1-0.5-1.6-1s-0.8-0.9-1.1-1.4
				c-0.3-0.5-0.4-1.1-0.5-1.8c0-0.1,0-0.3,0-0.5c0-0.2,0-0.4,0-0.6c0-0.2,0-0.4,0-0.6c0-0.2,0-0.3,0-0.5c0-0.6,0.2-1.2,0.5-1.8
				s0.6-1,1.1-1.4c0.4-0.4,1-0.7,1.6-1C59.9,27.3,60.5,27.2,61.3,27.2z M63.8,31.8c0-0.4-0.1-0.8-0.3-1.1c-0.2-0.3-0.4-0.5-0.6-0.7
				s-0.5-0.3-0.8-0.3c-0.3-0.1-0.6-0.1-0.8-0.1c-0.3,0-0.6,0-0.8,0.1c-0.3,0.1-0.5,0.2-0.8,0.3c-0.2,0.2-0.4,0.4-0.6,0.7
				c-0.2,0.3-0.3,0.6-0.3,1.1c0,0.1,0,0.2,0,0.4c0,0.2,0,0.3,0,0.5c0,0.2,0,0.4,0,0.5s0,0.3,0,0.4c0,0.4,0.1,0.8,0.3,1.1
				c0.2,0.3,0.4,0.5,0.6,0.7c0.2,0.2,0.5,0.3,0.8,0.3c0.3,0.1,0.6,0.1,0.8,0.1c0.3,0,0.6,0,0.8-0.1c0.3-0.1,0.5-0.2,0.8-0.3
				c0.2-0.2,0.4-0.4,0.6-0.7c0.2-0.3,0.3-0.6,0.3-1.1c0-0.1,0-0.2,0-0.4c0-0.2,0-0.3,0-0.5c0-0.2,0-0.3,0-0.5
				C63.8,32,63.8,31.9,63.8,31.8z"/>
			<path class="st0" d="M70.9,37.5c0,0.2-0.1,0.3-0.2,0.4c-0.1,0.1-0.2,0.2-0.4,0.2h-1.6c-0.2,0-0.3-0.1-0.4-0.2
				c-0.1-0.1-0.2-0.2-0.2-0.4V24.1c0-0.1,0.1-0.3,0.2-0.4c0.1-0.1,0.2-0.2,0.4-0.2h1.6c0.1,0,0.3,0.1,0.4,0.2
				c0.1,0.1,0.2,0.2,0.2,0.4V37.5z"/>
			<path class="st0" d="M73.2,28c0-0.1,0.1-0.3,0.2-0.4c0.1-0.1,0.2-0.2,0.4-0.2h1.6c0.2,0,0.3,0.1,0.4,0.2c0.1,0.1,0.2,0.2,0.2,0.4
				v5.2c0,0.8,0.2,1.5,0.5,2c0.3,0.5,0.9,0.7,1.7,0.7c0.7,0,1.3-0.2,1.7-0.7c0.4-0.5,0.6-1.1,0.6-2V28c0-0.1,0.1-0.3,0.2-0.4
				c0.1-0.1,0.2-0.2,0.4-0.2h1.6c0.2,0,0.3,0.1,0.4,0.2c0.1,0.1,0.2,0.2,0.2,0.4v9.5c0,0.2-0.1,0.3-0.2,0.4
				c-0.1,0.1-0.2,0.2-0.4,0.2h-1.6c-0.1,0-0.3-0.1-0.4-0.2c-0.1-0.1-0.2-0.2-0.2-0.4V37c-0.3,0.3-0.7,0.6-1.2,0.8
				c-0.5,0.3-1,0.4-1.7,0.4c-0.8,0-1.5-0.1-2.1-0.4s-1-0.6-1.3-1c-0.3-0.4-0.6-0.9-0.7-1.5s-0.2-1.2-0.2-1.8L73.2,28L73.2,28z"/>
			<path class="st0" d="M88.8,34.2c0,0.4,0.1,0.8,0.3,1c0.2,0.3,0.6,0.4,1.3,0.4h1.3c0.2,0,0.3,0.1,0.4,0.2s0.2,0.2,0.2,0.4v1.4
				c0,0.2-0.1,0.3-0.2,0.4c-0.1,0.1-0.2,0.2-0.4,0.2h-1.5c-1.3,0-2.3-0.3-3-0.9c-0.7-0.6-1-1.6-1-2.9v-4.4h-1.4
				c-0.2,0-0.3-0.1-0.4-0.2c-0.1-0.1-0.2-0.2-0.2-0.4V28c0-0.1,0.1-0.3,0.2-0.4c0.1-0.1,0.2-0.2,0.4-0.2h1.4v-3.3
				c0-0.1,0.1-0.3,0.2-0.4c0.1-0.1,0.2-0.2,0.4-0.2h1.6c0.2,0,0.3,0.1,0.4,0.2c0.1,0.1,0.2,0.2,0.2,0.4v3.3h2.6
				c0.1,0,0.3,0.1,0.4,0.2C92,27.7,92,27.8,92,28v1.4c0,0.1-0.1,0.3-0.2,0.4c-0.1,0.1-0.2,0.2-0.4,0.2h-2.6L88.8,34.2L88.8,34.2z"/>
			<path class="st0" d="M96,23.5c0.2,0,0.3,0.1,0.4,0.2c0.1,0.1,0.2,0.2,0.2,0.4v1.6c0,0.1-0.1,0.3-0.2,0.4
				c-0.1,0.1-0.2,0.2-0.4,0.2h-1.8c-0.2,0-0.3-0.1-0.4-0.2c-0.1-0.1-0.2-0.2-0.2-0.4v-1.6c0-0.1,0.1-0.3,0.2-0.4
				c0.1-0.1,0.2-0.2,0.4-0.2H96z M96.4,37.5c0,0.2-0.1,0.3-0.2,0.4c-0.1,0.1-0.2,0.2-0.4,0.2h-1.6c-0.2,0-0.3-0.1-0.4-0.2
				c-0.1-0.1-0.2-0.2-0.2-0.4V28c0-0.1,0.1-0.3,0.2-0.4c0.1-0.1,0.2-0.2,0.4-0.2h1.6c0.2,0,0.3,0.1,0.4,0.2c0.1,0.1,0.2,0.2,0.2,0.4
				V37.5z"/>
			<path class="st0" d="M103.4,27.2c0.8,0,1.4,0.1,2,0.3c0.6,0.2,1.1,0.6,1.6,1c0.4,0.4,0.8,0.9,1.1,1.4c0.3,0.5,0.4,1.1,0.5,1.8
				c0,0.1,0,0.3,0,0.5c0,0.2,0,0.4,0,0.6c0,0.2,0,0.4,0,0.6c0,0.2,0,0.3,0,0.5c-0.1,0.6-0.2,1.2-0.5,1.8c-0.3,0.5-0.6,1-1.1,1.4
				c-0.4,0.4-1,0.7-1.6,1c-0.6,0.2-1.3,0.3-2,0.3s-1.4-0.1-2-0.3c-0.6-0.2-1.1-0.5-1.6-1c-0.4-0.4-0.8-0.9-1.1-1.4
				c-0.3-0.5-0.4-1.1-0.5-1.8c0-0.1,0-0.3,0-0.5c0-0.2,0-0.4,0-0.6c0-0.2,0-0.4,0-0.6c0-0.2,0-0.3,0-0.5c0-0.6,0.2-1.2,0.5-1.8
				c0.3-0.5,0.6-1,1.1-1.4c0.4-0.4,1-0.7,1.6-1C102,27.3,102.7,27.2,103.4,27.2z M105.9,31.8c0-0.4-0.1-0.8-0.3-1.1
				c-0.2-0.3-0.4-0.5-0.6-0.7c-0.2-0.2-0.5-0.3-0.8-0.3c-0.3-0.1-0.6-0.1-0.8-0.1c-0.3,0-0.6,0-0.8,0.1c-0.3,0.1-0.5,0.2-0.8,0.3
				c-0.2,0.2-0.4,0.4-0.6,0.7c-0.2,0.3-0.3,0.6-0.3,1.1c0,0.1,0,0.2,0,0.4c0,0.2,0,0.3,0,0.5c0,0.2,0,0.4,0,0.5c0,0.2,0,0.3,0,0.4
				c0,0.4,0.1,0.8,0.3,1.1c0.2,0.3,0.4,0.5,0.6,0.7c0.2,0.2,0.5,0.3,0.8,0.3c0.3,0.1,0.6,0.1,0.8,0.1c0.3,0,0.6,0,0.8-0.1
				c0.3-0.1,0.5-0.2,0.8-0.3c0.2-0.2,0.4-0.4,0.6-0.7c0.2-0.3,0.3-0.6,0.3-1.1c0-0.1,0-0.2,0-0.4c0-0.2,0-0.3,0-0.5
				c0-0.2,0-0.3,0-0.5C105.9,32,105.9,31.9,105.9,31.8z"/>
			<path class="st0" d="M120.4,37.5c0,0.2-0.1,0.3-0.2,0.4c-0.1,0.1-0.2,0.2-0.4,0.2h-1.6c-0.2,0-0.3-0.1-0.4-0.2
				c-0.1-0.1-0.2-0.2-0.2-0.4v-5.2c0-0.8-0.2-1.5-0.6-2c-0.4-0.5-1-0.7-1.8-0.7c-0.7,0-1.3,0.2-1.7,0.7s-0.6,1.1-0.6,2v5.2
				c0,0.2-0.1,0.3-0.2,0.4s-0.2,0.2-0.4,0.2H111c-0.1,0-0.3-0.1-0.4-0.2c-0.1-0.1-0.2-0.2-0.2-0.4V28c0-0.1,0.1-0.3,0.2-0.4
				c0.1-0.1,0.2-0.2,0.4-0.2h1.6c0.2,0,0.3,0.1,0.4,0.2c0.1,0.1,0.2,0.2,0.2,0.4v0.5c0.4-0.4,0.8-0.6,1.2-0.9c0.5-0.2,1-0.3,1.7-0.3
				c0.8,0,1.5,0.1,2.1,0.4c0.6,0.3,1,0.6,1.4,1c0.3,0.4,0.6,0.9,0.7,1.5c0.1,0.6,0.2,1.2,0.2,1.8L120.4,37.5L120.4,37.5z"/>
			<path class="st0" d="M128.4,35c0-0.2,0-0.3-0.1-0.4c-0.1-0.1-0.3-0.2-0.5-0.3c-0.2-0.1-0.6-0.2-1-0.2c-0.4-0.1-0.9-0.2-1.5-0.3
				c-0.6-0.1-1.1-0.3-1.5-0.5c-0.4-0.2-0.7-0.4-1-0.7c-0.2-0.3-0.4-0.6-0.5-0.9s-0.1-0.7-0.1-1.1s0.1-0.8,0.3-1.2
				c0.2-0.4,0.5-0.7,0.8-1.1c0.4-0.3,0.8-0.6,1.3-0.7c0.5-0.2,1.1-0.3,1.8-0.3c0.7,0,1.3,0.1,1.8,0.2c0.5,0.2,1,0.3,1.3,0.6
				c0.4,0.2,0.7,0.5,0.9,0.8c0.2,0.3,0.3,0.6,0.3,1c0,0.2,0,0.3-0.2,0.4c-0.1,0.1-0.2,0.2-0.4,0.2h-1.6c-0.2,0-0.4,0-0.5-0.1
				c-0.1-0.1-0.2-0.2-0.3-0.3c-0.1-0.1-0.3-0.2-0.5-0.3c-0.2-0.1-0.5-0.1-0.9-0.1c-0.4,0-0.8,0.1-1.1,0.2c-0.3,0.1-0.5,0.3-0.5,0.7
				c0,0.1,0,0.3,0.1,0.4s0.2,0.2,0.4,0.3c0.2,0.1,0.5,0.2,0.9,0.3c0.4,0.1,0.9,0.2,1.5,0.3c1.2,0.3,2.1,0.7,2.6,1.2
				c0.5,0.6,0.7,1.2,0.7,2.1c0,0.4-0.1,0.8-0.3,1.2c-0.2,0.4-0.5,0.7-0.9,1c-0.4,0.3-0.9,0.6-1.4,0.7c-0.6,0.2-1.2,0.3-1.9,0.3
				c-0.7,0-1.4-0.1-1.9-0.3c-0.6-0.2-1-0.4-1.4-0.7c-0.4-0.3-0.7-0.6-0.9-0.9c-0.2-0.3-0.3-0.7-0.3-1c0-0.2,0-0.3,0.2-0.4
				c0.1-0.1,0.3-0.2,0.4-0.2h1.6c0.2,0,0.4,0,0.5,0.1s0.2,0.2,0.3,0.3c0.1,0.1,0.3,0.2,0.5,0.3c0.2,0.1,0.6,0.1,1,0.1
				c0.2,0,0.4,0,0.6,0c0.2,0,0.4-0.1,0.6-0.1c0.2-0.1,0.3-0.1,0.5-0.2C128.4,35.3,128.4,35.2,128.4,35z"/>
		</g>
	</g>
</g>
</svg>
