<svg id="Camada_1" data-name="Camada 1" xmlns="http://www.w3.org/2000/svg" xmlns:xlink="http://www.w3.org/1999/xlink" viewBox="0 0 101.83 64.3"><defs><style>.cls-1{fill:#333;}.cls-2{fill:url(#Gradiente_sem_nome_47);}.cls-3{fill:url(#Gradiente_sem_nome_49);}</style><linearGradient id="Gradiente_sem_nome_47" x1="38.3" y1="3.18" x2="69.76" y2="34.63" gradientUnits="userSpaceOnUse"><stop offset="0.21" stop-color="#8e24aa"/><stop offset="0.22" stop-color="#9026aa"/><stop offset="0.38" stop-color="#b84db3"/><stop offset="0.55" stop-color="#d76cb9"/><stop offset="0.71" stop-color="#ed82be"/><stop offset="0.86" stop-color="#fa8fc1"/><stop offset="1" stop-color="#ff94c2"/></linearGradient><linearGradient id="Gradiente_sem_nome_49" x1="30.52" y1="35.84" x2="49.33" y2="17.03" gradientUnits="userSpaceOnUse"><stop offset="0" stop-color="#81d4fa"/><stop offset="0.29" stop-color="#7fd2f8"/><stop offset="0.46" stop-color="#76caf3"/><stop offset="0.59" stop-color="#69bde9"/><stop offset="0.71" stop-color="#55abdb"/><stop offset="0.82" stop-color="#3b93c9"/><stop offset="0.92" stop-color="#1c76b3"/><stop offset="0.99" stop-color="#005b9f"/></linearGradient></defs><path class="cls-1" d="M8.35,43.35H4.67a4.39,4.39,0,0,0-3.42,1.37A5.18,5.18,0,0,0,0,48.33v11A5.12,5.12,0,0,0,1.25,63,4.46,4.46,0,0,0,4.67,64.3H8.35A4.41,4.41,0,0,0,11.75,63,5.2,5.2,0,0,0,13,59.32V57.87a1.39,1.39,0,0,0-.26-.75.93.93,0,0,0-.83-.39h-.37a1,1,0,0,0-1.14,1.14v1.4c0,1.59-.67,2.39-2,2.39H4.67c-1.35,0-2-.8-2-2.39V48.33c0-1.56.67-2.34,2-2.34H8.35c1.35,0,2,.78,2,2.34v1.4a1.52,1.52,0,0,0,.26.85,1,1,0,0,0,.88.39h.37a.88.88,0,0,0,.88-.44,1.87,1.87,0,0,0,.21-.8v-1.4a5.26,5.26,0,0,0-1.22-3.61A4.34,4.34,0,0,0,8.35,43.35Z"/><path class="cls-1" d="M24.31,44.23a1.18,1.18,0,0,0-1.19-.88h-.68a.87.87,0,0,0-.8.36,5.51,5.51,0,0,0-.34.57l-6,18.57a1.16,1.16,0,0,0,.11.93.94.94,0,0,0,.93.52h.37a1.12,1.12,0,0,0,.72-.26,1.23,1.23,0,0,0,.42-.62l1.55-4.51h6.85l1.45,4.4a3.05,3.05,0,0,0,.36.63.92.92,0,0,0,.78.36h.47a.94.94,0,0,0,.93-.52,1.16,1.16,0,0,0,.11-.93Zm-4,11.88c.13-.45.31-1,.51-1.66s.43-1.35.65-2.08.45-1.47.68-2.23.42-1.45.59-2.07l2.54,8Z"/><path class="cls-1" d="M40.53,43.35H37.16a4.41,4.41,0,0,0-3.43,1.37,5.17,5.17,0,0,0-1.24,3.61v1.76a3.59,3.59,0,0,0,.75,2.36,6.07,6.07,0,0,0,1.84,1.48,10.76,10.76,0,0,0,2.34.88c.83.21,1.59.38,2.28.52q2.85.72,2.85,2.49v1.45c0,1.59-.67,2.39-2,2.39H37.16c-1.35,0-2-.8-2-2.39V58.13a1.39,1.39,0,0,0-.26-.81.94.94,0,0,0-.83-.38h-.46a1,1,0,0,0-.81.33,1.29,1.29,0,0,0-.28.86v1.19A5.12,5.12,0,0,0,33.73,63a4.48,4.48,0,0,0,3.43,1.32h3.37A4.38,4.38,0,0,0,43.92,63a5.16,5.16,0,0,0,1.22-3.66V57.71a4.1,4.1,0,0,0-.75-2.54,5.51,5.51,0,0,0-1.84-1.55,11.16,11.16,0,0,0-2.28-.86q-1.14-.28-2.34-.54a4.38,4.38,0,0,1-2.23-1A1.8,1.8,0,0,1,35.13,50V48.33c0-1.56.68-2.34,2-2.34h3.37c1.35,0,2,.78,2,2.34v.83c0,.83.38,1.24,1.14,1.24h.36a.91.91,0,0,0,.83-.41,1.52,1.52,0,0,0,.26-.83v-.83a5.21,5.21,0,0,0-1.22-3.61A4.31,4.31,0,0,0,40.53,43.35Z"/><path class="cls-1" d="M49.64,43.35h-.41a.86.86,0,0,0-.81.39,1.54,1.54,0,0,0-.23.8V63.11a1.68,1.68,0,0,0,.23.78.86.86,0,0,0,.81.41h.41c.73,0,1.09-.4,1.09-1.19V44.54C50.73,43.74,50.37,43.35,49.64,43.35Z"/><path class="cls-1" d="M66.22,43.35h-.41a.89.89,0,0,0-.88.41,1.76,1.76,0,0,0-.21.78V58l-7.94-14.1a1.72,1.72,0,0,0-.28-.34.9.9,0,0,0-.65-.23h-.36a1.09,1.09,0,0,0-.91.36,1.31,1.31,0,0,0-.29.83V63.16a1.16,1.16,0,0,0,.31.8,1.13,1.13,0,0,0,.89.34h.36a1,1,0,0,0,.85-.39,1.29,1.29,0,0,0,.29-.75V49.52l7.83,14.11a1.17,1.17,0,0,0,1.09.67h.31a.92.92,0,0,0,.83-.39,1.39,1.39,0,0,0,.26-.75V44.54a1.76,1.76,0,0,0-.21-.78A.9.9,0,0,0,66.22,43.35Z"/><path class="cls-1" d="M82.7,43.35h-.36a1,1,0,0,0-.89.36,1.41,1.41,0,0,0-.26.83V56.11H73.83V44.54a1.68,1.68,0,0,0-.23-.78,1,1,0,0,0-.91-.41h-.42a1,1,0,0,0-.85.36,1.31,1.31,0,0,0-.29.83V63.16a1.19,1.19,0,0,0,.29.8,1,1,0,0,0,.85.34h.42a1,1,0,0,0,.85-.39,1.29,1.29,0,0,0,.29-.75V58.74h7.36v4.41a1.13,1.13,0,0,0,.32.8,1,1,0,0,0,.83.34h.36a.93.93,0,0,0,.83-.39,1.39,1.39,0,0,0,.26-.75V44.54a1.76,1.76,0,0,0-.21-.78A.9.9,0,0,0,82.7,43.35Z"/><path class="cls-1" d="M101.77,62.85l-6-18.62a1.17,1.17,0,0,0-1.19-.88h-.67a.9.9,0,0,0-.81.36,5.09,5.09,0,0,0-.33.57l-6,18.57a1.12,1.12,0,0,0,.1.93,1,1,0,0,0,.94.52h.36a1.12,1.12,0,0,0,.73-.26,1.28,1.28,0,0,0,.41-.62l1.56-4.51h6.84l1.45,4.4a2.74,2.74,0,0,0,.37.63.89.89,0,0,0,.78.36h.46a1,1,0,0,0,.94-.52A1.16,1.16,0,0,0,101.77,62.85Zm-10-6.74c.14-.45.31-1,.52-1.66s.42-1.35.65-2.08.45-1.47.67-2.23.42-1.45.6-2.07l2.54,8Z"/><path class="cls-2" d="M49.54,23l7.61,14.16a2.82,2.82,0,0,0,2.4,1.47l4.54.09a3.76,3.76,0,0,0,3.44-5.42L52,1.88A3.38,3.38,0,0,0,49,0H42.89a3.39,3.39,0,0,0-3,5l3,5.62"/><path class="cls-3" d="M42.92,10.62,31.54,33.25A3.75,3.75,0,0,0,35,38.67l4.53-.09a2.8,2.8,0,0,0,2.4-1.47L49.54,23Z"/></svg>