<?xml version="1.0" encoding="iso-8859-1"?>
<!-- Generator: Adobe Illustrator 22.1.0, SVG Export Plug-In . SVG Version: 6.00 Build 0)  -->
<svg version="1.1" id="Camada_1" xmlns="http://www.w3.org/2000/svg" xmlns:xlink="http://www.w3.org/1999/xlink" x="0px" y="0px"
	 viewBox="0 0 136.716 42.5" style="enable-background:new 0 0 136.716 42.5;" xml:space="preserve">
<g>
	<g>
		<path style="fill:#1E93B6;" d="M29.32,34.327c1.15-1.15,2.038-2.54,2.661-4.169c0.624-1.63,0.998-3.452,1.126-5.465
			c0.127-2.365,0.127-4.729,0-7.095c-0.043-0.688-0.119-1.352-0.22-1.996c-2.228,0.11-4.3,1.143-5.73,2.875l-0.896,1.084l-0.9-1.081
			c-1.527-1.837-3.768-2.891-6.147-2.891c-1.355,0-2.648,0.334-3.844,0.991c-2.541,1.406-4.121,4.084-4.121,6.985
			c0,0.828,0.134,1.653,0.395,2.447l0.031,0.112c0.817,3.677,5.819,8.296,10.129,11.621c1.172-0.153,2.249-0.403,3.228-0.76
			C26.74,36.364,28.17,35.478,29.32,34.327z"/>
		<path style="fill:#1E93B6;" d="M9.411,26.689c-0.328-1.014-0.494-2.064-0.494-3.122c0-3.749,2.04-7.207,5.325-9.027
			c1.526-0.839,3.244-1.281,4.97-1.281c2.636,0,5.139,1,7.042,2.778c1.674-1.572,3.821-2.534,6.119-2.736
			c-0.118-0.4-0.247-0.789-0.392-1.167c-0.623-1.63-1.518-3.02-2.685-4.171c-1.166-1.151-2.621-2.037-4.362-2.659
			c-1.742-0.624-3.795-0.936-6.159-0.936H6.934c-0.352,0-0.656,0.128-0.911,0.383C5.767,5.007,5.64,5.311,5.64,5.662v30.966
			c0,0.353,0.127,0.655,0.383,0.91c0.256,0.256,0.559,0.384,0.911,0.384h11.347C14.412,34.705,10.292,30.514,9.411,26.689z"/>
	</g>
	<g>
		<g>
			<path style="fill:#1E93B6;" d="M49.628,4.858c1.011,0,1.888,0.134,2.632,0.4c0.745,0.266,1.366,0.645,1.864,1.137
				c0.499,0.492,0.881,1.087,1.148,1.784c0.266,0.696,0.428,1.475,0.482,2.336c0.055,1.011,0.055,2.022,0,3.033
				c-0.054,0.86-0.215,1.639-0.482,2.336c-0.267,0.696-0.645,1.291-1.137,1.782c-0.492,0.492-1.104,0.871-1.834,1.137
				c-0.731,0.267-1.588,0.401-2.572,0.401h-5.164c-0.15,0-0.279-0.054-0.39-0.165c-0.109-0.109-0.163-0.239-0.163-0.389V5.411
				c0-0.151,0.054-0.28,0.163-0.389c0.11-0.109,0.24-0.164,0.39-0.164H49.628z M52.988,10.513c-0.028-0.437-0.113-0.843-0.256-1.219
				c-0.143-0.376-0.355-0.703-0.635-0.983c-0.281-0.28-0.632-0.499-1.055-0.655c-0.424-0.157-0.929-0.236-1.517-0.236H46.78v9.221
				h2.848c0.56,0,1.045-0.078,1.455-0.236c0.409-0.157,0.751-0.372,1.024-0.646c0.273-0.274,0.481-0.601,0.625-0.984
				c0.144-0.381,0.229-0.792,0.256-1.229C53.043,12.535,53.043,11.525,52.988,10.513z"/>
			<path style="fill:#1E93B6;" d="M62.435,8.341c0.75,0,1.43,0.116,2.038,0.348c0.608,0.232,1.134,0.553,1.578,0.964
				c0.443,0.41,0.798,0.887,1.065,1.434c0.267,0.547,0.42,1.134,0.461,1.763c0.013,0.123,0.02,0.28,0.02,0.472
				c0,0.192,0,0.382,0,0.572c0,0.192,0,0.38,0,0.564c0,0.184-0.007,0.338-0.02,0.461c-0.055,0.629-0.212,1.216-0.471,1.762
				c-0.26,0.547-0.612,1.022-1.055,1.425c-0.444,0.403-0.97,0.72-1.579,0.953c-0.607,0.232-1.287,0.348-2.038,0.348
				c-0.751,0-1.431-0.116-2.038-0.348c-0.608-0.232-1.134-0.55-1.579-0.953c-0.444-0.403-0.795-0.877-1.055-1.425
				c-0.26-0.545-0.418-1.133-0.472-1.762c-0.013-0.122-0.023-0.276-0.031-0.461c-0.007-0.185-0.011-0.372-0.011-0.564
				c0-0.19,0.003-0.381,0.011-0.572c0.007-0.192,0.017-0.349,0.031-0.472c0.041-0.628,0.195-1.215,0.461-1.763
				c0.267-0.547,0.622-1.024,1.066-1.434c0.444-0.41,0.97-0.731,1.579-0.964C61.003,8.456,61.683,8.341,62.435,8.341z
				 M64.914,12.951c-0.041-0.423-0.14-0.775-0.297-1.055c-0.158-0.28-0.353-0.502-0.584-0.667c-0.233-0.164-0.485-0.276-0.758-0.337
				c-0.274-0.063-0.554-0.093-0.84-0.093c-0.287,0-0.567,0.031-0.84,0.093c-0.273,0.061-0.526,0.173-0.758,0.337
				c-0.233,0.164-0.427,0.386-0.584,0.667c-0.157,0.28-0.256,0.632-0.297,1.055c-0.013,0.11-0.024,0.247-0.031,0.41
				c-0.007,0.164-0.011,0.335-0.011,0.512c0,0.177,0.003,0.352,0.011,0.523c0.006,0.171,0.016,0.304,0.031,0.4
				c0.04,0.423,0.14,0.775,0.297,1.055c0.157,0.28,0.351,0.502,0.584,0.666c0.232,0.163,0.485,0.276,0.758,0.338
				c0.273,0.061,0.554,0.092,0.84,0.092c0.287,0,0.566-0.031,0.84-0.092c0.273-0.061,0.525-0.175,0.758-0.338
				c0.232-0.164,0.427-0.386,0.584-0.666c0.157-0.279,0.256-0.632,0.297-1.055c0.014-0.096,0.02-0.228,0.02-0.4
				c0-0.17,0-0.345,0-0.523c0-0.177,0-0.348,0-0.512C64.934,13.198,64.927,13.062,64.914,12.951z"/>
			<path style="fill:#1E93B6;" d="M69.422,11.169c0.055-0.287,0.18-0.595,0.378-0.922c0.198-0.328,0.478-0.635,0.84-0.922
				c0.362-0.287,0.806-0.523,1.332-0.707c0.525-0.185,1.138-0.277,1.833-0.277c0.697,0,1.325,0.092,1.886,0.277
				c0.56,0.184,1.041,0.454,1.445,0.81c0.403,0.354,0.715,0.802,0.933,1.342c0.218,0.539,0.327,1.158,0.327,1.855v6.024
				c0,0.15-0.056,0.28-0.164,0.389c-0.109,0.109-0.239,0.165-0.389,0.165h-1.558c-0.15,0-0.279-0.055-0.39-0.165
				c-0.109-0.109-0.163-0.239-0.163-0.389v-0.677c-0.288,0.397-0.7,0.735-1.24,1.014c-0.54,0.28-1.226,0.42-2.059,0.42
				c-0.589,0-1.113-0.079-1.579-0.236c-0.465-0.157-0.854-0.379-1.168-0.666c-0.314-0.288-0.557-0.625-0.728-1.014
				c-0.17-0.39-0.256-0.816-0.256-1.281c0-0.942,0.334-1.68,1.004-2.213c0.67-0.532,1.563-0.895,2.683-1.085l3.34-0.574
				c0-0.56-0.185-0.956-0.553-1.189c-0.369-0.232-0.827-0.349-1.374-0.349c-0.341,0-0.608,0.048-0.799,0.144
				c-0.191,0.095-0.376,0.225-0.553,0.388c-0.123,0.11-0.236,0.184-0.338,0.225c-0.102,0.041-0.215,0.061-0.338,0.061h-1.905
				c-0.137,0-0.254-0.04-0.349-0.122C69.429,11.415,69.394,11.305,69.422,11.169z M72.843,16.947c0.465,0,0.877-0.065,1.24-0.195
				c0.362-0.13,0.666-0.305,0.911-0.523c0.247-0.219,0.43-0.464,0.553-0.737c0.123-0.274,0.185-0.554,0.185-0.84v-0.204l-2.787,0.49
				c-0.56,0.096-0.962,0.236-1.209,0.421c-0.246,0.185-0.369,0.434-0.369,0.748c0,0.287,0.147,0.499,0.441,0.635
				C72.102,16.879,72.448,16.947,72.843,16.947z"/>
			<path style="fill:#1E93B6;" d="M82.761,13.156c-0.028,0.205-0.041,0.445-0.041,0.718c0,0.273,0.013,0.512,0.041,0.717
				c0.041,0.423,0.136,0.786,0.287,1.086c0.15,0.3,0.338,0.542,0.563,0.728c0.225,0.184,0.475,0.321,0.749,0.409
				c0.273,0.09,0.554,0.133,0.84,0.133c0.341,0,0.627-0.028,0.86-0.082c0.233-0.055,0.43-0.134,0.594-0.236
				c0.163-0.103,0.304-0.219,0.42-0.348c0.116-0.13,0.229-0.276,0.338-0.441c0.082-0.123,0.178-0.245,0.287-0.369
				c0.11-0.123,0.239-0.184,0.39-0.184h1.557c0.151,0,0.283,0.054,0.4,0.163c0.116,0.11,0.167,0.24,0.154,0.39
				c-0.014,0.287-0.116,0.632-0.307,1.035c-0.191,0.403-0.482,0.789-0.871,1.158c-0.39,0.369-0.885,0.686-1.485,0.953
				c-0.602,0.266-1.333,0.407-2.193,0.42l-0.431,0.942c0.083-0.055,0.185-0.102,0.308-0.143c0.122-0.041,0.259-0.062,0.41-0.062
				c0.56,0,0.958,0.17,1.198,0.512c0.239,0.341,0.358,0.758,0.358,1.25c0,0.492-0.17,0.915-0.511,1.271
				c-0.341,0.354-0.848,0.532-1.516,0.532c-0.246,0-0.488-0.034-0.728-0.102c-0.238-0.068-0.44-0.154-0.604-0.256
				c-0.164-0.102-0.274-0.216-0.327-0.338c-0.055-0.122-0.028-0.239,0.082-0.348l0.287-0.267c0.109-0.096,0.197-0.144,0.265-0.144
				c0.069,0,0.144,0.024,0.225,0.071c0.082,0.048,0.185,0.099,0.308,0.154c0.123,0.054,0.287,0.082,0.492,0.082
				c0.519,0,0.778-0.219,0.778-0.656c0-0.41-0.26-0.614-0.778-0.614c-0.109,0-0.215,0.021-0.318,0.062
				c-0.102,0.04-0.198,0.076-0.287,0.103c-0.09,0.027-0.174,0.04-0.256,0.04c-0.082,0-0.164-0.04-0.246-0.122l-0.327-0.369
				c-0.082-0.11-0.133-0.201-0.154-0.276c-0.02-0.075,0.017-0.208,0.113-0.399l0.472-1.025c-0.602-0.109-1.141-0.307-1.619-0.594
				c-0.479-0.287-0.892-0.635-1.24-1.045c-0.349-0.41-0.626-0.868-0.831-1.372c-0.204-0.505-0.327-1.031-0.368-1.578
				c-0.028-0.247-0.041-0.519-0.041-0.821c0-0.3,0.013-0.58,0.041-0.84c0.041-0.628,0.191-1.229,0.451-1.803
				c0.26-0.574,0.608-1.076,1.044-1.505c0.437-0.431,0.96-0.772,1.568-1.025c0.608-0.252,1.288-0.379,2.038-0.379
				c0.875,0,1.626,0.13,2.255,0.39c0.628,0.26,1.143,0.577,1.548,0.953c0.403,0.376,0.7,0.768,0.891,1.178
				c0.191,0.41,0.293,0.758,0.307,1.044c0.013,0.151-0.038,0.281-0.154,0.39c-0.117,0.109-0.249,0.164-0.4,0.164h-1.557
				c-0.15,0-0.279-0.062-0.39-0.185c-0.109-0.122-0.205-0.246-0.287-0.369c-0.11-0.164-0.222-0.311-0.338-0.44
				c-0.116-0.129-0.256-0.246-0.42-0.349c-0.165-0.102-0.362-0.181-0.594-0.236c-0.233-0.054-0.519-0.082-0.86-0.082
				c-0.287,0-0.568,0.044-0.84,0.133c-0.274,0.09-0.524,0.225-0.749,0.41c-0.225,0.185-0.412,0.427-0.563,0.728
				C82.898,12.371,82.802,12.734,82.761,13.156z"/>
			<path style="fill:#1E93B6;" d="M91.92,11.169c0.056-0.287,0.181-0.595,0.379-0.922c0.198-0.328,0.479-0.635,0.84-0.922
				c0.362-0.287,0.806-0.523,1.332-0.707c0.526-0.185,1.137-0.277,1.834-0.277c0.697,0,1.325,0.092,1.886,0.277
				c0.559,0.184,1.041,0.454,1.445,0.81c0.403,0.354,0.714,0.802,0.932,1.342c0.218,0.54,0.327,1.158,0.327,1.855v6.024
				c0,0.15-0.055,0.28-0.163,0.389c-0.11,0.109-0.24,0.165-0.39,0.165h-1.557c-0.15,0-0.28-0.055-0.39-0.165
				c-0.109-0.109-0.164-0.239-0.164-0.389v-0.677c-0.287,0.397-0.699,0.735-1.24,1.014c-0.54,0.28-1.226,0.42-2.059,0.42
				c-0.588,0-1.114-0.079-1.578-0.236c-0.465-0.157-0.854-0.379-1.169-0.666c-0.314-0.288-0.557-0.625-0.728-1.014
				c-0.171-0.39-0.256-0.816-0.256-1.281c0-0.942,0.334-1.68,1.004-2.213c0.67-0.532,1.565-0.895,2.685-1.085l3.339-0.574
				c0-0.56-0.185-0.956-0.553-1.189c-0.369-0.233-0.826-0.349-1.373-0.349c-0.341,0-0.608,0.048-0.799,0.144
				c-0.192,0.095-0.376,0.225-0.554,0.388c-0.123,0.11-0.236,0.184-0.338,0.225c-0.102,0.041-0.216,0.061-0.338,0.061h-1.905
				c-0.136,0-0.253-0.04-0.349-0.122C91.927,11.415,91.893,11.305,91.92,11.169z M97.556,7.111c-0.355,0-0.636-0.038-0.841-0.113
				c-0.204-0.075-0.386-0.153-0.542-0.236c-0.158-0.083-0.301-0.161-0.431-0.235c-0.13-0.076-0.29-0.114-0.481-0.114
				c-0.164,0-0.28,0.031-0.35,0.092c-0.067,0.061-0.13,0.131-0.185,0.205c-0.054,0.075-0.105,0.143-0.154,0.204
				c-0.047,0.061-0.133,0.093-0.256,0.093h-1.147c-0.123,0-0.22-0.038-0.288-0.113c-0.067-0.075-0.101-0.168-0.101-0.277
				c0-0.259,0.047-0.529,0.143-0.809c0.096-0.28,0.236-0.535,0.421-0.768c0.184-0.232,0.409-0.424,0.676-0.574
				c0.266-0.15,0.57-0.225,0.911-0.225s0.618,0.039,0.831,0.113c0.211,0.075,0.396,0.154,0.553,0.236
				c0.157,0.082,0.301,0.161,0.43,0.235c0.13,0.076,0.291,0.114,0.482,0.114c0.164,0,0.28-0.031,0.349-0.092
				c0.068-0.062,0.129-0.13,0.185-0.205c0.055-0.075,0.105-0.143,0.154-0.204c0.047-0.062,0.133-0.093,0.256-0.093h1.147
				c0.123,0,0.219,0.039,0.287,0.113c0.068,0.076,0.102,0.168,0.102,0.276c0,0.26-0.048,0.53-0.144,0.81
				c-0.096,0.28-0.236,0.535-0.42,0.768c-0.185,0.233-0.409,0.424-0.676,0.574C98.201,7.037,97.897,7.111,97.556,7.111z
				 M95.342,16.947c0.465,0,0.877-0.065,1.24-0.195c0.363-0.13,0.666-0.305,0.912-0.523c0.246-0.219,0.43-0.464,0.553-0.737
				c0.123-0.274,0.185-0.554,0.185-0.84v-0.204l-2.786,0.49c-0.561,0.096-0.963,0.236-1.209,0.421
				c-0.247,0.185-0.37,0.434-0.37,0.748c0,0.287,0.147,0.499,0.441,0.635C94.602,16.879,94.947,16.947,95.342,16.947z"/>
			<path style="fill:#1E93B6;" d="M107.802,8.341c0.75,0,1.43,0.116,2.038,0.348c0.608,0.232,1.134,0.553,1.578,0.964
				c0.444,0.41,0.799,0.887,1.066,1.434c0.266,0.547,0.42,1.134,0.461,1.763c0.013,0.123,0.02,0.28,0.02,0.472
				c0,0.192,0,0.382,0,0.572c0,0.192,0,0.38,0,0.564c0,0.184-0.007,0.338-0.02,0.461c-0.055,0.629-0.212,1.216-0.472,1.762
				c-0.26,0.547-0.611,1.022-1.054,1.425c-0.444,0.403-0.97,0.72-1.578,0.953c-0.609,0.232-1.289,0.348-2.04,0.348
				c-0.75,0-1.431-0.116-2.038-0.348c-0.608-0.232-1.135-0.55-1.579-0.953c-0.443-0.403-0.796-0.877-1.055-1.425
				c-0.26-0.545-0.416-1.133-0.471-1.762c-0.014-0.122-0.024-0.276-0.031-0.461c-0.007-0.185-0.011-0.372-0.011-0.564
				c0-0.19,0.003-0.381,0.011-0.572c0.007-0.192,0.016-0.349,0.031-0.472c0.04-0.628,0.194-1.215,0.461-1.763
				c0.267-0.547,0.622-1.024,1.066-1.434c0.443-0.41,0.969-0.731,1.578-0.964C106.369,8.456,107.05,8.341,107.802,8.341z
				 M110.28,12.951c-0.041-0.423-0.14-0.775-0.297-1.055c-0.158-0.28-0.353-0.502-0.584-0.667c-0.233-0.164-0.485-0.276-0.759-0.337
				c-0.274-0.063-0.554-0.093-0.84-0.093c-0.287,0-0.567,0.031-0.84,0.093c-0.273,0.061-0.526,0.173-0.758,0.337
				c-0.232,0.164-0.427,0.386-0.584,0.667c-0.158,0.28-0.256,0.632-0.297,1.055c-0.014,0.11-0.024,0.247-0.03,0.41
				c-0.008,0.164-0.011,0.335-0.011,0.512c0,0.177,0.003,0.352,0.011,0.523c0.006,0.171,0.016,0.304,0.03,0.4
				c0.041,0.423,0.14,0.775,0.297,1.055c0.157,0.28,0.352,0.502,0.584,0.666c0.232,0.163,0.485,0.276,0.758,0.338
				c0.274,0.061,0.554,0.092,0.84,0.092c0.287,0,0.567-0.031,0.84-0.092c0.274-0.062,0.526-0.175,0.759-0.338
				c0.231-0.164,0.426-0.386,0.584-0.666c0.157-0.279,0.256-0.632,0.297-1.055c0.014-0.096,0.02-0.228,0.02-0.4
				c0-0.17,0-0.345,0-0.523c0-0.177,0-0.348,0-0.512C110.301,13.198,110.294,13.062,110.28,12.951z"/>
		</g>
		<g>
			<path style="fill:#1E93B6;" d="M48.931,23.504c0.915,0,1.721,0.122,2.418,0.369c0.697,0.246,1.278,0.553,1.742,0.922
				c0.464,0.369,0.816,0.775,1.056,1.219c0.239,0.443,0.372,0.864,0.399,1.26c0.013,0.165-0.038,0.298-0.153,0.4
				c-0.117,0.103-0.25,0.154-0.399,0.154h-1.434c-0.233,0-0.407-0.044-0.523-0.133c-0.116-0.089-0.222-0.208-0.317-0.359
				c-0.205-0.341-0.516-0.639-0.932-0.891c-0.418-0.252-1.035-0.379-1.855-0.379c-0.355,0-0.693,0.038-1.014,0.113
				c-0.321,0.075-0.601,0.185-0.84,0.328c-0.239,0.144-0.426,0.317-0.563,0.522c-0.136,0.205-0.205,0.438-0.205,0.697
				c0,0.314,0.065,0.571,0.195,0.769c0.129,0.198,0.348,0.369,0.655,0.512c0.307,0.143,0.713,0.276,1.218,0.399
				c0.506,0.124,1.134,0.267,1.886,0.431c0.82,0.177,1.527,0.385,2.122,0.624c0.594,0.24,1.078,0.527,1.454,0.86
				c0.376,0.335,0.655,0.721,0.84,1.158c0.184,0.437,0.276,0.936,0.276,1.496c0,0.614-0.136,1.185-0.41,1.71
				c-0.274,0.527-0.663,0.978-1.168,1.353c-0.505,0.376-1.126,0.672-1.865,0.891c-0.738,0.219-1.564,0.328-2.479,0.328
				c-0.766,0-1.496-0.092-2.193-0.276c-0.697-0.185-1.316-0.451-1.855-0.799c-0.54-0.349-0.974-0.769-1.302-1.261
				c-0.328-0.491-0.513-1.037-0.553-1.639c-0.014-0.164,0.038-0.297,0.153-0.4c0.116-0.102,0.25-0.153,0.4-0.153h1.434
				c0.233,0,0.41,0.04,0.532,0.123c0.123,0.082,0.226,0.205,0.308,0.369c0.095,0.178,0.211,0.355,0.348,0.533
				c0.137,0.178,0.321,0.336,0.553,0.472c0.232,0.136,0.523,0.249,0.871,0.338c0.35,0.089,0.783,0.133,1.301,0.133
				c0.411,0,0.806-0.031,1.189-0.092c0.383-0.062,0.717-0.164,1.004-0.307c0.288-0.144,0.519-0.322,0.697-0.534
				c0.178-0.211,0.266-0.474,0.266-0.789c0-0.301-0.096-0.546-0.287-0.737c-0.191-0.192-0.481-0.355-0.871-0.492
				c-0.39-0.136-0.871-0.266-1.445-0.389c-0.574-0.123-1.236-0.28-1.988-0.471c-0.683-0.164-1.28-0.359-1.793-0.584
				c-0.512-0.225-0.936-0.503-1.27-0.83c-0.336-0.327-0.584-0.713-0.748-1.158c-0.164-0.444-0.246-0.974-0.246-1.588
				c0-0.615,0.136-1.182,0.409-1.701c0.273-0.519,0.649-0.963,1.127-1.332c0.478-0.369,1.048-0.659,1.712-0.871
				C47.452,23.61,48.166,23.504,48.931,23.504z"/>
			<path style="fill:#1E93B6;" d="M61.288,27.192c0.751,0,1.431,0.117,2.038,0.349c0.608,0.233,1.134,0.554,1.578,0.963
				c0.444,0.41,0.8,0.888,1.065,1.434c0.267,0.546,0.42,1.135,0.462,1.763c0.013,0.123,0.02,0.281,0.02,0.471
				c0,0.192,0,0.383,0,0.574c0,0.192,0,0.379,0,0.564c0,0.185-0.007,0.338-0.02,0.461c-0.056,0.629-0.213,1.216-0.472,1.762
				c-0.259,0.547-0.611,1.022-1.055,1.425c-0.444,0.402-0.97,0.721-1.578,0.953c-0.608,0.233-1.288,0.348-2.04,0.348
				c-0.751,0-1.431-0.116-2.038-0.348c-0.608-0.231-1.134-0.55-1.578-0.953c-0.444-0.403-0.796-0.878-1.056-1.425
				c-0.26-0.545-0.416-1.133-0.47-1.762c-0.014-0.122-0.025-0.276-0.031-0.461c-0.007-0.185-0.011-0.372-0.011-0.564
				c0-0.191,0.003-0.381,0.011-0.574c0.006-0.191,0.016-0.348,0.031-0.471c0.041-0.628,0.195-1.216,0.461-1.763
				c0.266-0.547,0.621-1.024,1.066-1.434c0.444-0.409,0.969-0.73,1.578-0.963C59.856,27.309,60.535,27.192,61.288,27.192z
				 M63.767,31.803c-0.041-0.424-0.141-0.775-0.298-1.056c-0.157-0.28-0.352-0.502-0.584-0.666
				c-0.232-0.164-0.485-0.276-0.758-0.338c-0.274-0.061-0.552-0.092-0.84-0.092c-0.287,0-0.566,0.031-0.839,0.092
				c-0.274,0.062-0.527,0.174-0.758,0.338c-0.233,0.164-0.427,0.386-0.584,0.666c-0.158,0.28-0.256,0.632-0.298,1.056
				c-0.013,0.109-0.024,0.245-0.031,0.409c-0.007,0.164-0.01,0.335-0.01,0.512c0,0.178,0.003,0.353,0.01,0.523
				c0.007,0.17,0.017,0.304,0.031,0.399c0.041,0.424,0.14,0.775,0.298,1.056c0.157,0.279,0.352,0.502,0.584,0.666
				c0.232,0.163,0.484,0.277,0.758,0.338c0.273,0.062,0.553,0.092,0.839,0.092c0.288,0,0.566-0.032,0.84-0.092
				c0.274-0.061,0.527-0.175,0.758-0.338c0.233-0.164,0.427-0.386,0.584-0.666c0.157-0.281,0.256-0.632,0.298-1.056
				c0.013-0.095,0.02-0.228,0.02-0.399c0-0.17,0-0.345,0-0.523c0-0.177,0-0.348,0-0.512C63.787,32.049,63.78,31.912,63.767,31.803z"
				/>
			<path style="fill:#1E93B6;" d="M70.938,37.5c0,0.151-0.055,0.28-0.165,0.39c-0.109,0.11-0.238,0.164-0.388,0.164h-1.558
				c-0.151,0-0.279-0.054-0.389-0.164c-0.11-0.109-0.164-0.239-0.164-0.39V24.057c0-0.149,0.055-0.279,0.164-0.389
				c0.11-0.109,0.238-0.163,0.389-0.163h1.558c0.149,0,0.279,0.054,0.388,0.163c0.11,0.11,0.165,0.24,0.165,0.389V37.5z"/>
			<path style="fill:#1E93B6;" d="M73.151,27.95c0-0.15,0.055-0.279,0.164-0.39c0.109-0.108,0.239-0.163,0.39-0.163h1.557
				c0.15,0,0.279,0.055,0.39,0.163c0.109,0.11,0.164,0.24,0.164,0.39v5.206c0,0.819,0.174,1.476,0.522,1.967
				c0.35,0.492,0.919,0.738,1.713,0.738c0.723,0,1.276-0.246,1.659-0.738c0.382-0.491,0.573-1.147,0.573-1.967V27.95
				c0-0.15,0.056-0.279,0.164-0.39c0.11-0.108,0.239-0.163,0.39-0.163h1.557c0.15,0,0.28,0.055,0.39,0.163
				c0.109,0.11,0.163,0.24,0.163,0.39V37.5c0,0.151-0.055,0.28-0.163,0.39c-0.109,0.11-0.239,0.164-0.39,0.164h-1.557
				c-0.149,0-0.279-0.054-0.39-0.164c-0.109-0.109-0.164-0.239-0.164-0.39v-0.471c-0.314,0.314-0.703,0.598-1.167,0.849
				c-0.465,0.253-1.024,0.379-1.681,0.379c-0.833,0-1.523-0.13-2.069-0.389c-0.546-0.259-0.983-0.608-1.311-1.045
				c-0.328-0.437-0.561-0.946-0.697-1.527c-0.136-0.581-0.204-1.191-0.204-1.834V27.95z"/>
			<path style="fill:#1E93B6;" d="M88.847,34.201c0,0.424,0.112,0.762,0.337,1.014c0.225,0.253,0.646,0.379,1.261,0.379h1.25
				c0.15,0,0.28,0.055,0.389,0.164c0.109,0.109,0.164,0.239,0.164,0.389v1.352c0,0.15-0.055,0.28-0.164,0.39
				c-0.109,0.109-0.239,0.164-0.389,0.164h-1.516c-1.285,0-2.271-0.311-2.961-0.933c-0.69-0.621-1.035-1.574-1.035-2.858v-4.406
				H84.83c-0.15,0-0.28-0.054-0.389-0.164c-0.109-0.109-0.164-0.239-0.164-0.39V27.95c0-0.15,0.056-0.279,0.164-0.39
				c0.109-0.108,0.239-0.163,0.389-0.163h1.352v-3.34c0-0.149,0.054-0.279,0.164-0.389c0.11-0.109,0.239-0.163,0.389-0.163h1.557
				c0.15,0,0.28,0.054,0.39,0.163c0.109,0.11,0.164,0.24,0.164,0.389v3.34h2.643c0.149,0,0.279,0.055,0.389,0.163
				c0.109,0.11,0.164,0.24,0.164,0.39v1.352c0,0.15-0.056,0.28-0.164,0.39c-0.11,0.11-0.24,0.164-0.389,0.164h-2.643V34.201z"/>
			<path style="fill:#1E93B6;" d="M95.956,23.504c0.15,0,0.28,0.054,0.39,0.163c0.109,0.11,0.164,0.24,0.164,0.389v1.599
				c0,0.15-0.055,0.279-0.164,0.389c-0.109,0.109-0.239,0.164-0.39,0.164h-1.761c-0.151,0-0.281-0.055-0.39-0.164
				c-0.109-0.11-0.164-0.239-0.164-0.389v-1.599c0-0.149,0.055-0.279,0.164-0.389c0.109-0.109,0.238-0.163,0.39-0.163H95.956z
				 M96.408,37.5c0,0.151-0.055,0.28-0.165,0.39c-0.109,0.11-0.239,0.164-0.389,0.164h-1.557c-0.151,0-0.28-0.054-0.39-0.164
				c-0.109-0.109-0.164-0.239-0.164-0.39V27.95c0-0.15,0.055-0.279,0.164-0.39c0.11-0.108,0.239-0.163,0.39-0.163h1.557
				c0.15,0,0.28,0.055,0.389,0.163c0.11,0.11,0.165,0.24,0.165,0.39V37.5z"/>
			<path style="fill:#1E93B6;" d="M103.415,27.192c0.751,0,1.431,0.117,2.038,0.349c0.608,0.233,1.134,0.554,1.579,0.963
				c0.444,0.41,0.799,0.888,1.065,1.434c0.267,0.546,0.421,1.135,0.462,1.763c0.012,0.123,0.02,0.281,0.02,0.471
				c0,0.192,0,0.383,0,0.574c0,0.192,0,0.379,0,0.564c0,0.185-0.007,0.338-0.02,0.461c-0.056,0.629-0.213,1.216-0.472,1.762
				c-0.26,0.547-0.612,1.022-1.056,1.425c-0.444,0.402-0.97,0.721-1.578,0.953c-0.608,0.233-1.288,0.348-2.039,0.348
				c-0.751,0-1.431-0.116-2.038-0.348c-0.608-0.231-1.134-0.55-1.578-0.953c-0.445-0.403-0.796-0.878-1.056-1.425
				c-0.26-0.545-0.417-1.133-0.472-1.762c-0.013-0.122-0.023-0.276-0.03-0.461c-0.007-0.185-0.011-0.372-0.011-0.564
				c0-0.191,0.003-0.381,0.011-0.574c0.007-0.191,0.016-0.348,0.03-0.471c0.041-0.628,0.195-1.216,0.462-1.763
				c0.265-0.547,0.62-1.024,1.065-1.434c0.443-0.409,0.969-0.73,1.577-0.963C101.984,27.309,102.664,27.192,103.415,27.192z
				 M105.894,31.803c-0.04-0.424-0.14-0.775-0.297-1.056c-0.157-0.279-0.352-0.502-0.583-0.666
				c-0.233-0.164-0.485-0.276-0.759-0.338c-0.274-0.061-0.554-0.092-0.84-0.092c-0.287,0-0.567,0.031-0.84,0.092
				c-0.274,0.062-0.526,0.174-0.758,0.338c-0.233,0.164-0.427,0.386-0.584,0.666c-0.158,0.28-0.256,0.632-0.298,1.056
				c-0.013,0.109-0.024,0.245-0.031,0.409c-0.007,0.164-0.011,0.335-0.011,0.512c0,0.178,0.003,0.353,0.011,0.523
				c0.007,0.17,0.017,0.304,0.031,0.399c0.041,0.424,0.14,0.775,0.298,1.056c0.157,0.279,0.351,0.502,0.584,0.666
				c0.232,0.163,0.484,0.277,0.758,0.338c0.274,0.062,0.554,0.092,0.84,0.092c0.287,0,0.566-0.032,0.84-0.092
				c0.274-0.061,0.526-0.175,0.759-0.338c0.231-0.164,0.426-0.386,0.583-0.666c0.158-0.28,0.256-0.632,0.297-1.056
				c0.014-0.095,0.021-0.228,0.021-0.399c0-0.17,0-0.345,0-0.523c0-0.177,0-0.348,0-0.512
				C105.915,32.049,105.908,31.912,105.894,31.803z"/>
			<path style="fill:#1E93B6;" d="M120.402,37.5c0,0.151-0.056,0.28-0.164,0.39c-0.109,0.11-0.239,0.164-0.39,0.164h-1.556
				c-0.15,0-0.28-0.054-0.39-0.164c-0.11-0.109-0.165-0.239-0.165-0.39v-5.204c0-0.821-0.191-1.476-0.573-1.968
				c-0.382-0.492-0.97-0.738-1.762-0.738c-0.724,0-1.294,0.246-1.711,0.738c-0.417,0.492-0.625,1.147-0.625,1.968V37.5
				c0,0.151-0.056,0.28-0.165,0.39c-0.109,0.11-0.238,0.164-0.39,0.164h-1.557c-0.149,0-0.279-0.054-0.389-0.164
				c-0.11-0.109-0.163-0.239-0.163-0.39V27.95c0-0.15,0.054-0.279,0.163-0.39c0.11-0.108,0.24-0.163,0.389-0.163h1.557
				c0.151,0,0.281,0.055,0.39,0.163c0.109,0.11,0.165,0.24,0.165,0.39v0.472c0.354-0.354,0.771-0.648,1.249-0.881
				c0.479-0.232,1.045-0.349,1.702-0.349c0.833,0,1.529,0.131,2.09,0.389c0.559,0.259,1.01,0.609,1.352,1.045
				c0.34,0.437,0.584,0.947,0.728,1.527c0.143,0.581,0.214,1.192,0.214,1.834V37.5H120.402z"/>
			<path style="fill:#1E93B6;" d="M128.414,35c0-0.151-0.049-0.273-0.144-0.369c-0.096-0.096-0.264-0.185-0.503-0.267
				c-0.239-0.082-0.556-0.164-0.953-0.246c-0.396-0.082-0.902-0.191-1.517-0.327c-0.6-0.137-1.099-0.307-1.495-0.513
				c-0.397-0.205-0.715-0.443-0.953-0.717c-0.239-0.273-0.407-0.584-0.502-0.932c-0.095-0.348-0.144-0.727-0.144-1.137
				c0-0.41,0.096-0.813,0.287-1.21c0.191-0.396,0.468-0.747,0.83-1.055c0.362-0.307,0.802-0.556,1.321-0.747
				c0.519-0.192,1.112-0.288,1.784-0.288c0.668,0,1.267,0.076,1.793,0.225c0.525,0.151,0.973,0.349,1.342,0.595
				c0.369,0.245,0.657,0.529,0.861,0.849c0.204,0.322,0.321,0.645,0.349,0.973c0.012,0.151-0.038,0.28-0.154,0.389
				c-0.116,0.11-0.248,0.165-0.399,0.165h-1.578c-0.206,0-0.359-0.038-0.461-0.114c-0.103-0.075-0.216-0.16-0.338-0.255
				c-0.123-0.096-0.287-0.181-0.492-0.257c-0.204-0.075-0.512-0.113-0.921-0.113c-0.41,0-0.772,0.062-1.086,0.185
				c-0.315,0.123-0.472,0.342-0.472,0.657c0,0.149,0.038,0.276,0.113,0.379c0.075,0.103,0.22,0.195,0.431,0.277
				c0.212,0.082,0.505,0.167,0.881,0.255c0.376,0.09,0.863,0.196,1.465,0.318c1.215,0.26,2.073,0.666,2.572,1.218
				c0.497,0.554,0.747,1.24,0.747,2.06c0,0.41-0.102,0.81-0.307,1.198c-0.205,0.389-0.503,0.738-0.892,1.045
				c-0.389,0.307-0.867,0.553-1.434,0.738c-0.567,0.184-1.206,0.276-1.916,0.276c-0.725,0-1.363-0.086-1.917-0.256
				c-0.553-0.17-1.021-0.392-1.403-0.666c-0.383-0.273-0.676-0.581-0.882-0.922c-0.204-0.341-0.314-0.676-0.327-1.004
				c-0.014-0.15,0.038-0.28,0.153-0.39c0.118-0.109,0.25-0.164,0.4-0.164h1.579c0.204,0,0.358,0.047,0.461,0.143
				c0.103,0.096,0.219,0.205,0.349,0.328c0.13,0.122,0.31,0.232,0.543,0.327c0.232,0.096,0.58,0.144,1.044,0.144
				c0.205,0,0.417-0.013,0.635-0.041c0.219-0.027,0.421-0.072,0.604-0.133c0.185-0.061,0.338-0.144,0.461-0.247
				C128.353,35.276,128.414,35.15,128.414,35z"/>
		</g>
	</g>
</g>
<g>
</g>
<g>
</g>
<g>
</g>
<g>
</g>
<g>
</g>
<g>
</g>
<g>
</g>
<g>
</g>
<g>
</g>
<g>
</g>
<g>
</g>
<g>
</g>
<g>
</g>
<g>
</g>
<g>
</g>
</svg>
