<?xml version="1.0" encoding="utf-8"?>
<!-- Generator: Adobe Illustrator 25.2.0, SVG Export Plug-In . SVG Version: 6.00 Build 0)  -->
<svg version="1.1" id="Camada_1" xmlns="http://www.w3.org/2000/svg" xmlns:xlink="http://www.w3.org/1999/xlink" x="0px" y="0px"
	 viewBox="0 0 30 30" style="enable-background:new 0 0 30 30;" xml:space="preserve">
<g>
	<path d="M5.22,26.8L5.22,26.8c-0.94-1.5-0.46-3.48,1.07-4.38l11.43-6.7c0.74-0.44,0.73-1.52-0.03-1.93L6.42,7.63
		c-1.55-0.85-2.1-2.81-1.2-4.34l0,0c0.88-1.5,2.8-2,4.3-1.12l12.7,7.44c1.85,1,3.02,2.91,3.05,5c0.04,2.1-1.07,4.04-2.89,5.1
		L9.54,27.78C8.08,28.71,6.14,28.26,5.22,26.8z"/>
	<path d="M7.88,28.8c-0.27,0-0.55-0.03-0.82-0.09c-0.96-0.22-1.77-0.79-2.29-1.62l0,0c-0.53-0.85-0.7-1.85-0.46-2.83
		c0.24-0.97,0.84-1.79,1.71-2.3l11.43-6.7c0.26-0.15,0.29-0.41,0.29-0.51c0-0.1-0.03-0.35-0.3-0.5L6.16,8.1
		C5.28,7.62,4.65,6.82,4.39,5.85C4.12,4.89,4.25,3.88,4.75,3.02c1.02-1.75,3.28-2.34,5.02-1.31l12.7,7.44
		c2,1.08,3.28,3.17,3.32,5.45c0.04,2.28-1.17,4.42-3.15,5.57L9.83,28.23C9.23,28.6,8.56,28.8,7.88,28.8z M5.66,26.51
		c0.37,0.59,0.95,1,1.63,1.15c0.68,0.15,1.38,0.04,1.97-0.34l12.84-8.07c1.67-0.97,2.67-2.75,2.64-4.64
		c-0.03-1.9-1.09-3.64-2.78-4.54L9.24,2.62c-0.6-0.35-1.3-0.45-1.98-0.27c-0.67,0.18-1.24,0.6-1.59,1.21
		C5.31,4.17,5.22,4.89,5.41,5.57C5.6,6.26,6.05,6.82,6.67,7.16l11.26,6.15c0.53,0.29,0.84,0.82,0.85,1.42
		c0.01,0.6-0.29,1.14-0.81,1.44l-11.43,6.7c-0.61,0.36-1.04,0.94-1.21,1.63C5.17,25.2,5.29,25.91,5.66,26.51L5.66,26.51z"/>
</g>
</svg>
