<?xml version="1.0" encoding="utf-8"?>
<!-- Generator: Adobe Illustrator 25.2.0, SVG Export Plug-In . SVG Version: 6.00 Build 0)  -->
<svg version="1.1" id="Camada_1" xmlns="http://www.w3.org/2000/svg" xmlns:xlink="http://www.w3.org/1999/xlink" x="0px" y="0px"
	 viewBox="0 0 30 30" style="enable-background:new 0 0 30 30;" xml:space="preserve">
<g>
	<path d="M24.78,26.8L24.78,26.8c0.94-1.5,0.46-3.48-1.07-4.38l-11.43-6.7c-0.74-0.44-0.73-1.52,0.03-1.93l11.26-6.15
		c1.55-0.85,2.1-2.81,1.2-4.34l0,0c-0.88-1.5-2.8-2-4.3-1.12L7.79,9.6c-1.85,1-3.02,2.91-3.05,5c-0.04,2.1,1.07,4.04,2.89,5.1
		l12.84,8.07C21.92,28.71,23.86,28.26,24.78,26.8z"/>
	<path d="M20.17,28.23L7.35,20.17c-1.98-1.15-3.19-3.29-3.15-5.57c0.04-2.28,1.31-4.38,3.32-5.45l12.7-7.44
		c1.75-1.02,4-0.43,5.02,1.31c0.51,0.86,0.64,1.87,0.37,2.84c-0.27,0.96-0.9,1.76-1.78,2.24l-11.26,6.15c-0.27,0.15-0.3,0.4-0.3,0.5
		c0,0.1,0.02,0.35,0.29,0.51l11.43,6.7c0.86,0.51,1.47,1.32,1.71,2.3c0.24,0.97,0.08,1.98-0.46,2.83l0,0
		c-0.52,0.83-1.34,1.41-2.29,1.62c-0.27,0.06-0.55,0.09-0.82,0.09C21.44,28.8,20.77,28.6,20.17,28.23z M24.34,26.51
		c0.38-0.6,0.49-1.31,0.33-2.01c-0.17-0.69-0.6-1.27-1.21-1.63l-11.43-6.7c-0.52-0.3-0.82-0.84-0.81-1.44
		c0.01-0.6,0.33-1.13,0.85-1.42l11.26-6.15c0.62-0.34,1.07-0.91,1.26-1.59c0.19-0.69,0.1-1.4-0.26-2.02
		c-0.35-0.6-0.92-1.03-1.59-1.21c-0.67-0.18-1.38-0.08-1.98,0.27L8.04,10.07c-1.68,0.91-2.74,2.65-2.78,4.54
		c-0.03,1.9,0.97,3.67,2.64,4.64l12.84,8.07c0.59,0.37,1.29,0.49,1.97,0.34C23.39,27.51,23.96,27.1,24.34,26.51L24.34,26.51z"/>
</g>
</svg>
