<?xml version="1.0" encoding="utf-8"?>
<!-- Generator: Adobe Illustrator 25.2.0, SVG Export Plug-In . SVG Version: 6.00 Build 0)  -->
<svg version="1.1" id="Camada_1" xmlns="http://www.w3.org/2000/svg" xmlns:xlink="http://www.w3.org/1999/xlink" x="0px" y="0px"
	 viewBox="0 0 217 31.1" style="enable-background:new 0 0 217 31.1;" xml:space="preserve">
<style type="text/css">
	.st0{fill:#0093B8;}
	.st1{fill:#33595C;}
	.st2{fill:#424A60;}
	.st3{clip-path:url(#SVGID_2_);fill:none;stroke:#424A60;stroke-width:1.0345;stroke-linecap:round;stroke-miterlimit:10;}
	.st4{fill:#EBBA16;}
	.st5{fill:#38454F;}
	.st6{fill:#FFFFFF;}
	.st7{fill:none;stroke:#424A60;stroke-width:0.5;stroke-miterlimit:10;stroke-dasharray:1;}
	.st8{fill:#549156;}
</style>
<g>
	<g>
		<g>
			<path class="st0" d="M170.1,24.2c0.5-0.5,0.8-1,1.1-1.7s0.4-1.4,0.5-2.2c0.1-1,0.1-1.9,0-2.9c0-0.3-0.1-0.5-0.1-0.8
				c-0.9,0-1.7,0.5-2.3,1.2l-0.4,0.4l-0.4-0.4c-0.6-0.7-1.5-1.2-2.5-1.2c-0.5,0-1.1,0.1-1.5,0.4c-1,0.6-1.7,1.6-1.7,2.8
				c0,0.3,0.1,0.7,0.2,1l0,0c0.3,1.5,2.3,3.3,4.1,4.7c0.5-0.1,0.9-0.2,1.3-0.3C169.1,25,169.7,24.7,170.1,24.2z"/>
			<path class="st0" d="M162.1,21.1c-0.1-0.4-0.2-0.8-0.2-1.3c0-1.5,0.8-2.9,2.1-3.6c0.6-0.3,1.3-0.5,2-0.5c1.1,0,2.1,0.4,2.8,1.1
				c0.7-0.6,1.5-1,2.5-1.1c-0.1-0.2-0.1-0.3-0.2-0.5c-0.2-0.7-0.6-1.2-1.1-1.7s-1.1-0.8-1.8-1.1s-1.5-0.4-2.5-0.4h-4.8
				c-0.1,0-0.3,0.1-0.4,0.2s-0.2,0.2-0.2,0.4v12.5c0,0.1,0.1,0.3,0.2,0.4s0.2,0.2,0.4,0.2h4.6C164.1,24.4,162.5,22.7,162.1,21.1z"/>
		</g>
		<g>
			<g>
				<path class="st0" d="M178.3,12.3c0.4,0,0.8,0.1,1.1,0.2c0.3,0.1,0.5,0.3,0.7,0.5c0.2,0.2,0.4,0.4,0.5,0.7
					c0.1,0.3,0.2,0.6,0.2,0.9c0,0.4,0,0.8,0,1.2c0,0.3-0.1,0.7-0.2,0.9c-0.1,0.3-0.3,0.5-0.5,0.7c-0.2,0.2-0.4,0.4-0.7,0.5
					s-0.6,0.2-1,0.2h-2.1c-0.1,0-0.1,0-0.2-0.1s-0.1-0.1-0.1-0.2v-5.3c0-0.1,0-0.1,0.1-0.2c0,0,0.1-0.1,0.2-0.1L178.3,12.3
					L178.3,12.3L178.3,12.3z M179.7,14.6c0-0.2,0-0.3-0.1-0.5c-0.1-0.2-0.1-0.3-0.3-0.4s-0.3-0.2-0.4-0.3s-0.4-0.1-0.6-0.1h-1.1v3.7
					h1.1c0.2,0,0.4,0,0.6-0.1s0.3-0.1,0.4-0.3s0.2-0.2,0.2-0.4c0.1-0.2,0.1-0.3,0.1-0.5C179.7,15.4,179.7,15,179.7,14.6z"/>
				<path class="st0" d="M183.5,13.7c0.3,0,0.6,0.1,0.8,0.1c0.2,0.1,0.5,0.2,0.6,0.4c0.2,0.2,0.3,0.4,0.4,0.6s0.2,0.5,0.2,0.7
					c0,0.1,0,0.1,0,0.2s0,0.2,0,0.2s0,0.2,0,0.2s0,0.1,0,0.2c0,0.2-0.1,0.5-0.2,0.7c-0.1,0.2-0.2,0.4-0.4,0.6
					c-0.2,0.2-0.4,0.3-0.6,0.4c-0.2,0.1-0.5,0.1-0.8,0.1s-0.6,0-0.8-0.1c-0.2-0.1-0.5-0.2-0.6-0.4c-0.2-0.2-0.3-0.4-0.4-0.6
					s-0.2-0.5-0.2-0.7c0-0.1,0-0.1,0-0.2s0-0.1,0-0.2c0-0.1,0-0.2,0-0.2s0-0.1,0-0.2c0-0.2,0.1-0.5,0.2-0.7c0.1-0.2,0.2-0.4,0.4-0.6
					c0.2-0.2,0.4-0.3,0.6-0.4C182.9,13.8,183.2,13.7,183.5,13.7z M184.5,15.6c0-0.2-0.1-0.3-0.1-0.4c-0.1-0.1-0.1-0.2-0.2-0.3
					s-0.2-0.1-0.3-0.1c-0.1,0-0.2,0-0.3,0s-0.2,0-0.3,0c-0.1,0-0.2,0.1-0.3,0.1s-0.2,0.2-0.2,0.3c-0.1,0.1-0.1,0.3-0.1,0.4
					c0,0,0,0.1,0,0.2s0,0.1,0,0.2c0,0.1,0,0.1,0,0.2c0,0.1,0,0.1,0,0.2c0,0.2,0.1,0.3,0.1,0.4c0.1,0.1,0.1,0.2,0.2,0.3
					c0.1,0.1,0.2,0.1,0.3,0.1c0.1,0,0.2,0,0.3,0s0.2,0,0.3,0c0.1,0,0.2-0.1,0.3-0.1s0.2-0.2,0.2-0.3c0.1-0.1,0.1-0.3,0.1-0.4
					c0,0,0-0.1,0-0.2s0-0.1,0-0.2s0-0.1,0-0.2C184.5,15.7,184.5,15.6,184.5,15.6z"/>
				<path class="st0" d="M186.3,14.9c0-0.1,0.1-0.2,0.2-0.4c0.1-0.1,0.2-0.3,0.3-0.4c0.1-0.1,0.3-0.2,0.5-0.3
					c0.2-0.1,0.5-0.1,0.7-0.1s0.5,0,0.8,0.1c0.2,0.1,0.4,0.2,0.6,0.3c0.2,0.1,0.3,0.3,0.4,0.5c0.1,0.2,0.1,0.5,0.1,0.7v2.4
					c0,0.1,0,0.1-0.1,0.2s-0.1,0.1-0.2,0.1H189c-0.1,0-0.1,0-0.2-0.1s-0.1-0.1-0.1-0.2v-0.3c-0.1,0.2-0.3,0.3-0.5,0.4
					c-0.2,0.1-0.5,0.2-0.8,0.2c-0.2,0-0.4,0-0.6-0.1c-0.2-0.1-0.3-0.2-0.5-0.3c-0.1-0.1-0.2-0.2-0.3-0.4c-0.1-0.2-0.1-0.3-0.1-0.5
					c0-0.4,0.1-0.7,0.4-0.9c0.3-0.2,0.6-0.4,1.1-0.4l1.3-0.2c0-0.2-0.1-0.4-0.2-0.5c-0.1-0.1-0.3-0.1-0.5-0.1c-0.1,0-0.2,0-0.3,0.1
					c-0.1,0-0.2,0.1-0.2,0.2c-0.1,0-0.1,0.1-0.1,0.1c0,0-0.1,0-0.1,0h-0.8c-0.1,0-0.1,0-0.1-0.1S186.3,14.9,186.3,14.9z M187.7,17.2
					c0.2,0,0.4,0,0.5-0.1c0.1-0.1,0.3-0.1,0.4-0.2c0.1-0.1,0.2-0.2,0.2-0.3c0.1-0.1,0.1-0.2,0.1-0.3v-0.1l-1.1,0.2
					c-0.2,0-0.4,0.1-0.5,0.2s-0.1,0.2-0.1,0.3c0,0.1,0.1,0.2,0.2,0.3C187.4,17.2,187.5,17.2,187.7,17.2z"/>
				<path class="st0" d="M191.7,15.7c0,0.1,0,0.2,0,0.3s0,0.2,0,0.3c0,0.2,0.1,0.3,0.1,0.4c0.1,0.1,0.1,0.2,0.2,0.3s0.2,0.1,0.3,0.2
					c0.1,0,0.2,0.1,0.3,0.1c0.1,0,0.2,0,0.3,0s0.2-0.1,0.2-0.1c0.1,0,0.1-0.1,0.2-0.1c0.1-0.1,0.1-0.1,0.1-0.2
					c0-0.1,0.1-0.1,0.1-0.1c0-0.1,0.1-0.1,0.2-0.1h0.6c0.1,0,0.1,0,0.2,0.1s0.1,0.1,0.1,0.2c0,0.1-0.1,0.3-0.1,0.4
					c-0.1,0.2-0.2,0.3-0.4,0.5s-0.4,0.3-0.6,0.4c-0.2,0.1-0.5,0.2-0.9,0.2l-0.2,0.4c0,0,0.1,0,0.1-0.1c0.1,0,0.1,0,0.2,0
					c0.2,0,0.4,0.1,0.5,0.2c0.1,0.1,0.1,0.3,0.1,0.5c0,0.2-0.1,0.4-0.2,0.5c-0.1,0.1-0.3,0.2-0.6,0.2c-0.1,0-0.2,0-0.3,0
					s-0.2-0.1-0.2-0.1c-0.1,0-0.1-0.1-0.1-0.1s0-0.1,0-0.1l0.1-0.1c0,0,0.1-0.1,0.1-0.1c0,0,0.1,0,0.1,0s0.1,0,0.1,0.1
					c0.1,0,0.1,0,0.2,0c0.2,0,0.3-0.1,0.3-0.3c0-0.2-0.1-0.2-0.3-0.2c0,0-0.1,0-0.1,0c0,0-0.1,0-0.1,0s-0.1,0-0.1,0s-0.1,0-0.1-0.1
					l-0.1-0.1c0,0-0.1-0.1-0.1-0.1s0-0.1,0-0.2l0.2-0.4c-0.2,0-0.5-0.1-0.7-0.2s-0.4-0.3-0.5-0.4c-0.1-0.2-0.2-0.4-0.3-0.5
					c-0.1-0.2-0.1-0.4-0.1-0.6c0-0.1,0-0.2,0-0.3s0-0.2,0-0.3c0-0.2,0.1-0.5,0.2-0.7c0.1-0.2,0.2-0.4,0.4-0.6
					c0.2-0.2,0.4-0.3,0.6-0.4c0.2-0.1,0.5-0.2,0.8-0.2c0.4,0,0.7,0.1,0.9,0.2c0.2,0.1,0.5,0.2,0.6,0.4c0.2,0.2,0.3,0.3,0.4,0.5
					c0.1,0.2,0.1,0.3,0.1,0.4c0,0.1,0,0.1-0.1,0.2c-0.1,0-0.1,0.1-0.2,0.1h-0.6c-0.1,0-0.1,0-0.2-0.1s-0.1-0.1-0.1-0.1
					c0-0.1-0.1-0.1-0.1-0.2c-0.1-0.1-0.1-0.1-0.2-0.1s-0.1-0.1-0.2-0.1c-0.1,0-0.2,0-0.3,0c-0.1,0-0.2,0-0.3,0.1
					c-0.1,0-0.2,0.1-0.3,0.2c-0.1,0.1-0.2,0.2-0.2,0.3C191.7,15.4,191.7,15.5,191.7,15.7z"/>
				<path class="st0" d="M195.3,14.9c0-0.1,0.1-0.2,0.2-0.4c0.1-0.1,0.2-0.3,0.3-0.4c0.1-0.1,0.3-0.2,0.5-0.3
					c0.2-0.1,0.5-0.1,0.7-0.1s0.5,0,0.8,0.1c0.2,0.1,0.4,0.2,0.6,0.3c0.2,0.1,0.3,0.3,0.4,0.5s0.1,0.5,0.1,0.7v2.4
					c0,0.1,0,0.1-0.1,0.2s-0.1,0.1-0.2,0.1h-0.6c-0.1,0-0.1,0-0.2-0.1s-0.1-0.1-0.1-0.2v-0.3c-0.1,0.2-0.3,0.3-0.5,0.4
					c-0.2,0.1-0.5,0.2-0.8,0.2c-0.2,0-0.4,0-0.6-0.1c-0.2-0.1-0.3-0.2-0.5-0.3c-0.1-0.1-0.2-0.2-0.3-0.4c-0.1-0.2-0.1-0.3-0.1-0.5
					c0-0.4,0.1-0.7,0.4-0.9c0.3-0.2,0.6-0.4,1.1-0.4l1.3-0.2c0-0.2-0.1-0.4-0.2-0.5c-0.1-0.1-0.3-0.1-0.5-0.1c-0.1,0-0.2,0-0.3,0.1
					c-0.1,0-0.2,0.1-0.2,0.2c-0.1,0-0.1,0.1-0.1,0.1s-0.1,0-0.1,0h-0.8c-0.1,0-0.1,0-0.1-0.1C195.4,15,195.3,14.9,195.3,14.9z
					 M197.6,13.2c-0.1,0-0.3,0-0.3,0s-0.2-0.1-0.2-0.1c-0.1,0-0.1-0.1-0.2-0.1s-0.1,0-0.2,0c-0.1,0-0.1,0-0.1,0c0,0-0.1,0.1-0.1,0.1
					s0,0.1-0.1,0.1s-0.1,0-0.1,0h-0.5c-0.1,0-0.1,0-0.1,0c0,0,0-0.1,0-0.1c0-0.1,0-0.2,0.1-0.3c0-0.1,0.1-0.2,0.2-0.3
					c0.1-0.1,0.2-0.2,0.3-0.2c0.1-0.1,0.2-0.1,0.4-0.1s0.2,0,0.3,0c0.1,0,0.2,0.1,0.2,0.1c0.1,0,0.1,0.1,0.2,0.1s0.1,0,0.2,0
					c0.1,0,0.1,0,0.1,0c0,0,0.1-0.1,0.1-0.1s0-0.1,0.1-0.1s0.1,0,0.1,0h0.5c0.1,0,0.1,0,0.1,0c0,0,0,0.1,0,0.1c0,0.1,0,0.2-0.1,0.3
					c0,0.1-0.1,0.2-0.2,0.3c-0.1,0.1-0.2,0.2-0.3,0.2C197.9,13.2,197.8,13.2,197.6,13.2z M196.7,17.2c0.2,0,0.4,0,0.5-0.1
					c0.1-0.1,0.3-0.1,0.4-0.2c0.1-0.1,0.2-0.2,0.2-0.3c0.1-0.1,0.1-0.2,0.1-0.3v-0.1l-1.1,0.2c-0.2,0-0.4,0.1-0.5,0.2
					s-0.1,0.2-0.1,0.3c0,0.1,0.1,0.2,0.2,0.3C196.4,17.2,196.6,17.2,196.7,17.2z"/>
				<path class="st0" d="M201.8,13.7c0.3,0,0.6,0.1,0.8,0.1c0.2,0.1,0.5,0.2,0.6,0.4c0.2,0.2,0.3,0.4,0.4,0.6s0.2,0.5,0.2,0.7
					c0,0.1,0,0.1,0,0.2s0,0.2,0,0.2s0,0.2,0,0.2s0,0.1,0,0.2c0,0.2-0.1,0.5-0.2,0.7c-0.1,0.2-0.2,0.4-0.4,0.6
					c-0.2,0.2-0.4,0.3-0.6,0.4c-0.2,0.1-0.5,0.1-0.8,0.1c-0.3,0-0.6,0-0.8-0.1c-0.2-0.1-0.5-0.2-0.6-0.4c-0.2-0.2-0.3-0.4-0.4-0.6
					s-0.2-0.5-0.2-0.7c0-0.1,0-0.1,0-0.2s0-0.1,0-0.2c0-0.1,0-0.2,0-0.2s0-0.1,0-0.2c0-0.2,0.1-0.5,0.2-0.7c0.1-0.2,0.2-0.4,0.4-0.6
					c0.2-0.2,0.4-0.3,0.6-0.4C201.2,13.8,201.4,13.7,201.8,13.7z M202.7,15.6c0-0.2-0.1-0.3-0.1-0.4c-0.1-0.1-0.1-0.2-0.2-0.3
					s-0.2-0.1-0.3-0.1c-0.1,0-0.2,0-0.3,0s-0.2,0-0.3,0c-0.1,0-0.2,0.1-0.3,0.1s-0.2,0.2-0.2,0.3c-0.1,0.1-0.1,0.3-0.1,0.4
					c0,0,0,0.1,0,0.2s0,0.1,0,0.2c0,0.1,0,0.1,0,0.2c0,0.1,0,0.1,0,0.2c0,0.2,0.1,0.3,0.1,0.4c0.1,0.1,0.1,0.2,0.2,0.3
					s0.2,0.1,0.3,0.1c0.1,0,0.2,0,0.3,0s0.2,0,0.3,0c0.1,0,0.2-0.1,0.3-0.1c0.1-0.1,0.2-0.2,0.2-0.3c0.1-0.1,0.1-0.3,0.1-0.4
					c0,0,0-0.1,0-0.2s0-0.1,0-0.2s0-0.1,0-0.2C202.8,15.7,202.8,15.6,202.7,15.6z"/>
			</g>
			<g>
				<path class="st0" d="M178,19.9c0.4,0,0.7,0.1,1,0.1c0.3,0.1,0.5,0.2,0.7,0.4c0.2,0.1,0.3,0.3,0.4,0.5s0.1,0.4,0.2,0.5
					c0,0.1,0,0.1-0.1,0.2c-0.1,0-0.1,0.1-0.2,0.1h-0.6c-0.1,0-0.2,0-0.2-0.1c-0.1,0-0.1-0.1-0.1-0.1c-0.1-0.1-0.2-0.3-0.4-0.4
					s-0.4-0.2-0.7-0.2c-0.1,0-0.3,0-0.4,0c-0.1,0-0.2,0.1-0.3,0.1c-0.1,0.1-0.2,0.1-0.2,0.2s-0.1,0.2-0.1,0.3c0,0.1,0,0.2,0.1,0.3
					c0.1,0.1,0.1,0.1,0.3,0.2c0.1,0.1,0.3,0.1,0.5,0.2c0.2,0.1,0.5,0.1,0.8,0.2c0.3,0.1,0.6,0.2,0.9,0.2c0.2,0.1,0.4,0.2,0.6,0.3
					c0.2,0.1,0.3,0.3,0.3,0.5c0.1,0.2,0.1,0.4,0.1,0.6c0,0.2-0.1,0.5-0.2,0.7c-0.1,0.2-0.3,0.4-0.5,0.5c-0.2,0.2-0.5,0.3-0.8,0.4
					c-0.3,0.1-0.6,0.1-1,0.1c-0.3,0-0.6,0-0.9-0.1s-0.5-0.2-0.7-0.3c-0.2-0.1-0.4-0.3-0.5-0.5c-0.1-0.2-0.2-0.4-0.2-0.7
					c0-0.1,0-0.1,0.1-0.2s0.1-0.1,0.2-0.1h0.6c0.1,0,0.2,0,0.2,0.1s0.1,0.1,0.1,0.1c0,0.1,0.1,0.1,0.1,0.2c0.1,0.1,0.1,0.1,0.2,0.2
					c0.1,0.1,0.2,0.1,0.4,0.1s0.3,0.1,0.5,0.1c0.2,0,0.3,0,0.5,0c0.2,0,0.3-0.1,0.4-0.1s0.2-0.1,0.3-0.2s0.1-0.2,0.1-0.3
					c0-0.1,0-0.2-0.1-0.3c-0.1-0.1-0.2-0.1-0.4-0.2s-0.4-0.1-0.6-0.2c-0.2-0.1-0.5-0.1-0.8-0.2c-0.3-0.1-0.5-0.1-0.7-0.2
					s-0.4-0.2-0.5-0.3c-0.1-0.1-0.2-0.3-0.3-0.5c-0.1-0.2-0.1-0.4-0.1-0.6c0-0.2,0.1-0.5,0.2-0.7s0.3-0.4,0.5-0.5
					c0.2-0.1,0.4-0.3,0.7-0.4C177.4,19.9,177.7,19.9,178,19.9z"/>
				<path class="st0" d="M183,21.3c0.3,0,0.6,0.1,0.8,0.1c0.2,0.1,0.5,0.2,0.6,0.4c0.2,0.2,0.3,0.4,0.4,0.6c0.1,0.2,0.2,0.5,0.2,0.7
					c0,0.1,0,0.1,0,0.2s0,0.2,0,0.2s0,0.2,0,0.2s0,0.1,0,0.2c0,0.2-0.1,0.5-0.2,0.7c-0.1,0.2-0.2,0.4-0.4,0.6
					c-0.2,0.2-0.4,0.3-0.6,0.4c-0.2,0.1-0.5,0.1-0.8,0.1c-0.3,0-0.6-0.1-0.8-0.1c-0.2-0.1-0.5-0.2-0.6-0.4c-0.2-0.2-0.3-0.4-0.4-0.6
					s-0.2-0.5-0.2-0.7c0-0.1,0-0.1,0-0.2s0-0.1,0-0.2c0-0.1,0-0.2,0-0.2s0-0.1,0-0.2c0-0.2,0.1-0.5,0.2-0.7c0.1-0.2,0.2-0.4,0.4-0.6
					c0.2-0.2,0.4-0.3,0.6-0.4C182.4,21.4,182.7,21.3,183,21.3z M184,23.2c0-0.2-0.1-0.3-0.1-0.4c-0.1-0.1-0.1-0.2-0.2-0.3
					c-0.1-0.1-0.2-0.1-0.3-0.1c-0.1,0-0.2,0-0.3,0c-0.1,0-0.2,0-0.3,0c-0.1,0-0.2,0.1-0.3,0.1s-0.2,0.2-0.2,0.3
					c-0.1,0.1-0.1,0.3-0.1,0.4c0,0,0,0.1,0,0.2s0,0.1,0,0.2c0,0.1,0,0.1,0,0.2c0,0.1,0,0.1,0,0.2c0,0.2,0.1,0.3,0.1,0.4
					c0.1,0.1,0.1,0.2,0.2,0.3c0.1,0.1,0.2,0.1,0.3,0.1c0.1,0,0.2,0,0.3,0c0.1,0,0.2,0,0.3,0c0.1,0,0.2-0.1,0.3-0.1
					c0.1-0.1,0.2-0.2,0.2-0.3c0.1-0.1,0.1-0.3,0.1-0.4c0,0,0-0.1,0-0.2s0-0.1,0-0.2c0-0.1,0-0.1,0-0.2C184,23.3,184,23.2,184,23.2z"
					/>
				<path class="st0" d="M186.9,25.5c0,0.1,0,0.1-0.1,0.2s-0.1,0.1-0.2,0.1H186c-0.1,0-0.1,0-0.2-0.1s-0.1-0.1-0.1-0.2v-5.4
					c0-0.1,0-0.1,0.1-0.2s0.1-0.1,0.2-0.1h0.6c0.1,0,0.1,0,0.2,0.1s0.1,0.1,0.1,0.2V25.5z"/>
				<path class="st0" d="M187.8,21.6c0-0.1,0-0.1,0.1-0.2s0.1-0.1,0.2-0.1h0.6c0.1,0,0.1,0,0.2,0.1s0.1,0.1,0.1,0.2v2.1
					c0,0.3,0.1,0.6,0.2,0.8c0.1,0.2,0.4,0.3,0.7,0.3c0.3,0,0.5-0.1,0.7-0.3c0.2-0.2,0.2-0.5,0.2-0.8v-2.1c0-0.1,0-0.1,0.1-0.2
					s0.1-0.1,0.2-0.1h0.6c0.1,0,0.1,0,0.2,0.1s0.1,0.1,0.1,0.2v3.9c0,0.1,0,0.1-0.1,0.2s-0.1,0.1-0.2,0.1h-0.6c-0.1,0-0.1,0-0.2-0.1
					s-0.1-0.1-0.1-0.2v-0.2c-0.1,0.1-0.3,0.2-0.5,0.3c-0.2,0.1-0.4,0.2-0.7,0.2c-0.3,0-0.6-0.1-0.8-0.2s-0.4-0.2-0.5-0.4
					s-0.2-0.4-0.3-0.6c-0.1-0.2-0.1-0.5-0.1-0.7L187.8,21.6L187.8,21.6z"/>
				<path class="st0" d="M194.1,24.2c0,0.2,0,0.3,0.1,0.4c0.1,0.1,0.3,0.2,0.5,0.2h0.5c0.1,0,0.1,0,0.2,0.1s0.1,0.1,0.1,0.2v0.5
					c0,0.1,0,0.1-0.1,0.2s-0.1,0.1-0.2,0.1h-0.6c-0.5,0-0.9-0.1-1.2-0.4c-0.3-0.2-0.4-0.6-0.4-1.1v-1.8h-0.5c-0.1,0-0.1,0-0.2-0.1
					s-0.1-0.1-0.1-0.2v-0.5c0-0.1,0-0.1,0.1-0.2s0.1-0.1,0.2-0.1h0.5v-1.3c0-0.1,0-0.1,0.1-0.2s0.1-0.1,0.2-0.1h0.6
					c0.1,0,0.1,0,0.2,0.1s0.1,0.1,0.1,0.2v1.3h1.1c0.1,0,0.1,0,0.2,0.1s0.1,0.1,0.1,0.2v0.5c0,0.1,0,0.1-0.1,0.2s-0.1,0.1-0.2,0.1
					h-1.1L194.1,24.2L194.1,24.2z"/>
				<path class="st0" d="M197,19.9c0.1,0,0.1,0,0.2,0.1s0.1,0.1,0.1,0.2v0.6c0,0.1,0,0.1-0.1,0.2s-0.1,0.1-0.2,0.1h-0.7
					c-0.1,0-0.1,0-0.2-0.1s-0.1-0.1-0.1-0.2v-0.6c0-0.1,0-0.1,0.1-0.2s0.1-0.1,0.2-0.1H197z M197.2,25.5c0,0.1,0,0.1-0.1,0.2
					s-0.1,0.1-0.2,0.1h-0.6c-0.1,0-0.1,0-0.2-0.1s-0.1-0.1-0.1-0.2v-3.9c0-0.1,0-0.1,0.1-0.2s0.1-0.1,0.2-0.1h0.6
					c0.1,0,0.1,0,0.2,0.1s0.1,0.1,0.1,0.2V25.5z"/>
				<path class="st0" d="M200,21.3c0.3,0,0.6,0.1,0.8,0.1c0.2,0.1,0.5,0.2,0.6,0.4c0.2,0.2,0.3,0.4,0.4,0.6c0.1,0.2,0.2,0.5,0.2,0.7
					c0,0.1,0,0.1,0,0.2s0,0.2,0,0.2s0,0.2,0,0.2s0,0.1,0,0.2c0,0.2-0.1,0.5-0.2,0.7c-0.1,0.2-0.2,0.4-0.4,0.6
					c-0.2,0.2-0.4,0.3-0.6,0.4c-0.2,0.1-0.5,0.1-0.8,0.1s-0.6-0.1-0.8-0.1c-0.2-0.1-0.5-0.2-0.6-0.4c-0.2-0.2-0.3-0.4-0.4-0.6
					s-0.2-0.5-0.2-0.7c0-0.1,0-0.1,0-0.2s0-0.1,0-0.2c0-0.1,0-0.2,0-0.2s0-0.1,0-0.2c0-0.2,0.1-0.5,0.2-0.7c0.1-0.2,0.2-0.4,0.4-0.6
					c0.2-0.2,0.4-0.3,0.6-0.4C199.4,21.4,199.7,21.3,200,21.3z M201,23.2c0-0.2-0.1-0.3-0.1-0.4c-0.1-0.1-0.1-0.2-0.2-0.3
					s-0.2-0.1-0.3-0.1s-0.2,0-0.3,0s-0.2,0-0.3,0c-0.1,0-0.2,0.1-0.3,0.1c-0.1,0.1-0.2,0.2-0.2,0.3c-0.1,0.1-0.1,0.3-0.1,0.4
					c0,0,0,0.1,0,0.2s0,0.1,0,0.2c0,0.1,0,0.1,0,0.2c0,0.1,0,0.1,0,0.2c0,0.2,0.1,0.3,0.1,0.4c0.1,0.1,0.1,0.2,0.2,0.3
					c0.1,0.1,0.2,0.1,0.3,0.1c0.1,0,0.2,0,0.3,0s0.2,0,0.3,0c0.1,0,0.2-0.1,0.3-0.1c0.1-0.1,0.2-0.2,0.2-0.3
					c0.1-0.1,0.1-0.3,0.1-0.4c0,0,0-0.1,0-0.2s0-0.1,0-0.2c0-0.1,0-0.1,0-0.2S201,23.2,201,23.2z"/>
				<path class="st0" d="M206.8,25.5c0,0.1,0,0.1-0.1,0.2s-0.1,0.1-0.2,0.1H206c-0.1,0-0.1,0-0.2-0.1s-0.1-0.1-0.1-0.2v-2.1
					c0-0.3-0.1-0.6-0.2-0.8c-0.2-0.2-0.4-0.3-0.7-0.3c-0.3,0-0.5,0.1-0.7,0.3c-0.2,0.2-0.2,0.5-0.2,0.8v2.1c0,0.1,0,0.1-0.1,0.2
					s-0.1,0.1-0.2,0.1H203c-0.1,0-0.1,0-0.2-0.1s-0.1-0.1-0.1-0.2v-3.9c0-0.1,0-0.1,0.1-0.2s0.1-0.1,0.2-0.1h0.6
					c0.1,0,0.1,0,0.2,0.1s0.1,0.1,0.1,0.2v0.2c0.1-0.1,0.3-0.3,0.5-0.4c0.2-0.1,0.4-0.1,0.7-0.1c0.3,0,0.6,0.1,0.8,0.2
					s0.4,0.2,0.5,0.4c0.1,0.2,0.2,0.4,0.3,0.6c0.1,0.2,0.1,0.5,0.1,0.7L206.8,25.5L206.8,25.5z"/>
				<path class="st0" d="M210.1,24.5c0-0.1,0-0.1-0.1-0.1c0,0-0.1-0.1-0.2-0.1c-0.1,0-0.2-0.1-0.4-0.1c-0.2,0-0.4-0.1-0.6-0.1
					c-0.2-0.1-0.4-0.1-0.6-0.2s-0.3-0.2-0.4-0.3s-0.2-0.2-0.2-0.4c0-0.1-0.1-0.3-0.1-0.5s0-0.3,0.1-0.5c0.1-0.2,0.2-0.3,0.3-0.4
					s0.3-0.2,0.5-0.3c0.2-0.1,0.4-0.1,0.7-0.1s0.5,0,0.7,0.1c0.2,0.1,0.4,0.1,0.5,0.2c0.1,0.1,0.3,0.2,0.3,0.3
					c0.1,0.1,0.1,0.3,0.1,0.4c0,0.1,0,0.1-0.1,0.2s-0.1,0.1-0.2,0.1h-0.6c-0.1,0-0.1,0-0.2,0c0,0-0.1-0.1-0.1-0.1
					c-0.1,0-0.1-0.1-0.2-0.1c-0.1,0-0.2,0-0.4,0s-0.3,0-0.4,0.1s-0.2,0.1-0.2,0.3c0,0.1,0,0.1,0,0.2s0.1,0.1,0.2,0.1
					s0.2,0.1,0.4,0.1c0.2,0,0.4,0.1,0.6,0.1c0.5,0.1,0.8,0.3,1,0.5c0.2,0.2,0.3,0.5,0.3,0.8c0,0.2,0,0.3-0.1,0.5
					c-0.1,0.2-0.2,0.3-0.4,0.4c-0.2,0.1-0.4,0.2-0.6,0.3s-0.5,0.1-0.8,0.1s-0.5,0-0.8-0.1s-0.4-0.2-0.6-0.3
					c-0.2-0.1-0.3-0.2-0.4-0.4c-0.1-0.1-0.1-0.3-0.1-0.4c0-0.1,0-0.1,0.1-0.2s0.1-0.1,0.2-0.1h0.6c0.1,0,0.1,0,0.2,0.1
					c0,0,0.1,0.1,0.1,0.1s0.1,0.1,0.2,0.1c0.1,0,0.2,0.1,0.4,0.1c0.1,0,0.2,0,0.3,0c0.1,0,0.2,0,0.2-0.1c0.1,0,0.1-0.1,0.2-0.1
					C210,24.6,210.1,24.5,210.1,24.5z"/>
			</g>
		</g>
	</g>
	<g>
		<path class="st1" d="M99.9,4.3c-0.6,0-1.1,0.5-1.1,1.1s0.5,1.1,1.1,1.1c0.3,0,0.6-0.1,0.9-0.4l0.3,0.4c-0.3,0.3-0.8,0.5-1.2,0.5
			c-0.9,0-1.7-0.7-1.7-1.6c0-0.9,0.7-1.6,1.7-1.6c0.5,0,0.9,0.2,1.2,0.5l-0.3,0.4C100.5,4.5,100.2,4.3,99.9,4.3z"/>
		<path class="st1" d="M103.9,3.8v0.5h-1.7v0.9h1.6v0.5h-1.6v0.9h1.8V7h-2.3V3.8H103.9z"/>
		<path class="st1" d="M106.6,7l-0.6-1c0,0-0.1,0-0.1,0h-0.8v1h-0.5V3.8h1.3c0.8,0,1.3,0.4,1.3,1.1c0,0.5-0.2,0.9-0.7,1l0.7,1.1
			H106.6z M105.9,5.6c0.5,0,0.8-0.2,0.8-0.6c0-0.4-0.3-0.6-0.8-0.6h-0.8v1.3H105.9z"/>
		<path class="st1" d="M110.1,3.8v0.5h-1V7h-0.5V4.3h-1V3.8H110.1z"/>
		<path class="st1" d="M111.1,3.8V7h-0.5V3.8H111.1z"/>
		<path class="st1" d="M114.1,3.8l0,0.5h-1.6v0.9h1.5v0.5h-1.5V7h-0.5V3.8H114.1z"/>
		<path class="st1" d="M115.1,3.8V7h-0.5V3.8H115.1z"/>
		<path class="st1" d="M117.3,4.3c-0.6,0-1.1,0.5-1.1,1.1s0.5,1.1,1.1,1.1c0.3,0,0.6-0.1,0.9-0.4l0.3,0.4c-0.3,0.3-0.8,0.5-1.2,0.5
			c-0.9,0-1.7-0.7-1.7-1.6c0-0.9,0.7-1.6,1.7-1.6c0.5,0,0.9,0.2,1.2,0.5l-0.3,0.4C118,4.5,117.7,4.3,117.3,4.3z"/>
		<path class="st1" d="M121.1,6.3h-1.6L119.2,7h-0.6l1.4-3.2h0.6L122,7h-0.6L121.1,6.3z M120.9,5.8l-0.6-1.4l-0.6,1.4H120.9z"/>
		<path class="st1" d="M125.4,5.4c0,0.9-0.7,1.6-1.7,1.6h-1.3V3.8h1.3C124.7,3.8,125.4,4.5,125.4,5.4z M124.9,5.4
			c0-0.7-0.5-1.1-1.1-1.1H123v2.2h0.8C124.4,6.6,124.9,6.1,124.9,5.4z"/>
		<path class="st1" d="M129,5.4c0,0.9-0.7,1.6-1.7,1.6c-1,0-1.7-0.7-1.7-1.6c0-0.9,0.7-1.6,1.7-1.6C128.2,3.8,129,4.5,129,5.4z
			 M126.1,5.4c0,0.6,0.5,1.1,1.2,1.1s1.1-0.5,1.1-1.1s-0.5-1.1-1.1-1.1C126.7,4.3,126.1,4.8,126.1,5.4z"/>
	</g>
	<g>
		<path class="st0" d="M165.6,5.4c0,0.9-0.7,1.6-1.7,1.6h-1.3V3.8h1.3C164.9,3.8,165.6,4.5,165.6,5.4z M165.1,5.4
			c0-0.7-0.5-1.1-1.1-1.1h-0.8v2.2h0.8C164.6,6.6,165.1,6.1,165.1,5.4z"/>
		<path class="st0" d="M168.4,3.8v0.5h-1.7v0.9h1.6v0.5h-1.6v0.9h1.8V7h-2.3V3.8H168.4z"/>
		<path class="st0" d="M170.2,4.3c-0.3,0-0.5,0.1-0.5,0.3c0,0.7,1.7,0.3,1.7,1.5c0,0.6-0.5,0.9-1.2,0.9c-0.5,0-1-0.2-1.3-0.5
			l0.2-0.5c0.3,0.3,0.7,0.5,1.1,0.5c0.4,0,0.6-0.1,0.6-0.4c0-0.7-1.7-0.3-1.7-1.5c0-0.5,0.5-0.9,1.2-0.9c0.4,0,0.8,0.1,1.1,0.3
			l-0.2,0.5C170.8,4.4,170.4,4.3,170.2,4.3z"/>
		<path class="st0" d="M174.3,3.8v0.5h-1.7v0.9h1.6v0.5h-1.6v0.9h1.8V7H172V3.8H174.3z"/>
		<path class="st0" d="M175.5,3.8l1.7,2.3V3.8h0.5V7h-0.5l-1.7-2.3V7H175V3.8H175.5z"/>
		<path class="st0" d="M178.8,3.8l1,2.6l1-2.6h0.6L180,7h-0.6l-1.3-3.2H178.8z"/>
		<path class="st0" d="M184.8,5.4c0,0.9-0.7,1.6-1.7,1.6c-1,0-1.7-0.7-1.7-1.6c0-0.9,0.7-1.6,1.7-1.6C184.1,3.8,184.8,4.5,184.8,5.4
			z M182,5.4c0,0.6,0.5,1.1,1.1,1.1s1.1-0.5,1.1-1.1s-0.5-1.1-1.1-1.1C182.5,4.3,182,4.8,182,5.4z"/>
		<path class="st0" d="M186,3.8v2.7h1.4V7h-1.9V3.8H186z"/>
		<path class="st0" d="M188,3.8l1,2.6l1-2.6h0.6L189.3,7h-0.6l-1.3-3.2H188z"/>
		<path class="st0" d="M191.5,3.8V7H191V3.8H191.5z"/>
		<path class="st0" d="M193,3.8l1.1,2.1l1.1-2.1h0.6V7h-0.5l0-2.4l-1,2.1h-0.4l-1-2.1V7h-0.5V3.8H193z"/>
		<path class="st0" d="M198.9,3.8v0.5h-1.7v0.9h1.6v0.5h-1.6v0.9h1.8V7h-2.3V3.8H198.9z"/>
		<path class="st0" d="M200.1,3.8l1.7,2.3V3.8h0.5V7h-0.5l-1.7-2.3V7h-0.5V3.8H200.1z"/>
		<path class="st0" d="M205.4,3.8v0.5h-1V7h-0.5V4.3h-1V3.8H205.4z"/>
		<path class="st0" d="M208.8,5.4c0,0.9-0.7,1.6-1.7,1.6c-1,0-1.7-0.7-1.7-1.6c0-0.9,0.7-1.6,1.7-1.6C208,3.8,208.8,4.5,208.8,5.4z
			 M205.9,5.4c0,0.6,0.5,1.1,1.1,1.1s1.1-0.5,1.1-1.1s-0.5-1.1-1.1-1.1C206.5,4.3,205.9,4.8,205.9,5.4z"/>
	</g>
	<g>
		<path class="st2" d="M74.3,25.1H8.8v-9.9h68.5v7C77.2,23.8,75.9,25.1,74.3,25.1z"/>
		<g>
			<g>
				<g>
					<defs>
						<rect id="SVGID_1_" x="5.3" y="4.5" width="16.7" height="23.1"/>
					</defs>
					<clipPath id="SVGID_2_">
						<use xlink:href="#SVGID_1_"  style="overflow:visible;"/>
					</clipPath>
					<path class="st3" d="M8.9,15.6V9.5c0-2.3,2-4.2,4.5-4.2c2.5,0,4.5,1.9,4.5,4.2v6.1H8.9z"/>
				</g>
			</g>
			<rect x="5.3" y="14.4" class="st4" width="16.6" height="12.6"/>
			<path class="st2" d="M13.6,22.3c-0.7,0-1.2-0.5-1.2-1.2v-2.4c0-0.7,0.5-1.2,1.2-1.2c0.7,0,1.2,0.5,1.2,1.2v2.4
				C14.8,21.8,14.3,22.3,13.6,22.3L13.6,22.3z"/>
			<rect x="5.3" y="24.7" class="st5" width="16.6" height="2.4"/>
		</g>
		<g>
			<path class="st6" d="M26.7,18.4c-0.5,0-0.8,0.2-0.8,0.5c0,1.1,2.7,0.5,2.7,2.3c0,0.9-0.8,1.4-1.9,1.4c-0.8,0-1.5-0.3-2.1-0.8
				l0.4-0.7c0.5,0.5,1.2,0.7,1.7,0.7c0.6,0,0.9-0.2,0.9-0.6c0-1.1-2.7-0.5-2.7-2.3c0-0.9,0.7-1.4,1.8-1.4c0.7,0,1.3,0.2,1.8,0.5
				l-0.4,0.7C27.7,18.5,27.1,18.4,26.7,18.4z"/>
			<path class="st6" d="M30.5,17.6v5h-0.8v-5H30.5z"/>
			<path class="st6" d="M35.2,17.6v0.8h-1.6v4.3h-0.8v-4.3h-1.6v-0.8H35.2z"/>
			<path class="st6" d="M39.5,17.6v0.8h-2.7v1.4h2.5v0.8h-2.5v1.4h2.8v0.8h-3.7v-5H39.5z"/>
			<path class="st6" d="M44.4,18.4c-0.5,0-0.8,0.2-0.8,0.5c0,1.1,2.7,0.5,2.7,2.3c0,0.9-0.8,1.4-1.9,1.4c-0.8,0-1.5-0.3-2.1-0.8
				l0.4-0.7c0.5,0.5,1.2,0.7,1.7,0.7c0.6,0,0.9-0.2,0.9-0.6c0-1.1-2.7-0.5-2.7-2.3c0-0.9,0.7-1.4,1.8-1.4c0.7,0,1.3,0.2,1.8,0.5
				l-0.4,0.7C45.3,18.5,44.8,18.4,44.4,18.4z"/>
			<path class="st6" d="M50.8,17.6v0.8h-2.7v1.4h2.5v0.8h-2.5v1.4h2.8v0.8h-3.7v-5H50.8z"/>
			<path class="st6" d="M55.4,20.2h0.7V22c-0.5,0.4-1.3,0.7-2,0.7c-1.5,0-2.6-1.1-2.6-2.5c0-1.4,1.2-2.5,2.7-2.5
				c0.7,0,1.4,0.3,1.9,0.7l-0.5,0.6c-0.4-0.4-0.9-0.6-1.4-0.6c-1,0-1.8,0.8-1.8,1.8c0,1,0.8,1.8,1.8,1.8c0.4,0,0.8-0.1,1.2-0.3
				L55.4,20.2L55.4,20.2z"/>
			<path class="st6" d="M59.4,21.9c0.8,0,1.3-0.5,1.3-1.4v-2.9h0.8v2.9c0,1.3-0.8,2.1-2.2,2.1s-2.2-0.8-2.2-2.1v-2.9h0.8v2.9
				C58.1,21.4,58.6,21.9,59.4,21.9z"/>
			<path class="st6" d="M66,22.6l-0.9-1.5c-0.1,0-0.2,0-0.2,0h-1.2v1.5h-0.8v-5h2c1.3,0,2,0.6,2,1.7c0,0.8-0.4,1.4-1,1.6l1.1,1.7H66
				z M64.9,20.4c0.8,0,1.2-0.3,1.2-1c0-0.7-0.4-1-1.2-1h-1.2v2L64.9,20.4L64.9,20.4z"/>
			<path class="st6" d="M72.9,20.1c0,1.4-1.2,2.5-2.7,2.5s-2.7-1.1-2.7-2.5c0-1.4,1.2-2.5,2.7-2.5S72.9,18.7,72.9,20.1z M68.5,20.1
				c0,1,0.8,1.8,1.8,1.8s1.8-0.8,1.8-1.8c0-1-0.8-1.8-1.8-1.8C69.3,18.4,68.5,19.1,68.5,20.1z"/>
		</g>
	</g>
	<line class="st7" x1="147.9" y1="2.6" x2="147.9" y2="28.5"/>
</g>
<g>
	<path class="st1" d="M98.2,18.9h-0.6v1.8h0.7c0,0,0.8,0,0.9-0.8c0,0,0-0.3,0-0.4C99.1,18.9,98.2,18.9,98.2,18.9z"/>
	<path id="Path-7_3_" class="st8" d="M111.6,27.5c0.2,0,0.4,0,0.6-0.1c0.9-0.5,4.1-8.2,7.4-10.5c0,0,0,0,0.1-0.1c0,0,0-0.1,0-0.1
		s0-0.2-0.5-0.2c-3-0.1-6,6.1-7.6,8.6c0,0-0.1,0-0.1,0s-1.1-1.3-2-1.8c0,0-0.1,0-0.2,0c-0.1,0-0.5,0.1-0.7,0.3
		c-0.2,0.3-0.2,0.4-0.2,0.7c0,0,0,0.1,0,0.2c0.2,0.4,1.3,1.8,2.1,2.6C110.6,27.3,110.8,27.5,111.6,27.5z"/>
	<path class="st1" d="M115.6,23.4l1.5-0.5l-0.5-1.1C116.2,22.3,115.9,22.8,115.6,23.4z"/>
	<path class="st1" d="M115.1,18.5l-2.9-6.5l-21.2,1.2l5.9,16l11.3-3.6c-0.3-0.5-0.5-1-0.6-1.4c0,0,0,0,0,0c-0.1,0-0.8,0-1.2,0
		c-4-0.3-4-3.1-4-3.2v-0.7c0-0.1,0.1-2.9,4-3.2c0.3,0,1.2,0,1.2,0c1.1,0.1,1.4,0.3,1.4,0.3c0,0,0,0,0,0.1v1.7c0,0,0,0,0,0
		c0,0-0.6-0.4-1.4-0.5h-0.7c-1.7,0.1-1.9,1.5-1.9,1.5c0,0,0,0.1,0,0.1V21c0,0,0,0.1,0,0.1c0,0,0.1,1.3,1.9,1.6c0.1,0,0.3,0,0.7,0
		c1.2-0.1,1.5-0.4,1.5-0.4c0,0,0,0,0,0v0.3c0.4,0.1,0.8,0.2,1.1,0.5v-5.8h2.6v4.3C113.8,20.3,114.8,18.9,115.1,18.5z M97.7,22.2
		C97.7,22.2,97.6,22.2,97.7,22.2l0,2c0,0,0,0,0,0H95c0,0,0,0,0,0v-6.8c0,0,0,0,0,0c0,0,3.3,0,3.3,0c0.8,0,3.4,0.2,3.4,2.4
		C101.8,22.5,97.7,22.2,97.7,22.2z M111.5,16.7c-0.9,0-1.6-0.7-1.6-1.5c0-0.8,0.7-1.5,1.6-1.5s1.6,0.7,1.6,1.5
		C113.1,16,112.4,16.7,111.5,16.7z"/>
	<g>
		<path class="st1" d="M131.2,18.1l1.6-0.1c0,0.3,0.1,0.5,0.2,0.6c0.2,0.2,0.4,0.3,0.7,0.3c0.2,0,0.4-0.1,0.5-0.2s0.2-0.2,0.2-0.4
			c0-0.1-0.1-0.3-0.2-0.4c-0.1-0.1-0.4-0.2-0.8-0.3c-0.7-0.2-1.2-0.4-1.6-0.6c-0.3-0.3-0.5-0.6-0.5-1c0-0.3,0.1-0.5,0.2-0.8
			c0.2-0.2,0.4-0.4,0.7-0.6s0.8-0.2,1.3-0.2c0.7,0,1.2,0.1,1.6,0.4c0.4,0.3,0.6,0.7,0.6,1.2l-1.6,0.1c0-0.2-0.1-0.4-0.3-0.5
			c-0.1-0.1-0.3-0.2-0.6-0.2c-0.2,0-0.3,0-0.4,0.1c-0.1,0.1-0.1,0.2-0.1,0.3c0,0.1,0,0.2,0.1,0.2c0.1,0.1,0.3,0.1,0.6,0.2
			c0.7,0.2,1.2,0.3,1.6,0.5c0.3,0.2,0.5,0.4,0.7,0.6c0.1,0.2,0.2,0.5,0.2,0.8c0,0.3-0.1,0.7-0.3,1c-0.2,0.3-0.5,0.5-0.8,0.7
			s-0.8,0.2-1.3,0.2c-0.9,0-1.5-0.2-1.9-0.5C131.4,19.1,131.2,18.7,131.2,18.1z"/>
	</g>
	<path class="st1" d="M120.5,14.6h2.5c0.5,0,0.9,0.1,1.2,0.2c0.3,0.1,0.5,0.3,0.7,0.6c0.2,0.2,0.3,0.5,0.4,0.9
		c0.1,0.3,0.1,0.7,0.1,1c0,0.6-0.1,1-0.2,1.3s-0.3,0.6-0.5,0.8c-0.2,0.2-0.5,0.4-0.7,0.4c-0.4,0.1-0.7,0.1-1,0.1h-2.5L120.5,14.6
		L120.5,14.6z M122.2,15.8v2.9h0.4c0.3,0,0.6,0,0.7-0.1c0.1-0.1,0.3-0.2,0.3-0.4s0.1-0.5,0.1-0.9c0-0.6-0.1-1-0.3-1.2
		c-0.2-0.2-0.5-0.3-0.9-0.3L122.2,15.8L122.2,15.8z"/>
	<g>
		<path class="st1" d="M125.9,18.1l1.6-0.1c0,0.3,0.1,0.5,0.2,0.6c0.2,0.2,0.4,0.3,0.7,0.3c0.2,0,0.4-0.1,0.5-0.2s0.2-0.2,0.2-0.4
			c0-0.1-0.1-0.3-0.2-0.4c-0.1-0.1-0.4-0.2-0.8-0.3c-0.7-0.2-1.2-0.4-1.6-0.6c-0.3-0.3-0.5-0.6-0.5-1c0-0.3,0.1-0.5,0.2-0.8
			c0.2-0.2,0.4-0.4,0.7-0.6s0.8-0.2,1.3-0.2c0.7,0,1.2,0.1,1.6,0.4c0.4,0.3,0.6,0.7,0.6,1.2l-1.6,0.1c0-0.2-0.1-0.4-0.3-0.5
			c-0.1-0.1-0.3-0.2-0.6-0.2c-0.2,0-0.3,0-0.4,0.1c-0.1,0.1-0.1,0.2-0.1,0.3c0,0.1,0,0.2,0.1,0.2c0.1,0.1,0.3,0.1,0.6,0.2
			c0.7,0.2,1.2,0.3,1.6,0.5c0.3,0.2,0.5,0.4,0.7,0.6c0.1,0.2,0.2,0.5,0.2,0.8c0,0.3-0.1,0.7-0.3,1c-0.2,0.3-0.5,0.5-0.8,0.7
			s-0.8,0.2-1.3,0.2c-0.9,0-1.5-0.2-1.9-0.5C126.1,19.1,125.9,18.7,125.9,18.1z"/>
	</g>
	<g>
		<path class="st1" d="M121.7,21.8l0.4,0.1c0,0.1-0.1,0.2-0.1,0.3s-0.1,0.1-0.2,0.2s-0.2,0.1-0.4,0.1c-0.2,0-0.3,0-0.4-0.1
			c-0.1-0.1-0.2-0.1-0.3-0.3s-0.1-0.3-0.1-0.5c0-0.3,0.1-0.5,0.2-0.6c0.1-0.1,0.4-0.2,0.6-0.2c0.2,0,0.4,0,0.5,0.1s0.2,0.2,0.3,0.4
			l-0.5,0.1c0,0,0-0.1-0.1-0.1c0,0-0.1-0.1-0.1-0.1c0,0-0.1,0-0.1,0c-0.1,0-0.2,0-0.3,0.1c0,0.1-0.1,0.2-0.1,0.3
			c0,0.2,0,0.3,0.1,0.4s0.1,0.1,0.2,0.1c0.1,0,0.2,0,0.2-0.1C121.7,22,121.7,21.9,121.7,21.8z"/>
	</g>
	<path class="st1" d="M122.4,21.7c0-0.3,0.1-0.5,0.2-0.6s0.4-0.2,0.6-0.2c0.3,0,0.5,0.1,0.6,0.2s0.2,0.4,0.2,0.6
		c0,0.2,0,0.4-0.1,0.5s-0.2,0.2-0.3,0.3c-0.1,0.1-0.3,0.1-0.5,0.1c-0.2,0-0.3,0-0.5-0.1c-0.1-0.1-0.2-0.2-0.3-0.3
		S122.4,21.9,122.4,21.7z M122.9,21.7c0,0.2,0,0.3,0.1,0.4c0.1,0.1,0.1,0.1,0.3,0.1c0.1,0,0.2,0,0.3-0.1c0.1-0.1,0.1-0.2,0.1-0.4
		c0-0.2,0-0.3-0.1-0.3s-0.1-0.1-0.3-0.1c-0.1,0-0.2,0-0.2,0.1S122.9,21.5,122.9,21.7z"/>
	<path class="st1" d="M124.3,20.9h0.7l0.3,1l0.3-1h0.7v1.7h-0.4v-1.3l-0.3,1.3h-0.4l-0.3-1.3v1.3h-0.4L124.3,20.9L124.3,20.9z"/>
	<path class="st1" d="M126.5,20.9h0.8c0.2,0,0.3,0,0.4,0.1s0.1,0.2,0.1,0.4c0,0.2-0.1,0.3-0.2,0.4s-0.3,0.1-0.5,0.1H127v0.6h-0.5
		L126.5,20.9L126.5,20.9z M127,21.6h0.1c0.1,0,0.2,0,0.2-0.1c0,0,0.1-0.1,0.1-0.1c0-0.1,0-0.1-0.1-0.1c0,0-0.1-0.1-0.2-0.1H127
		C127,21.2,127,21.6,127,21.6z"/>
	<path class="st1" d="M128.2,20.9h0.5v1.2h0.8v0.4h-1.3V20.9z"/>
	<path class="st1" d="M129.8,20.9h0.5v1.7h-0.5V20.9z"/>
	<path class="st1" d="M131.6,22.2h-0.6l-0.1,0.3h-0.5l0.6-1.7h0.6l0.6,1.7h-0.5L131.6,22.2z M131.5,21.9l-0.2-0.6l-0.2,0.6H131.5z"
		/>
	<path class="st1" d="M132.4,20.9h0.5l0.6,0.9v-0.9h0.5v1.7h-0.5l-0.6-0.9v0.9h-0.5L132.4,20.9L132.4,20.9z"/>
	<path class="st1" d="M134.2,20.9h1.6v0.4h-0.5v1.2h-0.5v-1.2h-0.5L134.2,20.9L134.2,20.9z"/>
</g>
</svg>
