<?xml version="1.0" encoding="utf-8"?>
<!-- Generator: Adobe Illustrator 24.1.3, SVG Export Plug-In . SVG Version: 6.00 Build 0)  -->
<svg version="1.1" id="Layer_1" xmlns="http://www.w3.org/2000/svg" xmlns:xlink="http://www.w3.org/1999/xlink" x="0px" y="0px"
	 viewBox="0 0 407.5 355.4" style="enable-background:new 0 0 407.5 355.4;" xml:space="preserve">
<style type="text/css">
	.st0{fill:#FFFFFF;}
</style>
<g>
	<path class="st0" d="M0,306.3c45.6,4.1,85.9-7,122.6-34.5c-38.3-3.5-63.8-22.7-78.1-58.5c12.8,1.5,24.6,1.7,37-1.5
		c-50.2-12.8-67.8-57.5-65.6-83c11.3,5.7,23,9.5,37,9.8c-21-15.3-33-34.8-36.2-59.4C14.4,61,18,43.6,27.5,27.2
		c45.3,53.3,102.5,82.8,172,87.4c-0.3-8.4-1-16.4-0.8-24.3c1-34.2,27.4-67,60.5-75.5c31.1-7.9,58.4-0.9,81.8,21.1
		c1.8,1.7,3.3,1.9,5.6,1.4c16.2-3.6,31.6-9.3,46-17.5c0.9-0.5,1.9-0.9,3.4-1.7c-2.8,9.8-7.2,18.3-13.5,25.5
		c-6.2,7.1-13.4,13.4-20,19.9c14.9-1.8,29.6-6.2,44-12.1c0.3,0.3,0.6,0.7,0.9,1c-6.7,7.9-13.1,16.1-20.3,23.5
		c-5.8,6-12.6,11-18.8,16.6c-1.2,1.1-2.3,3.3-2.3,4.9c-0.1,86.3-34.1,155.7-104.4,206.3c-29.8,21.4-63.8,33-100.1,37.7
		c-34.2,4.4-68,2.2-101.1-7.3c-20.8-6-40.4-14.9-58.7-26.4C1.3,307.6,1,307.2,0,306.3z"/>
</g>
</svg>
