<?xml version="1.0" encoding="utf-8"?>
<!-- Generator: Adobe Illustrator 25.2.0, SVG Export Plug-In . SVG Version: 6.00 Build 0)  -->
<svg version="1.1" id="Camada_1" xmlns="http://www.w3.org/2000/svg" xmlns:xlink="http://www.w3.org/1999/xlink" x="0px" y="0px"
	 viewBox="0 0 248.01 248.01" style="enable-background:new 0 0 248.01 248.01;" xml:space="preserve">
<style type="text/css">
	.st0{fill:#FFFFFF;}
	.st1{fill:#FDFDFD;}
</style>
<path class="st0" d="M3.4,84.75c0-1.1,0-2.19,0-3.29c1.01-1.58,0.71-3.4,0.92-5.12c0.77-6.24,2.1-12.31,5.25-17.86
	c5.11-8.99,13.54-13.13,23.03-15.55c10.31-2.63,20.86-3.3,31.45-3.31c36.04-0.05,72.07-0.05,108.11-0.05
	c8.07,0,16.14-0.1,24.19,0.54c8.28,0.66,16.5,1.68,24.35,4.6c8.17,3.03,14.53,8.1,18.24,16.19c3.23,7.03,4.33,14.53,4.66,22.12
	c0.99,23.33,0.62,46.68,0.34,70.02c-0.12,9.63-1.26,19.21-4.57,28.38c-2.93,8.11-7.74,14.76-15.27,19.26
	c-9,5.38-19.02,6.86-29.19,7.69c-11.42,0.94-22.86,0.52-34.3,0.53c-33.06,0.01-66.12,0.05-99.18-0.15
	c-10.67-0.07-21.23-1.53-31.24-5.59c-8.29-3.36-14.94-8.68-19.33-16.65c-3.92-7.12-5.57-14.87-6.55-22.83
	c-0.23-1.87,0-3.83-0.92-5.59c0-23.98,0-47.96,0-71.94C3.57,85.69,3.84,85.22,3.4,84.75z M96.06,123.2c0,8.3-0.01,16.61,0,24.91
	c0.01,7.75,5.67,11.23,12.5,7.68c16.07-8.36,32.12-16.77,48.2-25.12c3.15-1.64,5.33-3.92,5.3-7.62c-0.04-3.59-2.14-5.81-5.23-7.41
	c-16.1-8.31-32.16-16.7-48.24-25.03c-6.77-3.51-12.5,0.02-12.52,7.69C96.05,106.59,96.06,114.9,96.06,123.2z"/>
<path class="st1" d="M0.05,83.65c0.45,0.48,0.18,0.97,0,1.45C0.05,84.62,0.05,84.13,0.05,83.65z"/>
</svg>
